<?xml version="1.0" encoding="utf-8"?>
<!-- Generator: Adobe Illustrator 26.0.1, SVG Export Plug-In . SVG Version: 6.00 Build 0)  -->
<svg version="1.1" id="Layer_1" xmlns="http://www.w3.org/2000/svg" xmlns:xlink="http://www.w3.org/1999/xlink" x="0px" y="0px"
	 viewBox="0 0 1262.2 358.4" style="enable-background:new 0 0 1262.2 358.4;" xml:space="preserve">
<style type="text/css">
	.st0{fill:#FFFFFF;}
	.st1{fill:none;}
	.st2{fill-rule:evenodd;clip-rule:evenodd;fill:#847B7D;}
	.st3{fill-rule:evenodd;clip-rule:evenodd;fill:#693113;}
	.st4{fill-rule:evenodd;clip-rule:evenodd;fill:#72675E;}
	.st5{fill-rule:evenodd;clip-rule:evenodd;fill:#FFFFFF;}
	.st6{fill-rule:evenodd;clip-rule:evenodd;fill:#2B296F;}
	.st7{fill-rule:evenodd;clip-rule:evenodd;fill:#626166;}
	.st8{fill-rule:evenodd;clip-rule:evenodd;fill:#B0ADB4;}
	.st9{fill-rule:evenodd;clip-rule:evenodd;fill:#554E84;}
	.st10{enable-background:new    ;}
	.st11{fill:#2B296F;}
</style>
<path class="st0" d="M29.2,49.7c-1.3,3.3-1.6,6.8-1,10.3c0.2,1.5,0.8,3.2,2.6,3.3s2.8-1.3,3.5-2.6c2.9-5.6,2.8-12.2-0.1-17.7
	c-0.3-0.6-1-0.9-1.7-0.7c-0.6,0.2-1.1,0.8-1.1,1.5l-1.6,12.8c0,0.8,0.7,1.5,1.5,1.5c0.8,0,1.5-0.7,1.5-1.5l1.6-12.8l-2.8,0.8
	c2.1,4,2.4,8.7,0.8,13c-0.2,0.5-0.4,1-0.6,1.5c-0.2,0.5-0.6,0.8-0.8,1.3l-0.1,0.1c-0.2,0.1-0.1,0.2,0.5,0.2c0-0.2-0.1-0.4-0.2-0.6
	C31.1,59.2,31,58.6,31,58c-0.2-2.5,0.2-5.1,1.1-7.5c0.2-0.8-0.2-1.6-1-1.8C30.3,48.4,29.5,48.9,29.2,49.7L29.2,49.7z"/>
<path class="st0" d="M36.6,38.9c-1.1,4.8,1,9.8,5.3,12.4c4.5,2.8,10.5,2.1,15.2,0.2c5-2,6.8-6,6.9-11.2c0.1-4.2-0.5-8.9-3.3-12.3
	c-7.1-8.6-19.8-1.7-19.8,8.4c0,4.8,2.5,10.6,7.9,11c6.2,0.4,8.7-5.8,8.8-10.9c0-1.8-0.9-3.4-2.5-4.3l-2.2-1c-5.8-2.6-10.9,6-5,8.6
	l2.2,1l-2.5-4.3v1.1l3.7,0.6c0.1-0.1-0.4-1.5-0.3-1.8c0-0.8,0.3-2.1,1.3-2.3c1.6-0.3,1.7,2.7,1.8,3.8c0.2,1.2,0.2,2.4,0,3.6
	c-0.3,0.7-0.8,0.8-2.1,1.2c-0.8,0.2-6.1,1.2-5.6-1.1C47.6,35.3,38,32.6,36.6,38.9L36.6,38.9z"/>
<path class="st0" d="M32.5,46c-0.4,7.2,1.3,17.4,7.1,22.4c1.3,1.1,3.2,1.9,4.9,1.3c6.7-2.6,7.2-11.8,7.3-18.1l-9.3,2.5
	c2.9,5.9,6.7,13.6,3.5,20.1l8.6,5c3.3-6.5,4.7-13.8,4.2-21.1c-0.5-6.4-10.5-6.4-10,0c0.6,5.5-0.4,11-2.8,16c-2.8,5.8,5.8,10.8,8.6,5
	c5-10.3,1.2-20.5-3.5-30.2c-2.2-4.6-9.3-2.2-9.3,2.5c0,3.4-0.2,7.4-2,10.4l3-2.3l-0.9,0.3l4.9,1.3C42.7,58,42.2,50.7,42.5,46
	C42.8,39.6,32.8,39.6,32.5,46z"/>
<path class="st0" d="M52,76.3c-0.7,0.4-1.2,0.3-1.6-0.3v7.1c2.3-2,4.8-3.7,7.7-4.9c5.8-2.4,3.7-11.5-2.7-9.6
	c-5.5,1.6-11.3,1-16.4,3.6c-4.6,2.2-7.6,6.7-7.9,11.7c-0.2,4.1,4.3,5.8,7.5,4.3c5.1-2.4,10.4-9.6,10.5-15.4c0.2-4-2.9-7.5-7-7.7
	c-1.9-0.1-3.8,0.6-5.3,1.9c-4.8,4.3,2.3,11.4,7.1,7.1l-4.8-1.5l-0.5,1c-0.6,0.8-1.1,1.7-1.5,2.6c-0.8,1.5-2.1,2.6-3.6,3.3l7.5,4.3
	c0.3-5.2,13.6-4.7,16.9-5.7l-2.7-9.6c-4.4,1.8-8.5,4.3-12.1,7.4c-2,1.8-1.8,5.2,0,7.1c2.2,2.4,5.4,3.7,8.6,3.3c2.7-0.4,5-2.1,5-5
	C57,78.9,54.6,76,52,76.3z"/>
<path class="st0" d="M35.1,75.5c-1.5,0.4-3.8,1-4.6-0.4s2.8-0.3,0.3-2.8C30.5,72,27,72.1,26.3,72c-1.7-0.2-3.5-0.1-5.2,0.2
	c-1.1,0.3-2.9,1.9-4,2c-0.5,0-2.4-1-3.3-1.2c-3.2-0.7-5.1,0.7-7.9,1.9h5l-0.5-0.4l2.3,3l-0.1-0.7l-2.3,5.6l0.4-0.3
	c5.3-3.6,0.3-12.3-5-8.6l-0.4,0.3c-1.9,1.2-2.8,3.5-2.3,5.7c1.1,4.6,5.3,5.1,9.1,3.5c1.1-0.9,1.3-1.1,0.7-0.4
	c-0.7,0.4-0.4,0.7,0.8,0.8c0.9,0.5,2,0.8,3,0.8c2.7,0.3,4.2-1,6.6-1.9c4.2-1.5,8.8,1,13.2-1.5c3.9-2.2,5.4-7.1,3.5-11.1
	c-4-8.6-16.1-6.4-18.7,1.9c-3.4,10.8,7.7,15.7,16.6,13.5C44,83.6,41.4,73.9,35.1,75.5z"/>
<path class="st0" d="M10.8,76.8c1.7,7.9,11,11.5,17.8,8c2.4-1.2,3.1-4.6,1.8-6.8c-1.4-2.3-4.4-3.1-6.8-1.8c0.7-0.3-0.2,0.1-0.4,0.1
	s-0.3,0.1,0.1,0h-0.5c1.1,0.4-1.7-0.6-0.8-0.2c-0.9-0.4-0.7-0.2-1.2-0.9c-0.2-0.4,0.1,0.3-0.2-0.4c0.3,0.8-0.1-0.5-0.1-0.7
	c-0.7-2.7-3.5-4.2-6.2-3.5S10,74.1,10.8,76.8L10.8,76.8L10.8,76.8z"/>
<path class="st0" d="M23.5,72.8l-0.2-9.3c-0.1-5.3-6.5-6.3-9.3-2.5c-1.4,1.9-3.1,3.6-5,5l7.3,3c-0.9-3.4-1.9-7.8,0.6-10.9
	c1.2-1.5,6-3,5.1,0.5l7.4-3c-2.3-1.1-2.8-3.2,0-4c6.2-1.6,3.6-11.3-2.7-9.6C16,44.7,13.9,59.3,24.3,64.2c2.8,1.3,6.5,0.4,7.3-3
	c2.3-8.9-6.2-17-15.1-14.5C5.6,49.8,4.1,62.3,6.6,71.6c0.8,2.8,4.7,5,7.4,3c3.3-2.4,6.1-5.3,8.6-8.6l-9.3-2.5l0.2,9.3
	C13.6,79.2,23.6,79.2,23.5,72.8z"/>
<path class="st0" d="M17.5,45.3c-2.7,4.4-3.8,9.5-3.2,14.6c0.4,2.7,2.1,5,5,5c2.4,0,5.3-2.3,5-5c-0.5-3.3,0.1-6.7,1.8-9.5
	C29.4,44.8,20.8,39.8,17.5,45.3L17.5,45.3z"/>
<path class="st0" d="M20.8,49.5l-1-19.8c-0.3-6.4-10.3-6.5-10,0l1,19.8C11.1,55.9,21.1,56,20.8,49.5z"/>
<path class="st0" d="M11.6,21.9c0.4,2.4,0.2,5-0.5,7.3c-0.7,2.7,0.8,5.4,3.5,6.2c2.7,0.7,5.4-0.8,6.2-3.5c1-3.2,1.3-6.6,0.9-10
	c-0.4-2.7-2-5-5-5C14.2,16.9,11.2,19.2,11.6,21.9L11.6,21.9z"/>
<path class="st0" d="M6,21.9c-0.6,8.9-0.7,17.8-0.3,26.7c0.2,6.4,10.2,6.4,10,0c-0.3-8.9-0.2-17.9,0.3-26.7
	C16.4,15.5,6.4,15.5,6,21.9z"/>
<path class="st0" d="M19.3,31.1c3.7,0.5,7.2,1.5,10.6,2.9c2.5,1,5.5-1.1,6.2-3.5c0.8-2.9-1-5.1-3.5-6.1c-4.2-1.7-8.7-2.8-13.2-3.3
	c-2.7-0.3-5,2.5-5,5C14.3,29,16.6,30.7,19.3,31.1z"/>
<path class="st0" d="M10.6,58.8c6.4,0,6.4-10,0-10S4.2,58.8,10.6,58.8z"/>
<path class="st0" d="M22.7,27l25.9-1l-4.8-3.7c0.4,2.7-6.8,2.3-8,2.3c-6.4,0-6.4,10,0,10c9.3,0.1,19.4-3.9,17.7-15
	c-0.3-2.1-2.8-3.8-4.8-3.7l-25.9,1C16.3,17.2,16.2,27.2,22.7,27z"/>
<path class="st0" d="M120.6,37.3c-2.2,2.4-4.5,4.8-6.9,7c-1.1,1-2.2,2-3.4,3l-1.4,1.1c-2,0.8-1.4,1.5,1.5,2l-7.8,6
	c7.4,6.1,15.9,3.5,23.2-1.6c2.9-2.1,6.1-4.5,7-8.2c0.5-2.3-0.4-4.7,0.1-6.8c0.5-2,2.2-3.7,3.4-5.3c3.6-4.9,6.1-15.3-2.6-16.7
	c-4.1-0.6-6.9,2-8.4,5.5c-1.9,4.4-3.6,7.4-8.3,9.4l6.1,7.8l6.4-6.8c1.2-1.2,4.9-6.5,6.8-5.9l-3.7-4.8l-2.5,29.2l-1.4,15.6
	c-0.3,3.4-1,6.9,1.2,9.8c5,6.6,12.5,0.6,13.4-5.6c1.4-9.2,0.8-19-0.4-28.2c-0.8-6.4-9.1-6.4-10,0c-0.7,5.3-6.4,7.4-7.3,12.7
	c-1,5.8-0.3,12.2,0.5,18c0.6,4.5,0.9,10.8,5.6,12.9c4.9,2.2,9.3-1.7,11.5-5.8c3-5.7-5.6-10.8-8.6-5c-1.4,1.6-0.6,2.4,2.4,2.5
	l-0.4-1.8c0.2-1.7-0.7-4.1-0.9-5.9c-0.4-3.6-1.1-8.2-0.3-11.8c0.5-2.6,3.3-4.4,4.8-6.8c1.6-2.7,2.5-5.8,2.8-8.9h-10
	c0.6,4.8,0.9,9.6,1,14.5c0,2.3,0,4.5-0.1,6.8c-0.1,1.3-0.1,2.6-0.2,3.9c-0.8,2.2-0.2,2.6,1.9,1.4l3,2.3c-1.2-1.6,0.6-9.5,0.8-11.6
	l1.2-12.8l2.2-25.3c0.2-2.2-1.7-4.2-3.7-4.8c-9.5-3.1-17.5,9.5-23.1,15.3c-4.2,4.4,1.1,10,6.1,7.9c4.4-1.9,8.1-5.1,10.4-9.3
	c0.4-0.8,0.8-1.7,1.1-2.5c1-2.4,1.5-2.3-1.4-3s-2.3-0.2-3.6,1.8c-0.7,1-1.5,1.9-2.2,2.9c-1.3,1.6-2.3,3.4-3,5.3
	c-0.3,1.1-0.5,2.2-0.6,3.3c-0.1,1.1,0.6,2.9,0.2,3.9c-1.2,3.5-10.1,8.3-13.3,5.7c-4.4-3.6-10.4,0.8-7.9,6.1
	c5.8,11.9,21.9-6.6,25.9-11.1C131.9,39.6,124.9,32.5,120.6,37.3L120.6,37.3z"/>
<path class="st0" d="M117.3,36.2c-6.1,2.8-12.6,4.6-19.3,5.3l4.8,3.7c-0.5-2.1,0.1-4.4,1.5-6h-7.1l3.7,4.5c4.1,5,11.1-2.2,7.1-7.1
	l-3.7-4.5c-1.6-2-5.4-1.9-7.1,0c-3.9,4.3-5.4,10.2-4.1,15.8c0.6,2.2,2.6,3.7,4.8,3.7c8.4-0.9,16.7-3.1,24.4-6.7
	C128.3,42.1,123.2,33.5,117.3,36.2L117.3,36.2z"/>
<path class="st0" d="M104.2,32.6L89,18.6c-4.7-4.3-11.8,2.7-7.1,7.1l15.3,14C101.9,44,109,36.9,104.2,32.6z"/>
<path class="st0" d="M82.8,16.3c-6.9,4-9.3,12.8-5.3,19.7c0.8,1.4,1.9,2.7,3.2,3.8c8.3,7.4,20.7,7.3,30.3,2.9
	c5.8-2.7,0.8-11.3-5-8.6c-4.9,2.3-10.5,2.4-15.4,0.3c-3.8-1.7-7.7-6.4-2.7-9.4C93.4,21.6,88.4,13,82.8,16.3L82.8,16.3z"/>
<path class="st0" d="M89.5,35.3h0.2l-1.3,0.2h0.7l-1.3-0.2c0.4,0,0.7,0.1,1.1,0.3L87.7,35c0.2,0.1,0.4,0.2,0.6,0.3
	c-0.2,0-1-0.9-0.4-0.3c0.5,0.5-0.1,0.3-0.3-0.4c0.1,0.2,0.2,0.4,0.3,0.6l-0.5-1.2c0.1,0.1,0.1,0.3,0.1,0.4c0.7,2.7,3.5,4.2,6.2,3.5
	c2.7-0.7,4.2-3.5,3.5-6.2c-0.6-2.1-2-4-3.8-5.1c-0.8-0.5-1.6-0.8-2.4-1c-1.3-0.3-2.7-0.3-4,0c-1.3,0.3-2.3,1.2-3,2.3
	c-0.7,1.2-0.8,2.6-0.5,3.8c0.3,1.3,1.2,2.3,2.3,3C86.9,35.4,88.2,35.6,89.5,35.3L89.5,35.3z"/>
<path class="st0" d="M81.3,27.8c6.4,0,6.4-10,0-10S74.9,27.8,81.3,27.8z"/>
<path class="st0" d="M81.9,45.2C81.3,58,79.5,71.3,81.4,84c0.9,5.8,9.5,4,9.8-1.3c0.5-7.3-7.3-11.3-13.5-8.3l7.5,4.3
	c-0.6-14.9-0.9-29.8-1-44.7c0-6.4-10-6.4-10,0c0,14.9,0.4,29.8,1,44.7c0.1,2.8,2.4,5,5.2,5c0.8,0,1.6-0.2,2.3-0.6l-1.6-0.4l9.8-1.3
	c-1.7-11.6,0.3-24.4,0.8-36.1C92.1,38.8,82.1,38.8,81.9,45.2L81.9,45.2z"/>
<path class="st0" d="M162.3,40.3c4.2,0.5,9.3,1.1,13.4,0c4.7-1.2,6-5.6,6.4-9.9c0.4-3.8-1-7.8-4.5-9.6s-8.4-0.9-10.3,2.9
	c-2.9,5.7,5.7,10.8,8.6,5.1c-0.6,1.3-2.4,1-3.4,0.6s0-0.8-0.4,0.4c-0.2,0.5-0.2,1-0.2,1.5c-0.2,0.6-0.1,0.6,0.5-0.1
	c0.9-0.5,0.8-0.7-0.5-0.4c-3.1-0.5-6.5-0.1-9.8-0.4c-2.7-0.3-5,2.5-5,5C157.3,38.4,159.6,40.1,162.3,40.3z"/>
<path class="st0" d="M174.4,27.9l12.9,0.4c3.7,0.1,9-0.5,12.3,1.5c4.9,3,6.4,9.2,11.8,12c5.7,2.9,10.8-5.7,5-8.6
	c-6-3.1-7.5-10.7-14.4-13.3c-3.7-1.4-7.8-1.4-11.7-1.5l-15.9-0.5C168,17.7,168,27.7,174.4,27.9z"/>
<path class="st0" d="M220.4,35.9c-5.4-3.6-10.1-8.2-13.6-13.7c-3.5-5.4-12.1-0.4-8.6,5c4.5,6.9,10.3,12.8,17.2,17.3
	C220.8,48.1,225.9,39.5,220.4,35.9z"/>
<path class="st0" d="M199.3,26.3l11.1,13.9c1.7,2.1,5.3,1.8,7.1,0c2.1-2.1,1.7-5,0-7.1l-11.1-13.9c-1.7-2.1-5.3-1.8-7.1,0
	C197.3,21.3,197.7,24.2,199.3,26.3L199.3,26.3z"/>
<path class="st0" d="M216.7,40.7c6.4,0,6.4-10,0-10S210.2,40.7,216.7,40.7z"/>
<path class="st0" d="M179.5,35.2c9.3-0.6,18.5,2.6,25.3,8.9c4.7,4.3,11.8-2.7,7.1-7.1c-8.7-8.2-20.4-12.5-32.4-11.8
	C173.1,25.5,173.1,35.5,179.5,35.2z"/>
<path class="st0" d="M206.7,40.4c-1.7,9.5-1,19.4,2,28.6c1.8,5.5,9.3,4.3,9.8-1.3l1.6-18.2c0.6-6.4-9.4-6.4-10,0l-1.6,18.3l9.9-1.3
	c-2.6-7.5-3.3-15.5-2-23.3C217.4,36.9,207.7,34.2,206.7,40.4L206.7,40.4z"/>
<path class="st0" d="M207,59.5c-0.9,3.7-3,7-6.1,9.3l6.8,1.8c-0.9-2.1-2.6-1.9-5.1,0.6l0.9,1.2c0.6,2.1,1.3,1.4-0.3,2.9
	c-1,0.7-2.1,1.2-3.3,1.5c-0.6,0.2-1.2,0.4-1.8,0.4c-1.2-0.4-2,0.3-2.3,2.3c6.3-0.8,6.4-10.8,0-10c-7.2,0.9-11.1,9.4-5.2,14.8
	c5.7,5.2,15.4,2.3,20.5-2.4c5.9-5.4,3.1-15.6-3.4-19.5c-3.3-1.9-7.6-0.8-9.6,2.5c-2.3,3.6-1.1,7.4,1,10.8c1.3,2.1,4.6,3.4,6.8,1.8
	c5.3-3.7,9-9.1,10.7-15.3C218.3,55.9,208.6,53.2,207,59.5z"/>
<path class="st0" d="M192,73.9c-2,0.3-8.1,0.4-9-1.7l0.7,2.5V74l-0.7,2.5l0.3-0.6l-1.9,1.8c-0.6,0.1-0.5,0.1,0.1,0.1h10
	c6.4,0,6.4-10,0-10c-3.8,0-7.6-0.3-11.4,0c-4.5,0.4-7.8,4.2-6.2,8.8c2.6,7.4,14.2,7.9,20.6,6.9c2.7-0.4,4.1-3.8,3.5-6.2
	C197.3,74.5,194.6,73.4,192,73.9L192,73.9z"/>
<path class="st0" d="M170.1,79.6c1.7,2.7,4.6,4.3,7.8,4.2c1.3,0,2.6-0.5,3.6-1.5c0.9-0.9,1.5-2.2,1.5-3.5c-0.1-2.6-2.2-5.2-5-5
	c-0.3,0-0.5,0-0.8,0l1.3,0.2c-0.3,0-0.7-0.1-1-0.3l1.2,0.5c-0.3-0.1-0.6-0.3-0.9-0.5l1,0.8c-0.2-0.2-0.4-0.4-0.6-0.6l0.8,1
	c-0.1-0.1-0.2-0.2-0.2-0.3c-0.7-1.1-1.8-1.9-3-2.3c-1.3-0.3-2.7-0.2-3.9,0.5C169.7,74.2,168.6,77.3,170.1,79.6L170.1,79.6z"/>
<path class="st0" d="M179.2,74c-2.1-1.7-2.7-3.7-2-6l-6.1,3.5c1.1,0.2,0.2,0.1-0.1-0.5c3.5,5.4,12.2,0.3,8.6-5
	c-1.3-2.1-3.4-3.6-5.8-4.1c-2.8-0.4-5.3,0.7-6.1,3.5c-1.7,5.7,0,11.8,4.5,15.7c2.1,1.7,5,2,7.1,0C180.9,79.3,181.3,75.7,179.2,74
	L179.2,74z"/>
<path class="st0" d="M171,65l1.7,3.4c0.7,1.1,1.7,1.9,3,2.3c2.7,0.7,5.4-0.9,6.1-3.5c0.3-1.3,0.2-2.6-0.5-3.7l-1.7-3.4
	c-1.4-2.4-4.5-3.2-6.8-1.8C170.4,59.6,169.6,62.6,171,65L171,65z"/>
<path class="st0" d="M165.3,41c0.7,8.2-0.6,16.5-3.8,24.1c-2.5,5.8,6.1,10.9,8.6,5c4.1-9.2,5.9-19.2,5.2-29.2
	C174.9,34.5,164.9,34.5,165.3,41L165.3,41z"/>
<path class="st0" d="M169.3,67.2c1.3-9,2-18,2.1-27.1c0.1-6.4-9.9-6.4-10,0c0,8.2-0.6,16.4-1.8,24.5
	C158.8,70.8,168.4,73.5,169.3,67.2L169.3,67.2z"/>
<path class="st0" d="M241.7,20.3l-2.8,2.6l3.5-1.4h-0.8l3.5,1.5l-0.7,5.1l2.8-0.1l3.7-0.2l8.3-0.4c5.5-0.3,11.6-1.3,17,0.3
	c2.2,0.7,4.6,1.9,5.6,4.2c1.2,2.5-0.1,4.3-1.5,6.4c-2.7,4.1-4.5,8.3-2.9,13.3c1.7,5.2,9.8,4.5,9.8-1.3V39.5l-6.3,4.8
	c0.8,0.2,1.3,1.1,1,1.9c0,0,0,0.1,0,0.1c-1.2,5.5,6.1,8.8,9.1,3.8c2.9-4.6-0.2-10.3-5.4-11.4c-1.4-0.3-3.1,0.4-4.4,0l-1,0.3
	c-0.2-0.8-0.3-1.6-0.3-2.4c0.1-2.9,0.5-5.7,1-8.5l-8.5,3.5c3,2.6,5,6.2,5.5,10.2c0.8,6.3,10.8,6.4,10,0c-0.7-6.6-3.7-12.7-8.5-17.2
	c-3.4-3.2-8-0.6-8.5,3.5c-0.6,5-2,10.5,0.4,15.2c0.9,2,2.5,3.6,4.5,4.6c1.3,0.6,2.6,0.9,4,0.9l1.5-0.1c2.2,0.2,2.6-1,1.2-3.7
	l9.1,3.9c1.4-6.5-1.7-12-8-14.3c-3.1-1.2-6.3,1.8-6.3,4.8v10.5l9.8-1.3c-1.2-3.6,4.2-8.5,5-12.3c0.8-4-0.3-8.2-2.8-11.5
	c-5.8-7.9-15.6-8.4-24.6-8c-5.2,0.2-10.4,0.5-15.6,0.8c-3.8,0.2-8.7-0.3-11.4,2.9c-2.4,2.7-2.2,6.9,0.5,9.4
	c3.9,3.5,7.6,0.3,10.6-2.5C253.5,22.9,246.4,15.9,241.7,20.3L241.7,20.3z"/>
<path class="st0" d="M285.2,46.7c-3.7-4.3-9.4-6.4-15-5.3c-3.4,0.7-5.2,2.4-7.9,4.3c-2.7,1.9-6.2,1.1-8.9,3.2
	c-3.1,2.2-3.9,6.4-1.7,9.6c1,1.5,2.6,2.5,4.4,2.8c3.1,0.7,6.8,0.1,9.9-0.3c2.9-0.4,9.5-3.2,11.1,0.1l1.8-6.8c-2.7,1.4-5.6,2.5-8.6,3
	c-2.7,0.5-4.1,3.7-3.5,6.1c1.5,6.1,5.5,12.7,12.7,11.4c6.4-1.1,8-7.8,7.6-13.3c-0.5-6.4-10.5-6.4-10,0c0,0.7,0.4,2.9,0,3.5
	c0.8-1.2-0.4-3.1-0.7-4.3l-3.5,6.1c3.9-0.8,7.6-2.1,11-4c2.5-1.4,2.9-4.5,1.8-6.8c-2-4.3-6.5-6.5-11.2-6.5c-3,0-5.8,0.8-8.7,1.3
	c-1.7,0.3-6.5,1.1-7.5,0.6l2.3,3c0.7,1.9-3.2,2.2,0.2,2.5c1,0,2-0.1,2.9-0.4c2-0.7,3.7-1.9,5.2-3.3c3.1-2.7,6.5-2.9,9.3,0.5
	C282.2,58.8,289.2,51.7,285.2,46.7L285.2,46.7z"/>
<path class="st0" d="M278,67.3c0.6,3.9,0.2,7.9-1.3,11.5l9.8,1.3c-0.3-3.7,1.4-7.3,4.5-9.5l-7.3-3c1.2,3.9,1.9,7.9,2.2,12
	c0.4,6.4,10.4,6.4,10,0c-0.3-5-1.1-9.9-2.6-14.6c-0.9-2.9-4.6-4.9-7.4-3c-6.1,4-9.7,10.8-9.5,18.1c0.2,5.8,7.9,6.6,9.8,1.3
	c1.9-5.4,2.4-11.2,1.3-16.9c-0.5-2.7-3.7-4.2-6.1-3.5C278.7,61.9,277.5,64.6,278,67.3L278,67.3z"/>
<path class="st0" d="M272.3,42.3c-6-0.9-11.9,0.2-17.8-0.3c-2.5-0.2-4.1-1.1-6.3-2.1c-0.5-0.3-1-0.8-1.3-1.3l-3.9,1.1
	c-0.1,0.4,2.1,2.4,2.3,2.6c2,2,5.1,2,7.1,0c1.3-1.3,1.8-3.1,1.3-4.9l-0.8-3l-0.5,3.8c3.2-4.3,10.2-3.1,14.7-2.4
	c6.3,0.9,9-8.7,2.7-9.6s-12.9-1.8-18.9,1c-2.5,1.1-4.6,2.7-6.3,4.9c-2,2.8-1.4,4.8-0.6,8l8.4-4.9c-3.4-3.1-6.7-7.6-11.9-4.6
	c-4.3,2.5-4.6,8.4-2.5,12.4c6.5,12.2,21,7.3,31.8,8.9C275.9,52.9,278.6,43.2,272.3,42.3L272.3,42.3z"/>
<path class="st0" d="M252.6,37.1l1.7-7.8c0.6-2.5-0.8-5.5-3.5-6.1c-2.5-0.6-5.5,0.8-6.1,3.5l-1.7,7.8c-0.6,2.6,0.8,5.5,3.5,6.2
	C248.9,41.2,252,39.8,252.6,37.1L252.6,37.1z"/>
<path class="st0" d="M243.5,52.1c0.1,4.3,0.1,8.6,0.1,12.8c0,2,0,4-0.1,5.9c0,0.8,0.4,5.6,0.3,5.7l3.5-1.5c-1.2,0.2-2.6-0.8-3.8-0.8
	c-1.7,0-3.2,0.7-4.3,1.9c-4.5,4.6,2.6,11.7,7.1,7.1l0.5-0.5l-3.5,1.5c2.3,0,3.6,1.5,6.1,0.4c2.8-1.3,3.8-4,4-6.8
	c0.7-8.5,0.3-17.2,0.2-25.7C253.4,45.7,243.4,45.7,243.5,52.1z"/>
<path class="st0" d="M246.4,80.6l-1-35.3c-0.2-6.4-10.2-6.5-10,0l1,35.3C236.6,87,246.6,87,246.4,80.6z"/>
<path class="st0" d="M309.2,24.1c5.5,19.9,12.5,39.4,21.2,58.1c2.7,5.8,11.3,0.8,8.6-5c-8.2-18-15-36.6-20.2-55.7
	C317.1,15.3,307.5,18,309.2,24.1L309.2,24.1z"/>
<path class="st0" d="M360.5,80.6v-6c0-2.8-2.2-5-5-5s-5,2.2-5,5v6c0,2.8,2.2,5,5,5S360.5,83.3,360.5,80.6z"/>
<path class="st0" d="M358.9,67.8h-22.5c-6.4,0-6.4,10,0,10h22.4C365.3,77.8,365.3,67.8,358.9,67.8L358.9,67.8z"/>
<path class="st0" d="M336,80.3c5.3,2,10.9,2.5,16.5,1.5c2.7-0.4,4.1-3.8,3.5-6.2c-0.8-2.9-3.5-3.9-6.1-3.5c-3.8,0.5-7.6,0-11.2-1.5
	c-2.5-1-5.5,1.1-6.1,3.5C331.7,77,333.5,79.3,336,80.3z"/>
<path class="st0" d="M348.2,74.8c-5.8,0.9-11.7-0.3-16.8-3.2c-5.6-3.1-10.7,5.5-5,8.6c7.4,4.2,16.1,5.6,24.5,4.2
	C357.2,83.4,354.5,73.8,348.2,74.8z"/>
<path class="st0" d="M327.2,72.8c-7.6,2.3-4.1-18-3.9-21.3l-9.8,1.3l6,23.1c1.6,6.2,11.3,3.6,9.6-2.7l-6-23.1
	c-1.5-5.7-9.4-4.1-9.8,1.3c-0.6,7.5-2.6,16.8,1.1,23.8c3,5.6,9.2,9,15.5,7.1S333.4,70.9,327.2,72.8z"/>
<path class="st0" d="M334,65.1c0.7-6.2,0.9-12.5,0.6-18.8c-0.3-6.4-9.9-6.5-10,0c-0.1,6.3,2.8,14,10.5,13.2c3.1-0.3,5.8-2.4,6.8-5.5
	c0.8-2.5,0-5.1,0.6-7.6l-8.4,2.2c2,1.9,3.2,4.6,3.4,7.3c0.3,4.7,6.7,7.1,9.3,2.5c2.2-3.9,3-8.5,2.2-12.9c-0.4-2.7-3.8-4.1-6.1-3.5
	c-2.9,0.8-3.9,3.5-3.5,6.2c0.2,1.8-0.2,3.6-1.2,5.2l9.3,2.5c-0.3-5.4-2.6-10.6-6.4-14.4c-2.6-2.6-7.5-1.5-8.4,2.2
	c-0.5,1.9-0.7,3.8-0.4,5.8c0,0.3,0,0.7,0,1c-0.2,1.3,0.6,1.1,2.4-0.8c0.3-0.6-0.2-2.7-0.2-3.4h-10c0.3,6.3,0.1,12.5-0.6,18.8
	C323.2,71.5,333.2,71.4,334,65.1L334,65.1z"/>
<path class="st0" d="M358.4,25.4c-5.8-0.9-11.6-1.1-17.4-0.4c-2.1,0.3-14.6,4-15,0.2c-0.6-6.4-10.6-6.4-10,0
	c0.7,7,6.2,11.5,13.2,11.6c3.9,0.1,7.6-1.2,11.4-1.8c5-0.8,10.2-0.8,15.2,0C362,36,364.7,26.4,358.4,25.4L358.4,25.4z"/>
<path class="st0" d="M317.9,28.3c12.4,2,25,2.6,37.5,2c6.4-0.3,6.5-10.3,0-10c-11.6,0.7-23.3,0.1-34.8-1.6
	C314.3,17.7,311.6,27.3,317.9,28.3L317.9,28.3z"/>
<path class="st0" d="M355.8,19.6c-7.3,1.2-14.7,1.3-22,0.3c-6.4-0.8-6.3,9.2,0,10c8.2,1,16.5,0.8,24.6-0.6
	C364.8,28.1,362.1,18.5,355.8,19.6L355.8,19.6z"/>
<path class="st0" d="M329.9,26.2c8.4,1.3,17,1.9,25.5,1.6c6.4-0.2,6.4-10.2,0-10c-7.6,0.3-15.3-0.1-22.9-1.2
	C326.3,15.6,323.6,25.2,329.9,26.2z"/>
<path class="st0" d="M358.9,26.9c6.4,0,6.4-10,0-10S352.5,26.9,358.9,26.9z"/>
<path class="st0" d="M306.2,31.2c2.7,8.7,2,17.5,1.9,26.5c-0.1,4.1,0.1,8.2,0.6,12.2c0.2,1.7,3.2,9.8,2,11.1
	c-4.3,4.8,2.7,11.8,7.1,7.1c3-3.3,3.4-6.9,2.6-11.2c-1-5.3-2.3-10.2-2.4-15.7c-0.2-11,1.1-22-2.2-32.7
	C313.9,22.4,304.2,25,306.2,31.2L306.2,31.2z"/>
<path class="st0" d="M309.5,78.8c0.6,5.9,5.8,10.3,11.8,9.8c2.2-0.2,4.3-1.1,6-2.5c2.1-1.7,1.8-5.3,0-7.1c-2.1-2.1-5-1.7-7.1,0
	c0.4-0.3,0.5-0.4,0.2-0.2s-0.2,0.1,0.3-0.1c-0.6,0-0.2,0,0.2,0c-0.4,0-1.3-0.2-0.3,0.1c-0.1,0-1.2-0.3-0.6-0.1s-0.5-0.3-0.5-0.3
	c0.5,0.3,0.3,0.2-0.1-0.1s0.6,0.6,0-0.1l0.2,0.5c-0.1-0.6-0.2-0.5-0.1,0.2c-0.3-2.7-2.1-5-5-5C312.1,73.8,309.3,76.1,309.5,78.8
	L309.5,78.8z"/>
<path class="st0" d="M326.1,87.8c4.8-0.2,9.5-1.4,13.9-3.6c2.4-1.2,3.1-4.6,1.8-6.8c-1.4-2.3-4.4-3.1-6.8-1.8
	c-2.8,1.3-5.8,2.1-8.8,2.2C319.7,78.1,319.7,88.1,326.1,87.8z"/>
<path class="st0" d="M412.2,28.1c-0.6,9.6,10,11.4,16.9,8.4c1.8-0.8,3.8-2.4,5.8-2.6c2.4-0.2,5.1,1.5,7.1,2.6
	c4.5,2.4,8.8,5.2,12.8,8.5l1-7.8l2.7,0.5l-5.6,7.3l5.2,1.9c2.5,0.9,5.5-1,6.1-3.5c2.8-11.3-5.6-19-14.1-24.7
	c-5.4-3.6-10.4,5.1-5,8.6c4.4,2.9,11.1,7.1,9.5,13.4l6.1-3.5l-5.2-1.9c-4.2-1.5-7.7,3.8-5.6,7.3c2.4,4.2,6.8,5.1,11,3.1
	c2.8-1.3,3.4-5.9,1-7.9c-5.8-5-12.4-9.1-19.4-12.3c-3.3-1.4-6.7-2.2-10.3-1.4c-1.2,0.3-10,3.7-10.1,3.8
	C422.6,21.6,412.6,21.7,412.2,28.1z"/>
<path class="st0" d="M445.1,17.9l-21.5,1c-6.4,0.3-6.5,10.3,0,10l21.5-1C451.5,27.6,451.6,17.6,445.1,17.9z"/>
<path class="st0" d="M421.8,28.7c6.4,0,6.4-10,0-10S415.4,28.7,421.8,28.7z"/>
<path class="st0" d="M423.6,26.9c6.4,0,6.5-10,0-10S417.1,26.9,423.6,26.9z"/>
<path class="st0" d="M405.6,34.9l2.2,20.4c0.6,5.7,7.7,6.7,9.8,1.3c2.3-5.8,3.4-12,3.1-18.3c-0.2-6.4-10.2-6.4-10,0
	C410.9,43.7,410,49,408,54l9.8,1.3l-2.2-20.4C414.9,28.6,404.9,28.5,405.6,34.9z"/>
<path class="st0" d="M409.8,38.3c0,5.1-0.6,10.2-1.8,15.2c-1.4,6.3,8.2,8.9,9.6,2.7c1.3-5.9,2-11.8,2.1-17.8
	C419.9,31.9,409.9,31.9,409.8,38.3z"/>
<path class="st0" d="M403.9,48.7l0,12.9c0,3.4-0.5,7.3,1.1,10.5c1.3,2.5,3.8,3.9,6.1,5.4c3.5,2.2,6.9,4.4,10.4,6.7s7.1-0.8,7.5-4.3
	c1.1-9.6,0.5-19.4-8.2-25.1c-2.8-1.8-6.4,0.1-7.3,3c-1.3,3.9-1.3,8.2,0.1,12.1c2.1,6,11.8,3.4,9.6-2.7c-0.9-2.2-0.9-4.6-0.1-6.7
	l-7.4,3c5.3,3.4,3.9,11.2,3.3,16.5l7.5-4.3l-6.7-4.3c-1.9-1.2-5.1-2.5-6-4.7c-0.8-2,0-5.8,0-8v-10C413.8,42.2,403.8,42.2,403.9,48.7
	L403.9,48.7z"/>
<path class="st0" d="M429.6,80.5c4.5,0.3,8,2.8,12.5,0.4c3.6-1.8,5.3-6,3.9-9.8c-1.6-4.2-6.1-6.5-10.5-5.4c-4.3,1-7,4.9-8.2,8.9
	s-1.8,9.3,2.1,11.8c3.3,2.1,8.8,0.8,12.3,0.2c8.9-1.5,17.6-8.2,16.8-18.1c-0.5-6.4-10.5-6.4-10,0c0.3,3.8-2.2,6.3-5.7,7.6
	c-2.4,0.9-7.1,2.1-9.5,1.2l3,2.3c0.5,0.9,0.5-1.3,0.5-1.5c0.5-2.1,1.7-4.8-0.5-6.2c-1.7-1.1-4.7-1.2-6.7-1.4
	C423.2,70,423.2,80,429.6,80.5L429.6,80.5z"/>
<path class="st0" d="M440.2,68.1c2.4,7.4,13.9,8.6,19.2,3.7c2.7-2.5,3.8-6.2,3-9.7c-0.4-1.8-1.5-3.5-3.1-4.5c-1.8-1-4.4-0.8-6.4-0.9
	c-2.8,0-5,2.2-5,5c0,2.8,2.2,5,5,5l3.8,0.2l-4.3-2.5c0.7,0.9,0,0.2,0.2,0c0.3-0.3,0.1,0.1-0.5,0.3c-0.5,0.1-1.1,0.1-1.6,0
	c-1.8-0.2-1.3-1-0.7,0.8C447.8,59.2,438.2,61.9,440.2,68.1L440.2,68.1z"/>
<path class="st0" d="M455.1,61.1c0.2,0.6,0.3,1.1,0.5,1.6c0.4,1.4,0-0.5,0.2,0.9c0,0.6,0,1.1,0,1.7c0,0.1-0.2,1.6,0,0.9
	c-0.4,2.6,0.7,5.5,3.5,6.2c2.4,0.5,5.7-0.7,6.1-3.5c0.6-3.5,0.4-7.1-0.6-10.5c-0.8-2.5-3.5-4.4-6.1-3.5
	C456.1,55.8,454.3,58.5,455.1,61.1L455.1,61.1z"/>
<path class="st0" d="M486.8,75c5.5,1.2,7.9,5.3,12.7,7.5s10.9,1.4,15.8,1.5c4.7,0.1,10.2,1.1,14.5-1.4c3.7-2.2,6.9-5.3,9.2-9
	c2.3-3.9,2.3-8.4,2.5-12.8c0.2-5.7,0.8-11.5,0.6-17.3c-0.3-11.1-8-16.9-15.5-24.1c-4.7-4.4-11.7,2.6-7.1,7.1
	c2.8,2.7,5.7,5.3,8.4,8.1c3.3,3.3,4.2,6,4.2,10.7c0,4.3-0.3,8.5-0.5,12.8c-0.1,3.3,0.5,7.5-1.2,10.5c-1.3,2.3-4.2,5-6.8,5.7
	c-3.8,0.9-9.3-0.2-13.3-0.3c-1.8,0-4.3,0.3-6-0.2c-1.9-0.6-3.5-2.9-5.1-4.1c-2.9-2.1-6.2-3.6-9.7-4.3C483.2,64,480.5,73.7,486.8,75
	L486.8,75z"/>
<path class="st0" d="M530.5,34.8l2.6,3.4c0.7,1.1,1.8,1.9,3,2.3c1.3,0.3,2.7,0.2,3.8-0.5c1.1-0.7,1.9-1.7,2.3-3
	c0.4-1.3,0.2-2.7-0.5-3.8l-2.6-3.4c-0.7-1.1-1.8-1.9-3-2.3c-1.3-0.3-2.7-0.2-3.8,0.5c-1.1,0.7-1.9,1.7-2.3,3
	C529.6,32.3,529.8,33.6,530.5,34.8z"/>
<path class="st0" d="M526.8,42.2c1.6,8.1,3.8,19.6-5,24.4l6.8,1.8v-0.7c0.8-6.4-9.2-6.3-10,0c-0.2,2,0.2,4.1,1.4,5.8
	c1.4,2.3,4.4,3.1,6.8,1.8c13.2-7.2,12.1-23,9.6-35.7C535.2,33.2,525.5,35.9,526.8,42.2L526.8,42.2z"/>
<path class="st0" d="M516.7,68.4c-6.6,3.5-14.8,1-18.3-5.6l-4.3,7.5h0.1c5,4,12.1-3,7.1-7.1c-2-1.7-4.5-2.8-7.1-2.9
	c-4-0.4-6,4.5-4.3,7.5c6.2,11.3,20.8,15.3,32,9.2C527.3,74,522.3,65.3,516.7,68.4L516.7,68.4z"/>
<path class="st0" d="M495.9,82.4l1.7,1.7c0.9,0.9,2.2,1.5,3.5,1.5c0.7,0,1.3-0.1,1.9-0.4c0.6-0.2,1.2-0.5,1.6-1
	c0.9-0.9,1.5-2.2,1.5-3.5c0-1.3-0.5-2.6-1.5-3.5l-1.7-1.7c-0.9-1-2.2-1.5-3.5-1.6c-0.7,0-1.3,0.1-1.9,0.4c-0.6,0.2-1.2,0.5-1.6,1
	c-0.9,0.9-1.5,2.2-1.5,3.6C494.4,80.2,495,81.5,495.9,82.4z"/>
<path class="st0" d="M501.8,64.2V34.9c0-6.4-10-6.5-10,0v29.3C491.8,70.6,501.8,70.6,501.8,64.2z"/>
<path class="st0" d="M487.4,30c-3,9.4-4,19.2-3.1,29c0.6,6.3,10.6,6.4,10,0c-0.9-8.9,0-17.8,2.7-26.4
	C498.9,26.5,489.3,23.8,487.4,30L487.4,30z"/>
<path class="st0" d="M491.5,66.8V36.6c0-6.4-10-6.4-10,0v30.2C481.5,73.2,491.5,73.2,491.5,66.8z"/>
<path class="st0" d="M488.6,39.4c6.5-2.4,13.1-5,19.9-6.5c5.6-1.3,12.2-1.3,15,4.6l1.8-6.8l1.6-0.1c-5.1-3.9-10.1,4.8-5,8.6
	c2.5,1.9,5.9,1.9,8.5,0.1c2.3-1.5,3.1-4.5,1.8-6.9c-8.6-18-32.9-7.7-46.2-2.7C479.9,31.9,482.5,41.6,488.6,39.4L488.6,39.4z"/>
<path class="st0" d="M499.5,27.8h19.8c6.4,0,6.5-10,0-10h-19.8C493,17.8,493,27.8,499.5,27.8z"/>
<path class="st0" d="M536.2,65.5l2.7-6.9c0.9-2.4-1-5.6-3.5-6.2c-2.7-0.7-5.4,0.9-6.2,3.5l-2.7,6.9c-0.9,2.4,1,5.6,3.5,6.2
	C532.7,69.7,535.4,68.2,536.2,65.5z"/>
<path class="st0" d="M561.1,27.6c9.3,7.3,3.7,21.3,3.8,31.1c0.1,11,5.7,18.9,17,19.9c5.2,0.3,10.4-0.4,15.2-2.2
	c2.7-1,5.4-2.2,7.9-3.6c1.3-0.7,3-0.7,2.3-2.3s-1.4,0.3-2.7,1.1c-4.5,2.9-10.9,2.3-16,2.2h-10.9c-3,0-6.9,0.7-9.6-1
	c-5.5-3.4-10.5,5.3-5,8.6c6.2,3.8,14.7,2.3,21.6,2.4s14.5,0.6,21.1-1.8c5.3-1.9,11.1-6.2,11.1-12.3c0.1-6-5.7-9.4-11.1-8.1
	c-3.2,0.8-5.8,2.7-8.7,4.1c-3.2,1.5-6.6,2.4-10.1,2.8c-2.9,0.3-6.6,0.4-9.1-1.2c-3.2-2.1-3.1-7-3-10.4c0.4-12.4,4.8-27.3-6.8-36.4
	C563.1,16.7,556,23.7,561.1,27.6L561.1,27.6z"/>
<path class="st0" d="M615.4,74.9c10.8-4,8.1-19.2,8.2-28.3c0-5-0.2-10.1-4-13.8c-3.5-3.4-9.7-3.8-11.6-8.8c-2.3-5.9-12-3.4-9.7,2.7
	c1.2,3.4,3.3,6.4,6.1,8.6c2.4,1.8,6.9,2.7,8.5,5.2c2,3,0.7,9.4,0.6,12.8c0,1.3,0.8,11.3-0.8,11.9C606.7,67.4,609.3,77.1,615.4,74.9
	L615.4,74.9z"/>
<path class="st0" d="M598.1,23.3c1.6,4.4,4.1,8.3,7.3,11.7c4.5,4.7,11.5-2.4,7.1-7.1c-2-2.1-3.6-4.6-4.7-7.3c-1-2.5-3.4-4.3-6.2-3.5
	C599.2,17.8,597.1,20.7,598.1,23.3z"/>
<path class="st0" d="M607.3,31.3l-3.5-3.5c-2-2-5.1-2-7.1,0s-2,5.1,0,7.1l0,0l3.5,3.5c2,1.9,5.2,1.9,7.1-0.1
	C609.1,36.4,609.1,33.3,607.3,31.3L607.3,31.3z"/>
<path class="st0" d="M600.5,42.7c5.7,2.3,6.1,8.6,2.9,13.1l8.6,5c2.7-4.8,3.3-10.5,1.8-15.8c-1.6-5.8-9.2-3.9-9.8,1.3
	c-0.9,7.5,2,15,7.7,20c4.8,4.2,11.9-2.8,7.1-7.1c-3.8-3.1-5.6-8-4.8-12.8l-9.8,1.3c0.8,2.7,0.5,5.6-0.8,8.1c-3.1,5.8,5,10.2,8.6,5
	c7.4-10.3,2.4-23.3-8.9-27.8C597.2,30.6,594.6,40.3,600.5,42.7z"/>
<path class="st0" d="M557.6,29.3c3.1,15.4,6.1,31.2,1.8,46.7c-1.7,6.2,8,8.9,9.7,2.7c4.7-17.2,1.6-34.8-1.9-52
	C566,20.3,556.4,23,557.6,29.3L557.6,29.3z"/>
<path class="st0" d="M568.8,83.1l1.2-47.4c0.2-6.4-9.8-6.4-10,0l-1.2,47.4C558.7,89.6,568.7,89.6,568.8,83.1z"/>
<path class="st0" d="M558.9,22.2c1.3,6.7,9.3,6.3,14.5,6.7l25.2,1.8c6.4,0.5,6.4-9.6,0-10l-16.4-1.2l-7.7-0.5l-3.9-0.2
	c-0.6,0-1.2-0.1-1.8-0.1c-1.1-0.3-1.2,0-0.2,1C567.3,13.2,557.6,15.9,558.9,22.2L558.9,22.2z"/>
<path class="st0" d="M569.2,35c9.1,1.2,18.3,0.8,27.2-1.2c6.3-1.3,3.6-11-2.7-9.6c-8.1,1.7-16.4,2-24.6,0.9
	C562.8,24.1,562.9,34.1,569.2,35L569.2,35z"/>
<path class="st0" d="M601.2,17.4c-5.9-0.4-11.9,0.1-17.7,1.4c-6.3,1.4-3.6,11,2.7,9.6c5-1,10-1.4,15.1-1
	C607.6,27.8,607.6,17.8,601.2,17.4L601.2,17.4z"/>
<path class="st0" d="M639.1,27.8l29-0.1h7.7c1.7,0,6.3,0.8,7.7,0c2.3,0.5,1.8-1.1-1.7-4.6c-0.9,0.3-1.9,0.5-2.9,0.5
	c-2.2,0.2-4.4,0.4-6.7,0.3c-9.5,0-19.6-1.3-29-0.2c-6.3,0.7-10.2,6.9-6.8,12.8c1.2,2.1,3.9,4.2,6.5,4c1.9,0.3,1.8-0.2-0.3-1.6
	c0,0.8,0.1,1.7,0.2,2.5c0.3,1.6,0.9,3.1,1.8,4.5c4.3,6.5,12.3,6.4,19.2,6c1.8-0.1,3.7,0.1,5.5-0.1c1,0.8,1.7,0.7,2.2-0.3
	c-0.9,0.2-1.8,0.3-2.7,0.3c-4.3,0.1-5.8-3.6-9.7-4.8c-6.1-1.8-11.8,1.8-14,7.5l8.4-2.2c-4-3.5-6-8.7-5.4-13.9c0.5-6.4-9.5-6.4-10,0
	c-0.6,7.9,2.4,15.7,8.4,21c3,2.7,7,1.3,8.3-2.2c0.7-1.9,5.8,3.2,7.1,3.7c3.5,1.2,7.3,1.4,11,0.7c7.6-1.6,11.3-10.2,5.2-16.1
	c-2.8-2.7-6.8-3.5-10.6-3.6c-4-0.1-9.4,1.9-13.1-0.3c-2.8-1.7-1.4-5.8-3.5-8.3c-1-1.3-2.4-2.2-4-2.5c-0.8-0.2-1.7-0.2-2.6-0.2
	c1,0.6,1.4,1.9,0.9,2.9c-0.1,0.1-0.1,0.2-0.2,0.3c1.1,0.8,6.4,0.1,7.9,0.1l7.9,0.1c5.1,0,10.2,0.3,15.3,0c5.8-0.3,19.4-2.1,16-11.3
	c-2.8-7.6-15.9-4.9-21.9-4.9l-30.9,0.1C632.6,17.8,632.6,27.8,639.1,27.8L639.1,27.8z"/>
<path class="st0" d="M637,37.5c-1.4,10.8-0.5,21.7,2.6,32.1c0.8,2.7,3.6,4.2,6.3,3.4c0.8-0.2,1.5-0.6,2.1-1.2c4-3.7,7.3-8.1,9.8-13
	c2.9-5.7-5.7-10.8-8.6-5c-2.1,4.1-4.9,7.9-8.2,11l8.4,2.2c-2.8-9.6-3.5-19.6-2.2-29.4C647.8,31.2,637.8,31.3,637,37.5L637,37.5z"/>
<path class="st0" d="M637.8,68.1l2.2,11.4l1.3-4.9l0.2,0.1l4.3,2.5c0.9,2.1,0.2,2.1,2.7,2l4.8-0.1l8.6-0.2
	c5.8-0.1,12.5,0.6,18.1-0.4c0.5-0.1,4.3-0.8,3.3-2.2c-1.1,0.1-2.2,0.2-3.3,0.2c-2.9,0-5.8,0-8.7,0L652,76.4c-6.4,0-6.4,10,0,10
	l17.4,0.1c5.2,0,10.9,0.8,16-0.4c8.8-2.1,9.9-13.5,1.2-16.8c-4.8-1.8-11-0.7-16.1-0.6l-17.2,0.4c-4.4,0.1-9.9-0.5-13.7,2.3
	s-4.1,6.9-2.4,10.9c0.9,1.5,2.5,2.5,4.2,2.5c3.2-0.3,7.2-1.6,8.2-5.2c1.1-3.9-1.4-10.1-2.2-14.1C646.3,59.1,636.6,61.8,637.8,68.1
	L637.8,68.1z"/>
<path class="st0" d="M761.5,84.8c-1.1,0.7-1.7,0.4-2.5-0.6c-3.2-3.5-10.2,0.1-8.3,4.9c1,3,3,5.5,5.6,7.3c2.9,2.1,6.2-0.3,7.3-3
	c2.6-6.3,5.8-12.3,9.4-18.1l-4.3,2.5h0.7l-3.5-1.5c-1.5-1.6-1-3.1-1.4-0.4c-0.2,1-0.1,2.1,0.2,3.1c0.6,2,1.9,3.6,3.6,4.7
	c3.8,2.4,8.6,1.4,11.9-1.4c2.9-2.5,6-6.6,5.9-10.7c0-2.1-1-4.1-2.6-5.5c-0.8-0.7-1.8-1.2-2.8-1.5c-1.8-0.6-2.7-1.1-2.1,1.1l-4.8,6.3
	c3.4-0.4,6.8-0.5,10.1-0.3c6.4,0.3,6.4-9.7,0-10c-3.4-0.2-6.8-0.1-10.1,0.3c-3.2,0.3-5.8,2.9-4.8,6.3c0.5,2.2,2.1,4.1,4.2,5
	c0.3,0.1,3.2,1.3,3.5,0.8c-0.2-2.3-0.6-2.8-1.2-1.6c-0.4,0.6-0.8,1.2-1.3,1.7c-0.6,2.3,1,3.1,1-0.1c0-1.2-0.3-2.3-0.8-3.4
	c-1.2-2-3.3-3.2-5.6-3.1c-1.8,0-3.4,0.9-4.3,2.5c-4,6.5-7.5,13.4-10.4,20.5l7.3-3l-1-1.2l-8.4,4.9c3.8,4.1,9.9,5,14.7,2.1
	C772.2,90.3,767.1,81.7,761.5,84.8L761.5,84.8z"/>
<path class="st0" d="M763.4,79.6c1.6-12.2,3.5-24.3,5.6-36.4h-9.6l2.6,15.4c0.8,4.7,9,4.8,9.6,0c0.6-4,1.1-8,1.7-12.1
	c0.9-6.3-8.8-9-9.7-2.7L762,56h9.6L769,40.6c-0.8-4.8-8.8-4.8-9.6,0c-2.3,13-4.3,26-6,39C752.5,86,762.5,85.9,763.4,79.6L763.4,79.6
	z"/>
<path class="st0" d="M787.8,31.6c-2.4-5.4-6-10.3-10.6-14.1c-4.2-3.5-10.3-5.7-12.6-11c-2.6-5.9-11.3-0.8-8.6,5
	c2.3,5.2,7,8.1,11.5,11.1c5.2,3.4,9.2,8.3,11.7,14C781.8,42.5,790.4,37.4,787.8,31.6L787.8,31.6z"/>
<path class="st0" d="M753.5,7.8c-2,6.7-1.7,15.2,3.2,20.7c2,2.1,4.5,3.7,7.2,4.6c2.6,1,6.1,1.4,7.4,4.1c2.4,5,11.3,1.4,9.1-3.9
	c-3.2-7.6-7.1-15.4-15.7-17.7c-6.2-1.7-8.9,8-2.7,9.6c4.8,1.3,7,6.5,8.8,10.7l9.1-3.8c-2.2-4.6-6.6-6.2-11.1-7.9
	c-6.3-2.3-7.6-7.4-5.8-13.8C764.8,4.3,755.2,1.6,753.5,7.8L753.5,7.8z"/>
<path class="st0" d="M744.2,22.3c0.2-1,3.1,1.4,3.2,0.3l-5,5c4.1,0.1,5.7,3,6.7,6.5c0.7,2.5,2.1,4.7,4.7,5.6
	c2.4,0.9,5.2,0.2,6.9-1.7c1.7-2.1,2.1-5,0-7.1c-1.7-1.7-5.4-2.1-7.1,0l-0.3,0.4l2.2-1.3h0.9l2.2,1.3c0.2,0.7,0.2,0.6,0-0.3
	c-0.1-0.5-0.2-1-0.3-1.6c-0.3-0.9-0.6-1.9-1.1-2.7c-0.9-1.7-2-3.3-3.5-4.6c-3.1-2.9-7.1-4.5-11.3-4.6c-2.9-0.1-4.8,2.4-5,5
	c-0.5,4.6,2.9,8.7,7.4,9.1c4.3,0.4,8.3-2.5,9-6.8C755.3,18.7,745.6,16,744.2,22.3L744.2,22.3z"/>
<path class="st0" d="M756.3,18.7c-0.2,0-0.5,0-0.7,0c-0.6,0-0.5,0,0.3,0c-0.1,0.1-0.9-0.2-1-0.3c-1-0.3,0.8,0.5-0.1,0
	c-0.4-0.2-0.8-0.5-1.2-0.8l1.8,6.8c0.1-0.2,0.6-0.8,0.1-0.3s0.2-0.1,0.2-0.2c0.5-0.5-0.1,0.2-0.3,0.2c0.3-0.1,0.6-0.3,0.8-0.5
	c2.4-1.1,3.2-4.7,1.8-6.8c-1.4-2.3-4.5-3.1-6.8-1.8c-1.9,0.9-3.5,2.5-4.5,4.3c-0.7,1.2-0.8,2.6-0.5,3.9c0.4,1.2,1.2,2.3,2.3,3
	c2.3,1.6,5,2.4,7.7,2.4c2.8,0,5-2.2,5-5S759.1,18.6,756.3,18.7L756.3,18.7z"/>
<path class="st0" d="M765.8,16.6c6.4,0,6.5-10,0-10S759.4,16.6,765.8,16.6z"/>
<path class="st0" d="M739.5,23.9l-4.3,0.9c-2.7,0.7-4.2,3.5-3.5,6.1c0,0,0,0,0,0c0.8,2.6,3.5,4.2,6.1,3.5l4.3-0.9
	c2.7-0.7,4.2-3.5,3.5-6.1c0,0,0,0,0,0C744.8,24.7,742.1,23.2,739.5,23.9z"/>
<path class="st0" d="M731.8,30c0.6,7.5,2.6,16,11,18.2c8,2.1,13.5-4.7,13.3-12.2c-0.1-3.5-0.9-7.2-4.1-9.2c-3-2-7-1.4-9.3,1.4
	c-2.3,2.9-2.1,7.9-2,11.4c0.2,4.8,1.1,9.5,2.8,14c2.2,6,11.9,3.4,9.6-2.7c-1.1-2.9-1.9-6-2.3-9.1c-0.1-1.5-0.2-3.1-0.1-4.6
	c0-1.1,0.1-2.2,0.2-3.2c-3.6-1.1-5.2-0.6-4.9,1.4c-0.6,1.5,0.9,4.4-1.9,2.6c-2.2-1.5-2.2-5.7-2.4-8C741.4,23.6,731.4,23.5,731.8,30
	L731.8,30z"/>
<path class="st0" d="M749.5,48.5c1.9,4.2,3.2,8.7,3.9,13.3l8.4-4.9l-2.7-2.4c-4.7-4.3-11.8,2.7-7.1,7.1l2.7,2.4
	c3.9,3.6,9.1,0,8.3-4.9c-0.9-5.4-2.5-10.7-4.8-15.7c-1.1-2.5-4.7-3-6.8-1.8C748.9,43.2,748.5,46.1,749.5,48.5L749.5,48.5z"/>
<path class="st0" d="M739.1,48.5c6.4,0,6.5-10,0-10S732.6,48.5,739.1,48.5z"/>
<path class="st0" d="M740.5,46.9c-0.1,7.3-0.4,14.6-0.4,21.9c0,5,1.2,9.1,6.8,9.7c6.4,0.7,6.3-9.3,0-10l-0.8-0.1l3.5,1.5
	c0.6,1.6,0.8,1.2,0.5-1.1v-2l0.1-7l0.2-13C750.6,40.5,740.6,40.5,740.5,46.9L740.5,46.9z"/>
<path class="st0" d="M746.1,66.4c0.6,4.5,0.9,9.1,0.9,13.6l6.3-4.8l-7.6-2.6c-6.1-2.1-8.7,7.6-2.7,9.6l7.6,2.6
	c3.1,1,6.3-1.7,6.3-4.8c-0.1-5.5-0.5-10.9-1.3-16.3c-0.4-2.7-3.8-4.1-6.2-3.5C746.7,61.1,745.7,63.7,746.1,66.4L746.1,66.4z"/>
<path class="st0" d="M744.3,72.8c-3.2-2.9-4.4-7.4-2.9-11.5c2-6.1-7.6-8.8-9.6-2.7c-2.4,7.6-0.3,15.8,5.5,21.3
	C741.9,84.2,749,77.1,744.3,72.8z"/>
<path class="st0" d="M739.2,75.4c0.6,4.4,2.7,8.3,6.7,10.5c2.3,1.2,5.5,0.7,6.8-1.8c1.4-2.4,0.6-5.4-1.8-6.8l-0.6-0.3
	c-0.9-0.5,0.4,0.5,0,0c-0.2-0.2-0.3-0.3-0.5-0.5c-0.1-0.1-0.2-0.2-0.2-0.3c-0.2-0.3-0.2-0.2,0.2,0.3c0,0-0.7-1.2-0.7-1.2
	c0.3,0.2,0.3,0.9,0.1,0c-0.1-0.3-0.2-1.2-0.1,0.1c-0.3-2.6-2.1-5.1-5-5C741.8,70.4,738.9,72.6,739.2,75.4L739.2,75.4z"/>
<path class="st0" d="M764.1,97.6c6.4,0,6.5-10,0-10S757.6,97.6,764.1,97.6z"/>
<path class="st0" d="M771.8,59.7c6.4,0,6.4-10,0-10S765.4,59.7,771.8,59.7z"/>
<path class="st0" d="M783.9,33.8c6.4,0,6.4-10,0-10S777.5,33.8,783.9,33.8z"/>
<path class="st0" d="M876.6,44.1c2.3-0.3,4,0.5,5.8,1.8c2.9,2,6.2-0.2,7.3-3c3.8-9.5-5-16.9-12-21.8c-3.5-2.6-7.7-4.1-12-4.3
	c-5.8-0.1-10.9,1.9-16.9,0.5c-6.3-1.5-8.9,8.1-2.7,9.6c3.3,0.9,6.7,1.2,10.2,1.1c3.5-0.2,7.1-1.7,10.5-1.1
	c4.6,0.7,15.3,8.1,13.2,13.3l7.3-3c-4.2-2.9-8.6-3.5-13.5-2.8C867.7,35.4,870.4,45.1,876.6,44.1L876.6,44.1z"/>
<path class="st0" d="M840.3,29c3.1,4.5,7.5,6.3,12.9,6.5c3.8,0.2,12.4-2.6,14.7,1.5c3.2,5.6,11.8,0.6,8.6-5
	c-2.7-4.7-7.4-6.6-12.7-6.9c-3.6-0.2-12.5,2.5-15-1.1C845.3,18.7,836.6,23.7,840.3,29L840.3,29z"/>
<path class="st0" d="M880.5,38.1c6.4,0,6.5-10,0-10S874,38.1,880.5,38.1z"/>
<path class="st0" d="M839.7,22.7c-2.4,3.7-5.8,6.6-9.8,8.4c-4.1,2-2.6,7.9,1.2,9.1c4.7,1.5,9.7,1.9,14.5,1c2.7-0.4,4.2-3.8,3.5-6.2
	c-0.8-2.8-3.5-3.9-6.2-3.5c-3.1,0.4-6.2,0.1-9.2-1l1.2,9.1c5.5-2.7,10.1-6.8,13.4-12C851.8,22.4,843.2,17.3,839.7,22.7L839.7,22.7z"
	/>
<path class="st0" d="M837.7,35.4c-5.3,7.8-6.4,17.6-2.8,26.3c2.4,5.9,12.1,3.3,9.6-2.7c-2.7-6.1-2-13.2,1.8-18.6
	C850,35.1,841.4,30.1,837.7,35.4L837.7,35.4z"/>
<path class="st0" d="M829.4,44.8c1.6,6.4,2.5,12.9,2.8,19.4c0.3,6.4,10.3,6.4,10,0c-0.3-7.5-1.4-14.9-3.2-22.1
	C837.5,35.9,827.8,38.5,829.4,44.8z"/>
<path class="st0" d="M848.5,36.4c6.4,0,6.5-10,0-10S842.1,36.4,848.5,36.4z"/>
<path class="st0" d="M842.7,31.9l1.1,7.7c0.3,2.6,3.8,4.2,6.2,3.5c2.9-0.9,3.9-3.4,3.5-6.2l-1.1-7.7c-0.3-2.6-3.8-4.2-6.2-3.5
	C843.4,26.7,842.4,29.1,842.7,31.9z"/>
<path class="st0" d="M882.9,57.1c-0.4,0.3-0.9,0.6-1.4,0.9c0.8-0.4,0,0-0.4,0c-1.2,0.3,0.8,0.1-0.4,0c-0.6,0-0.6,0,0.1,0.1
	c-0.3,0-0.6-0.1-0.8-0.2c-2.7-0.7-5.4,0.8-6.2,3.5c-0.7,2.7,0.8,5.4,3.5,6.2c3.7,1,7.6,0.4,10.7-1.8c2.1-1.6,3.4-4.4,1.8-6.8
	C888.5,56.8,885.2,55.3,882.9,57.1L882.9,57.1z"/>
<path class="st0" d="M875.4,56.8c-2.9,5.8-1.2,12.7,4.6,15.9V64c-4.8,2.5-9.1,5.8-12.8,9.8c-3.4,4-1.9,10.5,3.9,10.8
	c4.6,0.3,7.8-3.7,8.9-7.8c1.3-4.9-0.2-9.7-3.4-13.6c-4.1-4.9-11.2,2.2-7.1,7.1c0.6,0.7,0.9,1.6,0.9,2.6c0,0.4,0,0.8-0.1,1.2
	c-0.9,1.8,0.5,2.5,4.2,2l0.5,3.9c-0.6,0.5-0.6,0.4,0-0.2s0.9-0.9,1.4-1.4c0.8-0.8,1.6-1.5,2.5-2.1c1.9-1.5,3.9-2.7,6.1-3.8
	c2.4-1.4,3.2-4.5,1.8-6.8c-0.4-0.7-1.1-1.4-1.8-1.8c-0.8-0.4-1.5-1.2-1-2.2C886.9,56.1,878.3,51,875.4,56.8L875.4,56.8z"/>
<path class="st0" d="M866,74.4c1.3-0.2-0.3,0-0.5,0s-1.5,0-0.8,0c0.4,0.1,0.3,0-0.1-0.1c0.5,0.3,0.6,0.3,0.2,0.1l0.5,0.4
	c-0.4-0.4-0.3-0.3,0.2,0.2c0.2,0.7,0.3,0.8,0.2,0.4s-0.1-0.2,0.1,0.6c0,1-0.5,2-1.3,2.5c-0.7,0.3-0.8,0.3-0.3,0.2l-0.7,0.1
	c0.1-0.1,1.2,0,1.4,0c2.8,0,5-2.2,5-5c-0.1-2.7-2.3-4.9-5-5c-2.5-0.2-4.9,0.5-6.8,2.1c-2,1.9-2.8,4.8-2,7.4c0.8,2.7,2.9,4.8,5.6,5.6
	c2.4,0.8,4.7,0.4,7.1,0.1c2.6-0.4,4.2-3.8,3.5-6.2C871.2,75,868.8,74,866,74.4L866,74.4z"/>
<path class="st0" d="M858,75.4l-8.8-4.9c-2.3-1.6-5.4-1-6.9,1.3c-1.6,2.3-1,5.4,1.3,6.9c0.2,0.1,0.4,0.3,0.6,0.4l8.8,4.9
	c2.3,1.6,5.4,1,6.9-1.3c1.6-2.3,1-5.4-1.3-6.9C858.4,75.6,858.2,75.5,858,75.4L858,75.4z"/>
<path class="st0" d="M831.1,58c-2.6,3.5-1.6,8.4,0.9,11.6c1.4,1.6,3.1,3,5,3.9c0.8,0.4,1.6,0.9,2.4,1.4c1.2,1,0.5,1.2,1.4,0.1
	c-4.2,4.8,2.8,11.9,7.1,7.1c3.1-3.5,3.3-8.7,0.4-12.3c-1.4-1.8-3.2-3.3-5.2-4.3c-0.9-0.5-3.8-1.9-3.4-2.4c1.6-2.2,0.3-5.6-1.8-6.8
	C835.4,54.7,832.7,55.9,831.1,58z"/>
<path class="st0" d="M840.8,80.4c6.4,0,6.5-10,0-10S834.4,80.4,840.8,80.4z"/>
<path class="st0" d="M850.3,85.6c6.4,0,6.4-10,0-10S843.8,85.6,850.3,85.6z"/>
<path class="st0" d="M843.5,71.9c5.1,3.5,11,5.7,17.2,6.4c2.7,0.3,5-2.5,5-5c0-3-2.3-4.7-5-5c-4.4-0.6-8.6-2.4-12.1-5
	c-2.2-1.6-5.6-0.4-6.8,1.8C840.2,67.6,841.2,70.3,843.5,71.9z"/>
<path class="st0" d="M877,76c0.2-1,0.3-0.2-0.3,0c0.2-0.1,0.4-0.3,0.6-0.3c0.9,0,1.8-0.2,2.7-0.3c2.8-0.2,5.7-0.6,8-2.3
	c2.1-1.7,3.3-4.3,1.8-6.8c-1.2-2.1-4.7-3.4-6.8-1.8s-5.9,0.9-8.6,1.8c-3.3,1.1-6.5,3.5-7,7.2c-0.4,2.7,0.7,5.4,3.5,6.2
	C873.2,80.2,876.5,78.7,877,76L877,76z"/>
<path class="st0" d="M880.3,65.7c-2.4,2.4-4.2,5.2-5.4,8.4c-1,2.4,1.1,5.6,3.5,6.2c2.9,0.7,5.1-0.9,6.2-3.5
	c-0.5,1.1,0.3-0.5,0.4-0.7c0.3-0.5,0.5-1,0.9-1.4c0.2-0.2,0.3-0.5,0.5-0.7c-0.4,0.5-0.4,0.5,0,0s0.7-0.8,1.1-1.2
	c2-1.9,2-5.1,0.1-7.1c-1.9-2-5.1-2-7.1-0.1C880.3,65.6,880.3,65.6,880.3,65.7L880.3,65.7z"/>
<path class="st0" d="M911.9,72.2c3.2,0.4,6.1,2.2,7.7,5l7.8-6c-2.9-3.2-7.4-4.3-11.5-2.8l5.6,7.3l4.7-7c1.5-2.2,0.4-5.5-1.8-6.8
	c-2.4-1.3-5.4-0.6-6.8,1.8l-4.7,7c-2.3,3.4,1.6,9,5.6,7.3c0.3-0.2,0.7-0.3,1.1-0.4c-0.2,0-0.7-0.1-0.2,0s0.4,0.1,0.8,0.6
	c3.8,4.3,10.7-1.2,7.8-6.1c-2.9-5.1-7.9-8.6-13.7-9.6c-2.7-0.4-5.4,0.7-6.2,3.5C907.8,68.5,909.2,71.8,911.9,72.2L911.9,72.2z"/>
<path class="st0" d="M922.7,78.9l4,5.1l2.2-8.4c1.4-0.2,0.3-0.1,0-0.1h-0.5c-0.4,0-0.2,0,0.5,0.1c-0.3-0.1-0.7-0.2-1-0.3l0.6,0.2
	c-0.2-0.1-0.4-0.2-0.6-0.3c-2.3-1.5-5.4-0.9-6.9,1.4c-1.5,2.3-0.9,5.4,1.4,6.9c0.2,0.1,0.3,0.2,0.5,0.3c2.7,1.5,5.8,1.9,8.8,1.3
	c1.7-0.5,3-1.8,3.5-3.5c0.4-1.7-0.1-3.6-1.3-4.9l-4-5.1c-2-2-5.1-2-7.1,0c-0.9,0.9-1.5,2.2-1.5,3.5
	C921.3,76.7,921.8,77.9,922.7,78.9L922.7,78.9z"/>
<path class="st0" d="M925.3,84.6c7.3,0.4,14.6,0.2,21.8-0.4c4.7-0.4,10.9-1,12-6.8c1-4.8-2.7-9.2-7.2-10.2
	c-5.9-1.2-13.4,1.3-19.2,2.2c-6.3,1-3.7,10.7,2.7,9.6l9.6-1.6c0.8-0.1,3.6,0,4.2-0.6c4.3-4.1-2-2.7-3-2.7
	c-6.9,0.6-13.9,0.7-20.9,0.3C918.8,74.3,918.8,84.3,925.3,84.6L925.3,84.6z"/>
<path class="st0" d="M958.9,76.9c6.4,0,6.4-10,0-10S952.5,76.9,958.9,76.9z"/>
<path class="st0" d="M927,76.9c6.4,0,6.5-10,0-10S920.6,76.9,927,76.9z"/>
<path class="st0" d="M948.5,70.4c4.2,0.2,8.4,0.7,12.6,1.6c6.3,1.4,9-8.2,2.7-9.6c-5-1.1-10.1-1.8-15.2-2
	C942.1,60.2,942.1,70.1,948.5,70.4L948.5,70.4z"/>
<path class="st0" d="M967.7,68.4c1.1-9.2,4.2-20.3,0.9-29.3c-2.8-8-9.3-13.6-15.8-18.6c-5-3.9-12.1,3.1-7.1,7.1
	c5.3,4.1,11.8,8.9,13.7,15.6c1.1,3.8,0.3,7.9-0.2,11.8c-0.5,4.5-1,9-1.6,13.5C956.9,74.8,966.9,74.8,967.7,68.4z"/>
<path class="st0" d="M952,34.3c-1.8,8.8-1.8,17.9-0.1,26.8c1.2,6.3,10.8,3.6,9.7-2.7c-1.3-7.1-1.3-14.4,0.1-21.5
	C962.9,30.7,953.2,28,952,34.3z"/>
<path class="st0" d="M957.5,34.5l-12-10.5c-2-1.9-5.1-1.9-7.1,0c-1.8,1.8-2,5.3,0,7.1l12,10.5c2,1.9,5.1,1.9,7.1,0
	C959.3,39.8,959.5,36.3,957.5,34.5z"/>
<path class="st0" d="M942.5,28.7h1.7c1.3,0,2.6-0.5,3.5-1.5c0.5-0.4,0.8-1,1-1.6c0.3-0.6,0.5-1.3,0.4-1.9c0-1.3-0.5-2.6-1.5-3.5
	c-0.9-0.9-2.2-1.4-3.5-1.5h-1.7c-1.3,0-2.6,0.5-3.5,1.5c-0.5,0.4-0.8,1-1,1.6c-0.3,0.6-0.5,1.3-0.4,1.9c0,1.3,0.5,2.6,1.5,3.5
	C939.9,28.1,941.2,28.6,942.5,28.7z"/>
<path class="st0" d="M946.8,18.9c-8.5,0.2-17,0.9-25.4,2.1c-6.3,0.9-3.7,10.5,2.7,9.7c7.5-1.1,15.1-1.6,22.7-1.8
	C953.3,28.8,953.3,18.8,946.8,18.9L946.8,18.9z"/>
<path class="st0" d="M921.8,29.4c2.6-0.2,5.1,0.9,6.8,2.9c1.6,2.2,4.3,3.3,6.8,1.8c2.1-1.2,3.4-4.7,1.8-6.8c-3.7-4.9-9.1-8-15.4-7.8
	S915.4,29.6,921.8,29.4z"/>
<path class="st0" d="M927,28.5l9.5,0.8c2.7,0.2,5-2.5,5-5c0-2.9-2.3-4.8-5-5l-9.5-0.8c-2.7-0.2-5,2.5-5,5
	C922,26.4,924.3,28.3,927,28.5z"/>
<path class="st0" d="M921.7,31.5c-0.1,0.8,0.4-0.1,0.6-0.5s0.5,0-0.1,0c0.2,0,0.8,0.1,0.8,0c-0.4,0.1-1.3-1.4-1.5-2
	c-1-2.5-3.3-4.3-6.2-3.5c-2.4,0.7-4.5,3.6-3.5,6.1c1.7,4.3,4.6,8.4,9.5,9.1c4.2,0.6,9.3-2.1,10-6.7c0.4-2.7-0.7-5.4-3.5-6.1
	C925.6,27.4,922.2,28.8,921.7,31.5L921.7,31.5z"/>
<path class="st0" d="M911.8,27.5l-3.3,17.3c-1.2,6.3,8.4,9,9.6,2.7l3.4-17.3C922.7,23.9,913,21.1,911.8,27.5L911.8,27.5z"/>
<path class="st0" d="M906.5,35.7V65c0,6.4,10,6.4,10,0V35.7C916.5,29.3,906.5,29.3,906.5,35.7z"/>
<path class="st0" d="M920.2,68.3c2.2-6.3,3.2-12.9,3-19.6c-0.2-6.4-10.2-6.5-10,0c0.2,5.8-0.8,11.5-2.7,16.9
	C908.4,71.7,918.1,74.3,920.2,68.3L920.2,68.3z"/>
<path class="st0" d="M914.2,42.6c0.4,6.2-0.1,12.4-1.4,18.5c-1.4,6.3,8.2,8.9,9.6,2.7c1.6-6.9,2.2-14.1,1.8-21.2
	C923.8,36.2,913.8,36.2,914.2,42.6z"/>
<path class="st0" d="M1068.2,80.6v-6c0-2.8-2.2-5-5-5s-5,2.2-5,5v6c0,2.8,2.2,5,5,5S1068.2,83.3,1068.2,80.6z"/>
<path class="st0" d="M1065.5,79.9v-0.7l-1.5,3.5c1.2-1.2,3.5-1.4,4.7-3.3c1.1-1.7,1.2-3.9,1.3-5.8c0.2-3.9-0.1-7.9-0.2-11.8
	c0-1.5-0.1-3.1-0.1-4.6c0.1-2.2,0.2-2.6,2.5-2.8c5.9-0.5,12.2,2.6,18,0.8c5-1.6,6.7-6.5,4.6-11c-2.7-5.8-11.3-0.8-8.6,5
	c1.8-2.5,1.8-3.7,0.1-3.6c-0.8,0-1.7-0.1-2.5-0.2l-3.6-0.3c-3.1-0.4-6.3-0.7-9.5-0.8c-5.1,0.2-9.1,3-10.5,8
	c-1.4,5.4-0.4,11.8-0.3,17.3c0-0.2,0,4.6,0.5,3.8c-0.3,0.5-2,0.9-2.5,1.3c-1.7,1.1-2.6,3.1-2.5,5.1
	C1055.7,86.3,1065.7,86.3,1065.5,79.9L1065.5,79.9z"/>
<path class="st0" d="M1084.9,46.9v4.6v2c-0.1,1.4,0,1.8,0.1,1l3-2.3c-2,0.8-5.2,0-7.3-0.2c-2.7-0.2-5.3-0.5-8-0.8
	c-2.7-0.3-5,2.5-5,5c0,3,2.3,4.7,5,5c3.1,0.3,6.2,0.6,9.3,0.9c2.8,0.2,6,0.8,8.6-0.2c5.8-2.3,4.3-9.9,4.3-14.9
	C1094.9,40.6,1084.9,40.5,1084.9,46.9L1084.9,46.9z"/>
<path class="st0" d="M1064.6,77.1c-0.4-16.7,0.3-33.4,2-50c0.7-6.4-9.3-6.4-10,0c-1.7,16.6-2.4,33.3-2,50
	C1054.8,83.5,1064.8,83.5,1064.6,77.1z"/>
<path class="st0" d="M1058.9,27.1c14.7,0.9,29.3,1,44,0.5c6.4-0.2,6.4-10.2,0-10c-14.7,0.5-29.3,0.3-44-0.5
	C1052.5,16.8,1052.5,26.8,1058.9,27.1z"/>
<path class="st0" d="M1100.8,27.6c-1.6-1-1.5-1.3-3.3-1.6c-1.1-0.1-2.3-0.2-3.4-0.2l-8.5-0.5c-4.8-0.3-9.8-1.1-14.6-0.7
	c-10.9,0.8-9.3,11.8-9.3,19.9c0,6.4,10,6.5,10,0v-5.9c0-0.8-0.4-3.3,0-4c-0.7,0.1-0.7,0.1,0,0c0.6,0,1.1,0,1.7,0
	c1.6,0,3.2,0.2,4.7,0.3c6.5,0.4,13,1.2,19.5,1.2c4.5,0,9.3-1.2,11.4-5.6c2.1-4,0.8-9-3.1-11.4C1100.5,15.3,1095.5,24,1100.8,27.6
	L1100.8,27.6z"/>
<path class="st0" d="M1126.8,24.7c4.6,5.2,13.2,4.5,19.6,4.8c8.8,0.3,17.6,0.1,26.4-0.7c6.3-0.6,6.4-10.6,0-10
	c-6.9,0.7-13.8,1-20.8,0.9c-3.1,0-6.3-0.1-9.4-0.4c-2.5-0.1-6.9,0.3-8.7-1.7C1129.6,12.8,1122.5,19.9,1126.8,24.7L1126.8,24.7z"/>
<path class="st0" d="M1173.4,17.3c-9.3-0.8-19.2-1.5-28.2,1.9c-3.1,1.2-7.2,5-10.2,4.8c-1.9-0.1-2.8-1-4.8-0.3
	c-1.9,0.6-3.3,2.2-3.6,4.2c-1,6.3,8.6,9,9.7,2.7l0.1-0.7l-3.5,3.5c-1.9-0.2-2-0.1-0.3,0.5c0.8,0.4,1.7,0.5,2.5,0.6
	c1.7,0.1,3.5-0.3,5-1.1c3.3-1.5,5.9-3.9,9.4-5c7.7-2.6,16.2-1.7,24-1C1179.8,27.9,1179.8,17.9,1173.4,17.3L1173.4,17.3z"/>
<path class="st0" d="M1131.3,33.8h42.2c6.4,0,6.4-10,0-10h-42.2C1124.9,23.8,1124.9,33.8,1131.3,33.8z"/>
<path class="st0" d="M1132.2,30.9c-1.8,8.4-2.3,17-1.4,25.5c0.7,6.3,10.7,6.4,10,0c-0.9-7.6-0.6-15.3,1-22.9
	C1143.1,27.3,1133.5,24.6,1132.2,30.9L1132.2,30.9z"/>
<path class="st0" d="M1133.1,29.1c-1.7,7.5-2.2,15.3-1.4,22.9c0.7,6.3,10.7,6.4,10,0c-0.8-6.8-0.4-13.6,1.1-20.3
	C1144.1,25.5,1134.5,22.9,1133.1,29.1L1133.1,29.1z"/>
<path class="st0" d="M1126.4,34.9c-0.6,12.4-0.2,24.8,1.2,37.1c0.7,6.3,10.7,6.4,10,0c-1.4-12.3-1.8-24.7-1.2-37.1
	C1136.8,28.4,1126.8,28.5,1126.4,34.9z"/>
<path class="st0" d="M1135.9,51c1,1.9,1.7,4,1.9,6.1c0.4,3.7,3.9,6.3,7.5,4.3c5.2-2.9,8.4-8.4,8.5-14.3c0-3.1-1-5.9-3.9-7.3
	c-4.1-2.1-7.6,0.7-8.2,4.8c-0.3,2.7,2.6,5,5,5c3,0,4.6-2.3,5-5v-0.3l-2.5,4.3l0.2-0.2l-2.5,0.7h0.3l-2.5-0.7
	c0.5,0.2,0.5,0.2,0.1,0.1l-1.3-2.2c1,2.5-1.3,5.4-3.4,6.5l7.5,4.3c-0.4-3.9-1.5-7.7-3.3-11.2C1141.5,40.2,1132.9,45.3,1135.9,51
	L1135.9,51z"/>
<path class="st0" d="M1145.6,50.1c2,4.5,4.1,11.3,10.4,9.1c4.9-1.7,7.7-7,7.9-12l-9.8,1.3c1.3,3.5,3.6,6.6,6.6,8.7
	c2.2,1.6,5.6,0.4,6.8-1.8c1.5-2.5,0.4-5.2-1.8-6.8c-0.9-0.7-1.6-1.7-2-2.7c-2-5.1-9.6-4.6-9.8,1.3c-0.1,0.6-0.2,1.1-0.4,1.6
	c-0.2,0.7-1.1,0.7,0,0.8l3.5,1.5c-0.5-0.8-0.9-1.7-1.2-2.5l-1.6-3.5c-1.1-2.5-4.7-3.1-6.8-1.8C1144.9,44.8,1144.6,47.6,1145.6,50.1
	L1145.6,50.1z"/>
<path class="st0" d="M1168,53.4c0.8-2.9,0-6.1-2.1-8.3c-0.9-0.9-2.2-1.5-3.5-1.5c-1.3,0-2.6,0.5-3.5,1.5c-0.9,0.9-1.5,2.2-1.5,3.5
	c0.1,1.3,0.6,2.6,1.5,3.5l0.1,0.2l-0.8-1c0.2,0.3,0.4,0.6,0.5,0.9l-0.5-1.2c0.1,0.3,0.2,0.7,0.3,1l-0.2-1.3c0,0.3,0,0.5,0,0.8
	l0.2-1.3c0,0.2-0.1,0.4-0.1,0.6c-0.8,2.6,0.7,5.4,3.4,6.2c2.6,0.8,5.4-0.7,6.2-3.4C1167.9,53.6,1168,53.5,1168,53.4L1168,53.4z"/>
<path class="st0" d="M1166.4,46.9v-3.5c0-2.8-2.2-5-5-5s-5,2.2-5,5v3.5c0,2.8,2.2,5,5,5S1166.4,49.7,1166.4,46.9z"/>
<path class="st0" d="M1153.7,58.1l6,6.1c2,2,5.1,2,7.1,0c2-2,2-5.1,0-7.1l-6-6.1c-2-1.9-5.2-1.9-7.1,0.1
	C1151.9,53.1,1151.9,56.2,1153.7,58.1z"/>
<path class="st0" d="M1136.8,60.2c-1.3,5.5-3.7,10.6-7.2,15.1c-1.7,2.1-2.1,5,0,7.1c1.7,1.8,5.4,2.1,7.1,0c4.6-5.7,8-12.4,9.8-19.5
	C1148,56.7,1138.4,54,1136.8,60.2L1136.8,60.2z"/>
<path class="st0" d="M1136.2,77.5c0-0.2-0.1-0.4-0.1-0.6l0.2,1.3c0-0.5,0-0.9,0-1.4l-0.2,1.3c0.1-0.4,0.2-0.7,0.3-1.1
	C1136,77.8,1135.9,78,1136.2,77.5c0.1-0.1,0.2-0.3,0.3-0.5c1.4-2.4,0.6-5.4-1.8-6.8c0,0,0,0,0,0c-2.4-1.3-5.4-0.5-6.8,1.8
	c-1.5,2.4-2,5.4-1.3,8.2c0.7,2.7,3.5,4.2,6.1,3.5c0,0,0,0,0,0C1135.3,82.9,1136.8,80.1,1136.2,77.5z"/>
<path class="st0" d="M1132.7,88.2c9.7-2.5,19.7-3.4,29.6-2.7c6.5,0.5,14.6,0.9,17.3-6.7c2.6-7.3-3-11.7-9.7-12
	c-10-0.4-20,0.1-30,0.1c-6.4,0-6.4,10,0,10l18.8-0.1c3,0,6.4,0.4,9.4,0c0,0,3.6-0.6,2-1.3c-0.6-0.3-3,0.3-3.8,0.2
	c-12.4-0.7-24.2-0.4-36.3,2.7C1123.8,80.1,1126.5,89.8,1132.7,88.2L1132.7,88.2z"/>
<path class="st0" d="M1200.2,84.3c13.7,0.9,27.7,0.9,41.3-1c4.8-0.7,9.8-2.8,10.9-8c1.1-4.4-1.6-8.9-6-10c-2.7-0.7-5.4,0.8-6.1,3.5
	c-0.1,0.4-0.2,0.9-0.2,1.3l-0.1,9.6c-0.1,6.4,9.9,6.4,10,0l0.1-9.6l-6.3,4.8c-0.7-1.5-1.7-2.1-3-1.6c-0.9,0.2-1.8,0.3-2.7,0.4
	c-1.9,0.2-3.8,0.4-5.7,0.5c-3.5,0.3-7,0.5-10.4,0.6c-7.3,0.2-14.6,0.1-21.8-0.4C1193.7,74,1193.7,84,1200.2,84.3L1200.2,84.3z"/>
<path class="st0" d="M1243.4,68.2l-20.8-0.9c-6.2-0.3-13.5,0.5-19.3-1.7c-6-2.2-8.7,7.4-2.7,9.6c6.2,2.3,13.6,1.7,20.1,2l22.7,1
	C1249.8,78.4,1249.8,68.4,1243.4,68.2L1243.4,68.2z"/>
<path class="st0" d="M1205,72.5c2.2-7.2,10.5-10.5,16.9-13.2c5.9-2.5,0.8-11.2-5-8.6c-9.2,3.9-18.4,9.1-21.5,19.2
	C1193.5,76.1,1203.2,78.7,1205,72.5L1205,72.5z"/>
<path class="st0" d="M1216.2,65.4c2.5-6.3,7.2-13.8,5.2-20.8l-8.4,4.9c3,3.5,5.7,7.3,8,11.3c1.2,1.9,3.5,2.9,5.6,2.3
	c4.5-1.2,6.7-5.4,6.4-9.9c0-1.3-0.2-2.6-0.7-3.9l-0.2-1.2c-3.7-2.3-5.3-2.1-4.9,0.8c-0.9,2.7-0.2,7.2-0.3,10c-0.2,6.4,9.8,6.4,10,0
	c0.2-5.9,3-19.4-6.5-19.4c-3.2,0.1-6.1,1.9-7.4,4.8c-0.7,1.6-0.9,3.3-0.8,5c0.1,1.1,0.2,2.2,0.6,3.2c0.6,1.6-0.5,1.2,1.1,0.8
	l5.6,2.3c-2.8-4.7-6-9.2-9.6-13.4c-3.3-3.8-9.7,0.2-8.3,4.9c0.7,2.4-1,5.1-1.8,7.2l-3.3,8.2C1204.2,68.7,1213.9,71.3,1216.2,65.4
	L1216.2,65.4z"/>
<path class="st0" d="M1247.7,25.6h-23c-5.6,0-12.5,0.7-16.7-3.7c-4.4-4.7-11.5,2.4-7.1,7.1c4.9,5.2,11.7,6.4,18.6,6.6
	c9.4,0.2,18.8,0,28.1,0.1C1254.1,35.7,1254.1,25.6,1247.7,25.6L1247.7,25.6z"/>
<path class="st0" d="M1201.1,26.5c14.7-0.9,29.4-0.7,44,0.5c6.4,0.5,6.4-9.5,0-10c-14.6-1.2-29.3-1.4-44-0.5
	C1194.7,16.8,1194.7,26.8,1201.1,26.5z"/>
<path class="st0" d="M1197.9,28.5c3,13.7,4.3,27.7,4.1,41.7c-0.1,6.4,9.9,6.4,10,0c0.2-14.9-1.3-29.8-4.4-44.4
	C1206.2,19.5,1196.5,22.2,1197.9,28.5z"/>
<path class="st0" d="M1201.3,29.9c4,9.7,4.1,20.3-0.5,29.9c-2.8,5.8,5.8,10.8,8.6,5.1c5.8-11.7,6.4-25.4,1.5-37.6
	C1208.5,21.4,1198.8,23.9,1201.3,29.9z"/>
<path class="st0" d="M1209.7,39.2c2.9,3,5.2,6.5,6.8,10.3c1.1,2.5,4.7,3,6.8,1.8c2.6-1.5,2.9-4.4,1.8-6.8c-2-4.6-4.9-8.8-8.4-12.3
	C1212.3,27.5,1205.3,34.6,1209.7,39.2L1209.7,39.2z"/>
<path class="st0" d="M1195,33.2l1.1,30.2c0.2,6.4,10.2,6.4,10,0l-1.1-30.2C1204.8,26.7,1194.8,26.7,1195,33.2z"/>
<path class="st0" d="M990.8,26.9c13.9-0.3,27.8,0.4,41.6,2.3l-3.5-1.5c0.2-1.7-0.3-2.4-1.5-2.2c-0.7,0-1.3-0.1-2-0.2
	c-1.6-0.2-3.3-0.5-4.9-0.7l-9.5-1.4l-19-2.7c-6.3-0.9-9,8.7-2.7,9.6l30.3,4.4c6.8,1,17,2.4,18.5-6.8c1.6-9.9-10.6-9.2-17.1-9.8
	c-10.1-0.9-20.2-1.3-30.4-1C984.3,17.1,984.2,27.1,990.8,26.9L990.8,26.9z"/>
<path class="st0" d="M984.5,26.7l1.6,11.2c0.4,2.7,3.8,4.1,6.2,3.5c2.9-0.8,3.9-3.5,3.5-6.2L994.2,24c-0.4-2.7-3.8-4.1-6.2-3.5
	C985.2,21.3,984.2,24,984.5,26.7z"/>
<path class="st0" d="M989.9,26.9c6.4,0,6.5-10,0-10S983.5,26.9,989.9,26.9z"/>
<path class="st0" d="M989.2,32.7l2.4,14.4c0.7,3.9,0.9,8.3,3.3,11.6s6,4,9.9,3.5c4.7-0.5,9.9-1,14.4-2.4c6.7-2.1,12.8-9.9,7.7-16.6
	c-5.1-6.7-17.9-3.3-25-2.8c-6.4,0.5-6.4,10.5,0,10l8-0.6c2.2-0.2,5.1-0.9,7.3-0.5c3,0.6-1.7,1.1-2.9,1.4c-2.3,0.5-4.7,0.8-7.1,1.1
	c-1.3,0.2-2.6,0.4-3.9,0.6c-0.7,0.4-1,0-0.9-1.2c-1-1.6-0.9-5-1.2-6.8L998.9,30C997.8,23.7,988.1,26.3,989.2,32.7L989.2,32.7z"/>
<path class="st0" d="M1009.7,42.7c-1.5,2.7-4.2,4.4-7.3,4.7c-2.7,0.4-4.1,3.8-3.5,6.2c0.8,2.9,3.5,3.9,6.2,3.5
	c5.6-0.9,10.5-4.3,13.3-9.3C1021.5,42.1,1012.9,37.1,1009.7,42.7z"/>
<path class="st0" d="M990,35.2c-5.2,14.1-5.9,29.5-2,44c1.6,6.2,11.3,3.6,9.6-2.7c-3.4-12.8-2.7-26.3,2-38.7
	C1001.9,31.8,992.3,29.2,990,35.2z"/>
<path class="st0" d="M995.2,82.3c-0.3-15.5,0.2-31.1,1.6-46.5c0.6-6.4-9.4-6.4-10,0c-1.4,15.5-1.9,31-1.6,46.5
	C985.4,88.7,995.4,88.7,995.2,82.3z"/>
<path class="st0" d="M984.5,34.8c-0.5,6.5,0.1,13.1,1.9,19.4c1.7,6.2,11.3,3.6,9.7-2.7c-1.5-5.4-2-11.1-1.5-16.7
	C995,28.4,985,28.4,984.5,34.8L984.5,34.8z"/>
<path class="st0" d="M991.7,59.9c0.9,6.8,0.3,13.6-1.6,20.2c-1.8,6.2,7.9,8.8,9.7,2.7c2.2-7.4,2.8-15.1,1.9-22.8
	C1000.9,53.6,990.9,53.5,991.7,59.9z"/>
<path class="st0" d="M1019.2,54.5c6.4,0,6.4-10,0-10C1012.8,44.5,1012.8,54.5,1019.2,54.5z"/>
<path class="st0" d="M1060.5,81.5c1.8,1.9,4,3.2,6.5,3.8c2.5,0.6,5.5-0.8,6.2-3.5c0.7-2.7-0.9-5.4-3.5-6.2c-0.1,0-1-0.2-1-0.3
	s1.1,0.6,0.4,0.2c-0.2-0.1-0.4-0.2-0.6-0.3s-0.3-0.2-0.5-0.3c-0.5-0.3,0.8,0.7,0.4,0.3s-0.6-0.5-0.9-0.8c-2-2-5.1-2-7.1,0
	C1058.7,76.4,1058.7,79.5,1060.5,81.5L1060.5,81.5z"/>
<path class="st0" d="M1074.9,36.2c-0.9,3.8-1.4,7.7-1.2,11.6c0,2.8,2.2,5,5,5s5-2.2,5-5c-0.1-3,0.1-6.1,0.8-9
	C1086.1,32.6,1076.4,29.9,1074.9,36.2L1074.9,36.2z"/>
<path class="st0" d="M1074.6,30.1c-1.8,7.5,0,15.3,4.9,21.2c1.7,2.1,5.3,1.7,7.1,0c2.1-2.1,1.7-5,0-7.1c-2.5-3.3-3.4-7.5-2.4-11.5
	C1085.8,26.5,1076.1,23.8,1074.6,30.1L1074.6,30.1z"/>
<path class="st0" d="M1139,25.9c-9,7.5-18.4,19.2-10.8,31.1c3.4,5.4,12.1,0.4,8.6-5c-4.8-7.6,4-14.7,9.2-19
	C1151.1,28.9,1143.9,21.8,1139,25.9L1139,25.9z"/>
<g id="Baltimore-Code-and-Coffee-Logo-horiz">
	<rect x="420.7" y="73.1" class="st1" width="507.3" height="285.4"/>
	<path class="st2" d="M618.9,104.8v7.9h7.9v23.8h-7.9v7.9H611v7.9h7.9v-7.9c0,0,8.1,0,7.9,0s0-7.9,0-7.9h7.9v-23.8h-7.9v-7.9H618.9z
		"/>
	<path class="st2" d="M658.5,104.8h-7.9v7.9h-7.9v15.9h7.9v7.9h-7.9v7.9h-7.9v7.9h7.9v-7.9h7.9v-7.9h7.9v-7.9h-7.9v-15.8h7.9
		L658.5,104.8z"/>
	<path class="st2" d="M595.1,104.8v15.8h7.9v7.9h-7.9v15.8h-7.9v7.9h7.9v-7.9h7.9v-15.8h7.9v-7.9H603v-15.9H595.1z"/>
	<path class="st3" d="M603,184.1v7.9h-15.9v15.9h7.9v7.9h47.6v-7.9h7.9v-7.9h7.9V192h-15.9v-7.9L603,184.1z"/>
	<path class="st4" d="M595.1,176.1v7.9h-7.9v7.9h-7.9v7.9h7.9V192H603v-7.9h39.6v7.9h7.9v-7.9h-7.9v-7.9H595.1z"/>
	<path class="st5" d="M642.7,215.8v-7.9h7.9v-7.9h7.9V192h-7.9v-7.9h-7.9v-7.9h-47.6v7.9h-7.9v7.9h-7.9v7.9h7.9v7.9h7.9v7.9
		L642.7,215.8v7.9h-7.9v7.9h-7.9v7.9h7.9v7.9h7.9V303h-7.9v7.9h-39.6V303h-15.8V295h-7.9V184h7.9v-7.9h7.9v-7.9h63.4v7.9h7.9v7.9
		h7.9v15.9h-7.9v7.9h-7.9v7.9L642.7,215.8z"/>
	<path class="st6" d="M650.6,160.3v7.9h7.9v7.9h7.9v7.9h7.9v7.9h7.9v15.9h7.9v7.9h7.9v7.9h7.9v47.6h-7.9v7.9h-7.9v7.9h-7.9v7.9h-7.9
		v7.9h-7.9v7.9h-7.9v7.9h-15.9v7.9h-47.6v-7.9h-15.8v-7.9h-7.9V303h-7.9V184.1h7.9v-7.9h7.9v-7.9h7.9v7.9h-7.9v7.9h-7.9V303h7.9v7.9
		h15.8v7.9h47.6v-7.9h15.9V303h7.9V295h7.9v-15.9h15.8v-7.9h7.9v-47.6h-7.9v-7.9h-15.8V192h-7.9v-7.9h-7.9v-7.9h-7.9v-7.9h-63.4
		v-7.9"/>
	<path class="st5" d="M674.4,215.8v7.9h7.9v7.9h7.9v23.8h7.9v-31.7h-7.9v-7.9H674.4z"/>
	<path class="st7" d="M674.4,223.7v47.6h7.9v-7.9h7.9v-31.7h-7.9v-7.9L674.4,223.7z"/>
	<path class="st8" d="M666.5,192v7.9h-7.9v7.9h-7.9v7.9h-7.9v7.9h-7.9v7.9h-7.9v7.9h7.9v7.9h7.9V303h-7.9v7.9h-39.6V303h-15.8V295
		h-7.9v7.9h7.9v7.9h15.8v7.9h47.6v-7.9h15.9V303h7.9V295h7.9v-15.8h15.8v-7.9h7.9v-15.8h-7.9v7.9h-7.9v7.9h-7.9V192H666.5z"/>
	<path class="st6" d="M721.9,310.9V295h7.9v-15.9h7.9v-15.9h7.9v-15.9h7.9v-15.8h7.9v-15.9h7.9v-15.9h8v-15.9h7.9v15.9h-7.9v15.9h-8
		v15.9h-7.9v15.9h-7.9v15.9h-7.9v15.9h-7.9V295h-7.9v15.9H721.9z"/>
	<path class="st9" d="M777.5,176.1V192h-8v15.9h-7.9v15.9h-7.9v15.9h-7.9v15.9h-7.9v15.9h-7.9v15.9h-7.9v7.9h7.9v-15.9h7.9v-15.9
		h7.9v-15.9h7.9v-15.8h7.9v-15.9h7.9v-15.9h8v-15.9h7.9v-7.9H777.5z"/>
	<path class="st6" d="M809.1,199.9v7.9H825v7.9h15.8v7.9h15.9v7.9h15.8v7.9h15.8v7.9h-15.8v7.9h-15.9v7.9h-15.9v7.9H825v7.9h-15.9
		v7.9H825v-7.9h15.8v-7.9h15.9v-7.9h15.8v-7.9h15.8v-7.9h7.9v-7.9h-7.9v-7.9h-15.8v-7.9h-15.9v-7.9h-15.9v-7.9H825v-7.9H809.1z"/>
	<path class="st9" d="M817,207.8v7.9h15.9v7.9h15.8v7.9h15.8v7.9h15.8v7.9h7.9v-7.9h-15.8v-7.9h-15.9v-7.9h-15.9v-7.9H825v-7.9H817z
		"/>
	<path class="st9" d="M817,271.3v7.9h7.9v-7.9h15.8v-7.9h15.9v-7.9h15.8v-7.9h-7.9v7.9h-15.8v7.9h-15.8v7.9L817,271.3z"/>
	<path class="st6" d="M539.6,287.1v-7.9h-15.8v-7.9h-15.9v-7.9h-15.8v-7.9h-15.9v-7.9h-15.8v-7.9h15.9v-7.9h15.9v-7.9h15.9v-7.9
		h15.9v-7.9h15.8v-7.9h-15.8v7.9h-15.9v7.9h-15.8v7.9h-15.9v7.9h-15.8v7.9h-7.9v7.9h7.9v7.9h15.9v7.9h15.9v7.9h15.8v7.9h15.9v7.9
		L539.6,287.1z"/>
	<path class="st9" d="M531.7,279.2v-7.9h-15.8v-7.9H500v-7.9h-15.9v-7.9h-15.9v-7.9h-7.9v7.9h15.9v7.9h15.9v7.9h15.8v7.9h15.9v7.9
		L531.7,279.2z"/>
	<path class="st9" d="M531.7,215.8v-7.9h-7.9v7.9h-15.9v7.9h-15.8v7.9h-15.9v7.9h7.9v-7.9H500v-7.9h15.9v-7.9H531.7z"/>
</g>
<g class="st10">
	<path class="st11" d="M8,93.8v-6H2V14.1h54.6v6h6v0.4H63v6h6v29.1h-6v2.8h6v29.1h-6.4v6.4H8z M51.6,82.9v-6.4H58V57.4h-6.4V44.6H58
		V25.5h-6.4v-6.4H7v63.8H51.6z M19.7,44.6V31.9h25.5v12.8H19.7z M19.7,70.1V57.4h25.5v12.8H19.7z"/>
	<path class="st11" d="M78.9,93.8v-6h-6V14.1h22.7v6h6v0.4h0.4v6h6v0.4h0.4v6h2.8v-6h6.4v-6.4h6.4v-6.4h22.7v6h6v73.7h-22.7v-6h-6
		V68.3h-19.5v-6h-2.8v31.5H78.9z M90.6,82.9V44.6H97V51h6.4v6.4h12.8V51h6.4v-6.4h6.4v38.2h12.8V19.1h-12.8v6.4h-6.4v6.4h-6.4v6.4
		h-12.8v-6.4H97v-6.4h-6.4v-6.4H77.9v63.8H90.6z"/>
	<path class="st11" d="M175.3,93.8v-6h-6v-0.4h-0.4v-6h-6v-0.4h-0.4v-6h-6V26.9h6.4v-6.4h6.4v-6.4h41.8v6h6v0.4h0.4v6h6v0.4h0.4v6h6
		v48.2h-6.4v6.4h-6.4v6.4H175.3z M206.2,82.9v-6.4h6.4v-6.4h6.4V31.9h-6.4v-6.4h-6.4v-6.4h-31.9v6.4h-6.4v6.4h-6.4v38.2h6.4v6.4h6.4
		v6.4H206.2z M180.7,70.1v-6.4h-6.4V38.2h6.4v-6.4h19.1v6.4h6.4v25.5h-6.4v6.4H180.7z M185.3,65.1h9.6v-6.4h6.4V42.8h-9.6v6.4h-6.4
		V65.1z"/>
	<path class="st11" d="M239.9,93.8v-6h-6V14.1h54.6v6h6v0.4h0.4v6h6V62h-6v2.8h6v29.1h-22.7v-6h-6.4V75.1h-6v-6.8h-3.2v25.5H239.9z
		 M251.6,82.9V57.4h19.1v12.8h6.4v12.8h12.8V63.7h-6.4V51h6.4V25.5h-6.4v-6.4h-44.6v63.8H251.6z M251.6,44.6V31.9h25.5v12.8H251.6z"
		/>
	<path class="st11" d="M310.8,93.8v-6h-6V14.1h61v6h6v22.7H353v2.8h6v19.5h6.8v6h6v22.7H310.8z M360.8,82.9V70.1h-38.2V57.4H348
		V44.6h-25.5V31.9h38.2V19.1h-51v63.8H360.8z"/>
	<path class="st11" d="M420,93.8v-6h-6v-0.4h-0.4v-6h-6v-0.4h-0.4v-6h-6V26.9h6.4v-6.4h6.4v-6.4h41.8v6h6v0.4h0.4v6h6v0.4h0.4v6h6
		v22.7h-6v2.8h6v22.7h-6.4v6.4h-6.4v6.4H420z M450.8,82.9v-6.4h6.4v-6.4h6.4V57.4h-12.8v6.4h-6.4v6.4h-19.1v-6.4H419V38.2h6.4v-6.4
		h19.1v6.4h6.4v6.4h12.8V31.9h-6.4v-6.4h-6.4v-6.4H419v6.4h-6.4v6.4h-6.4v38.2h6.4v6.4h6.4v6.4H450.8z M445.9,52.4h6v-2.8h-6v-6.8
		h-9.6v6.4h-6.4v15.9h9.6v-6.4h6.4V52.4z"/>
	<path class="st11" d="M497.2,93.8v-6h-6v-0.4h-0.4v-6h-6v-0.4h-0.4v-6h-6V26.9h6.4v-6.4h6.4v-6.4h41.8v6h6v0.4h0.4v6h6v0.4h0.4v6h6
		v48.2h-6.4v6.4h-6.4v6.4H497.2z M528.1,82.9v-6.4h6.4v-6.4h6.4V31.9h-6.4v-6.4h-6.4v-6.4h-31.9v6.4h-6.4v6.4h-6.4v38.2h6.4v6.4h6.4
		v6.4H528.1z M502.6,70.1v-6.4h-6.4V38.2h6.4v-6.4h19.1v6.4h6.4v25.5h-6.4v6.4H502.6z M507.2,65.1h9.6v-6.4h6.4V42.8h-9.6v6.4h-6.4
		V65.1z"/>
	<path class="st11" d="M561.8,93.8v-6h-6V14.1h54.6v6h6v0.4h0.4v6h6v0.4h0.4v6h6v48.2h-6.4v6.4h-6.4v6.4H561.8z M605.4,82.9v-6.4
		h6.4v-6.4h6.4V31.9h-6.4v-6.4h-6.4v-6.4h-44.6v63.8H605.4z M573.6,70.1V31.9h25.5v6.4h6.4v25.5h-6.4v6.4H573.6z M600.4,58.8V42.8
		h-15.9v22.3h9.6v-6.4H600.4z"/>
	<path class="st11" d="M639.1,93.8v-6h-6V14.1h61v6h6v22.7h-18.7v2.8h6v19.5h6.8v6h6v22.7H639.1z M689.1,82.9V70.1h-38.2V57.4h25.5
		V44.6h-25.5V31.9h38.2V19.1h-51v63.8H689.1z"/>
	<path class="st11" d="M754.6,106.6v-6h-6v-6.8h-6.8v-6h-6v-0.4h-0.4v-6h-6V52.4h6v-2.8h-6V20.5h6.4v-6.4h12.8V1.4h22.7v6h6v6.8h6.8
		v6h6v0.4h0.4v6h6v22.7h-12.8v9.6h6.8v6h6v22.7h-6.4v6.4h-12.8v12.8H754.6z M766.4,95.6V82.9h12.8v-6.4h6.4V63.7h-12.8v6.4h-19.1
		V57.4h19.1V44.6h-19.1V31.9h19.1v6.4h12.8V25.5h-6.4v-6.4h-12.8V6.4h-12.8v12.8h-12.8v6.4h-6.4v19.1h6.4v12.8h-6.4v19.1h6.4v6.4
		h12.8v12.8H766.4z"/>
	<path class="st11" d="M844.7,93.8v-6h-6v-0.4h-0.4v-6h-6v-0.4h-0.4v-6h-6V26.9h6.4v-6.4h6.4v-6.4h41.8v6h6v0.4h0.4v6h6v0.4h0.4v6h6
		v22.7h-6v2.8h6v22.7h-6.4v6.4h-6.4v6.4H844.7z M875.6,82.9v-6.4h6.4v-6.4h6.4V57.4h-12.8v6.4h-6.4v6.4h-19.1v-6.4h-6.4V38.2h6.4
		v-6.4h19.1v6.4h6.4v6.4h12.8V31.9h-6.4v-6.4h-6.4v-6.4h-31.9v6.4h-6.4v6.4h-6.4v38.2h6.4v6.4h6.4v6.4H875.6z M870.6,52.4h6v-2.8h-6
		v-6.8H861v6.4h-6.4v15.9h9.6v-6.4h6.4V52.4z"/>
	<path class="st11" d="M922,93.8v-6h-6v-0.4h-0.4v-6h-6v-0.4h-0.4v-6h-6V26.9h6.4v-6.4h6.4v-6.4h41.8v6h6v0.4h0.4v6h6v0.4h0.4v6h6
		v48.2h-6.4v6.4h-6.4v6.4H922z M952.9,82.9v-6.4h6.4v-6.4h6.4V31.9h-6.4v-6.4h-6.4v-6.4H921v6.4h-6.4v6.4h-6.4v38.2h6.4v6.4h6.4v6.4
		H952.9z M927.4,70.1v-6.4H921V38.2h6.4v-6.4h19.1v6.4h6.4v25.5h-6.4v6.4H927.4z M931.9,65.1h9.6v-6.4h6.4V42.8h-9.6v6.4h-6.4V65.1z
		"/>
	<path class="st11" d="M986.5,93.8v-6h-6V14.1h61v6h6v22.7h-18.7v2.8h6v22.7h-25.5v25.5H986.5z M998.3,82.9V57.4h25.5V44.6h-25.5
		V31.9h38.2V19.1h-51v63.8H998.3z"/>
	<path class="st11" d="M1057.5,93.8v-6h-6V14.1h61v6h6v22.7h-18.7v2.8h6v22.7h-25.5v25.5H1057.5z M1069.2,82.9V57.4h25.5V44.6h-25.5
		V31.9h38.2V19.1h-51v63.8H1069.2z"/>
	<path class="st11" d="M1128.4,93.8v-6h-6V14.1h61v6h6v22.7h-18.7v2.8h6v19.5h6.8v6h6v22.7H1128.4z M1178.4,82.9V70.1h-38.2V57.4
		h25.5V44.6h-25.5V31.9h38.2V19.1h-51v63.8H1178.4z"/>
	<path class="st11" d="M1199.3,93.8v-6h-6V14.1h61v6h6v22.7h-18.7v2.8h6v19.5h6.8v6h6v22.7H1199.3z M1249.3,82.9V70.1h-38.2V57.4
		h25.5V44.6h-25.5V31.9h38.2V19.1h-51v63.8H1249.3z"/>
</g>
</svg>
