<svg id="Layer_1" data-name="Layer 1" xmlns="http://www.w3.org/2000/svg" viewBox="0 0 1262.25 358.42"><defs><style>.cls-1,.cls-6{fill:#fff;}.cls-2{fill:none;}.cls-3{fill:#847b7d;}.cls-10,.cls-3,.cls-4,.cls-5,.cls-6,.cls-7,.cls-8,.cls-9{fill-rule:evenodd;}.cls-4{fill:#693113;}.cls-5{fill:#72675e;}.cls-11,.cls-7{fill:#2b296f;}.cls-8{fill:#626166;}.cls-9{fill:#b0adb4;}.cls-10{fill:#554e84;}.cls-11{font-size:102px;font-family:Golden-Age, Golden Age;}</style></defs><path class="cls-1" d="M38.73,52.25a19.39,19.39,0,0,0-1,10.26c.25,1.46.79,3.16,2.56,3.26s2.79-1.29,3.47-2.59a19.15,19.15,0,0,0-.08-17.74A1.52,1.52,0,0,0,42,44.75a1.57,1.57,0,0,0-1.1,1.45L39.34,59a1.5,1.5,0,0,0,1.5,1.5,1.53,1.53,0,0,0,1.5-1.5L43.93,46.2l-2.8.76a16.12,16.12,0,0,1,.85,13,12.89,12.89,0,0,1-.63,1.48c-.24.46-.57.84-.82,1.27l-.1.08c-.24.11-.08.19.5.21a4.14,4.14,0,0,0-.15-.63,14,14,0,0,1-.27-1.82,17,17,0,0,1,1.11-7.47,1.51,1.51,0,0,0-1-1.85,1.53,1.53,0,0,0-1.84,1Z" transform="translate(-9.55 -2.58)"/><path class="cls-1" d="M46.14,41.48a11.42,11.42,0,0,0,5.32,12.37c4.54,2.81,10.46,2.11,15.19.2,5-2,6.75-6,6.87-11.17.1-4.25-.5-8.89-3.28-12.28C63.13,22,50.45,28.9,50.41,39c0,4.79,2.55,10.63,7.92,11,6.23.42,8.74-5.78,8.76-10.93a4.89,4.89,0,0,0-2.48-4.32l-2.17-1c-5.82-2.59-10.92,6-5,8.64l2.17,1-2.48-4.32v1.13l3.67.57c.06-.07-.36-1.52-.35-1.75,0-.8.28-2.08,1.26-2.26,1.64-.33,1.74,2.74,1.82,3.81a10.19,10.19,0,0,1,0,3.57c-.27.69-.8.82-2.06,1.16-.84.24-6.12,1.15-5.64-1.14,1.31-6.28-8.33-9-9.64-2.66Z" transform="translate(-9.55 -2.58)"/><path class="cls-1" d="M42,48.62C41.63,55.85,43.28,66,49.08,71c1.27,1.09,3.17,1.94,4.87,1.28,6.67-2.59,7.24-11.84,7.29-18.09L51.92,56.7c2.88,5.91,6.68,13.57,3.5,20.07l8.64,5a39.82,39.82,0,0,0,4.17-21.09c-.53-6.37-10.53-6.42-10,0a30,30,0,0,1-2.81,16c-2.81,5.77,5.81,10.84,8.64,5,5-10.27,1.19-20.53-3.51-30.17-2.24-4.61-9.28-2.18-9.31,2.53,0,3.39-.24,7.39-2,10.39l3-2.29-.91.35,4.87,1.29C52.28,60.57,51.77,53.3,52,48.62c.34-6.43-9.66-6.41-10,0Z" transform="translate(-9.55 -2.58)"/><path class="cls-1" d="M61.53,78.93c-.71.4-1.24.3-1.58-.33v7.07a27.24,27.24,0,0,1,7.65-4.86c5.76-2.37,3.7-11.48-2.66-9.64-5.45,1.57-11.26,1-16.42,3.61a13.74,13.74,0,0,0-7.86,11.7c-.24,4.09,4.35,5.81,7.52,4.32,5.1-2.41,10.38-9.6,10.48-15.39A7.34,7.34,0,0,0,46.4,69.63C41.58,73.91,48.67,81,53.47,76.7l-4.84-1.47-.47,1a13.59,13.59,0,0,0-1.45,2.59,7.8,7.8,0,0,1-3.58,3.33l7.53,4.32c.3-5.15,13.58-4.7,16.94-5.67l-2.66-9.64A41.36,41.36,0,0,0,52.88,78.6c-2.05,1.82-1.78,5.21,0,7.07a10,10,0,0,0,8.65,3.26c2.7-.36,5-2.05,5-5,0-2.43-2.33-5.35-5-5Z" transform="translate(-9.55 -2.58)"/><path class="cls-1" d="M44.65,78.06c-1.46.36-3.79,1-4.56-.4s2.83-.33.32-2.78c-.34-.33-3.91-.22-4.52-.28a15.38,15.38,0,0,0-5.24.24c-1.12.3-2.91,1.89-3.95,2-.51,0-2.44-1-3.35-1.24-3.2-.74-5.12.68-7.86,1.92h5L20,77.15l2.3,3-.15-.65-2.3,5.64.4-.28c5.26-3.64.26-12.31-5-8.63l-.41.28a5.21,5.21,0,0,0-2.3,5.65c1.09,4.6,5.3,5.13,9.06,3.52q1.66-1.36.66-.45c-.69.45-.42.72.8.81a6.84,6.84,0,0,0,3,.79c2.74.3,4.19-1,6.64-1.87,4.24-1.46,8.81,1,13.18-1.54A8.55,8.55,0,0,0,49.39,72.3c-4-8.57-16.06-6.45-18.7,1.94C27.28,85.07,38.42,89.9,47.31,87.7c6.24-1.55,3.6-11.19-2.66-9.64Z" transform="translate(-9.55 -2.58)"/><path class="cls-1" d="M20.32,79.33c1.71,7.89,11,11.47,17.85,8,2.42-1.2,3.09-4.63,1.79-6.84a5.1,5.1,0,0,0-6.84-1.8c.65-.32-.22.08-.43.1s-.32.07.11,0h-.49c1.07.37-1.65-.64-.82-.22-.89-.45-.68-.2-1.16-.87-.25-.36.06.34-.22-.39.3.78-.12-.53-.15-.67a5,5,0,1,0-9.64,2.66Z" transform="translate(-9.55 -2.58)"/><path class="cls-1" d="M33,75.38l-.21-9.31c-.13-5.33-6.46-6.31-9.32-2.52a26.41,26.41,0,0,1-5,5l7.35,3c-.94-3.44-1.86-7.83.62-10.88,1.19-1.45,6-3,5.08.49l7.35-3c-2.28-1.07-2.8-3.25,0-4,6.23-1.61,3.59-11.26-2.66-9.64-10.71,2.78-12.78,17.4-2.4,22.25,2.85,1.33,6.47.37,7.35-3,2.33-8.95-6.19-17-15.06-14.47C15.15,52.4,13.61,64.88,16.14,74.2c.77,2.82,4.72,5,7.35,3a43,43,0,0,0,8.59-8.6l-9.31-2.52L23,75.38c.15,6.42,10.15,6.45,10,0Z" transform="translate(-9.55 -2.58)"/><path class="cls-1" d="M27,47.84a22.84,22.84,0,0,0-3.21,14.6c.35,2.68,2.05,5,5,5,2.43,0,5.35-2.3,5-5a14.06,14.06,0,0,1,1.85-9.55c3.32-5.53-5.32-10.56-8.64-5Z" transform="translate(-9.55 -2.58)"/><path class="cls-1" d="M30.31,52.11l-1-19.82c-.34-6.41-10.34-6.45-10,0l1,19.82c.34,6.4,10.34,6.44,10,0Z" transform="translate(-9.55 -2.58)"/><path class="cls-1" d="M21.16,24.52a16,16,0,0,1-.54,7.32,5,5,0,0,0,9.64,2.66,23.58,23.58,0,0,0,.9-10c-.36-2.67-2.05-5-5-5-2.43,0-5.36,2.31-5,5Z" transform="translate(-9.55 -2.58)"/><path class="cls-1" d="M15.57,24.49q-.83,13.36-.32,26.75c.24,6.41,10.25,6.44,10,0q-.51-13.4.32-26.75c.4-6.43-9.6-6.41-10,0Z" transform="translate(-9.55 -2.58)"/><path class="cls-1" d="M28.81,33.63A39,39,0,0,1,39.4,36.55c2.49,1,5.5-1.12,6.15-3.49.79-2.88-1-5.11-3.49-6.15a47.67,47.67,0,0,0-13.25-3.28c-2.68-.31-5,2.51-5,5,0,2.95,2.31,4.69,5,5Z" transform="translate(-9.55 -2.58)"/><path class="cls-1" d="M20.17,61.41c6.44,0,6.45-10,0-10s-6.44,10,0,10Z" transform="translate(-9.55 -2.58)"/><path class="cls-1" d="M32.24,29.53l25.85-1.05-4.82-3.67c.43,2.69-6.84,2.34-8,2.34-6.43,0-6.44,10,0,10,9.3.05,19.45-3.9,17.65-15-.34-2.07-2.81-3.75-4.82-3.67L32.24,19.53c-6.41.26-6.44,10.26,0,10Z" transform="translate(-9.55 -2.58)"/><path class="cls-1" d="M130.14,39.87c-2.2,2.44-4.48,4.79-6.91,7-1.1,1-2.21,2-3.37,3l-1.39,1.12Q115.54,52.25,120,53l-7.85,6c7.45,6.1,15.93,3.51,23.15-1.63,2.94-2.09,6.08-4.45,7-8.16.54-2.29-.41-4.65.15-6.85.5-2,2.23-3.69,3.42-5.3,3.63-4.9,6.06-15.3-2.65-16.71-4.08-.65-6.94,2-8.45,5.5-1.91,4.44-3.56,7.4-8.26,9.41l6.06,7.85L139,36.28c1.17-1.23,4.87-6.53,6.81-5.9l-3.67-4.82-2.54,29.23-1.36,15.59c-.29,3.39-1,6.88,1.21,9.78,5,6.61,12.46.64,13.39-5.57,1.39-9.25.8-19-.36-28.23-.81-6.44-9.15-6.41-10,0-.7,5.35-6.36,7.4-7.31,12.7-1,5.77-.33,12.2.47,18,.62,4.47.9,10.77,5.65,12.91,4.95,2.22,9.33-1.7,11.52-5.85,3-5.69-5.62-10.75-8.63-5-1.37,1.61-.58,2.44,2.39,2.5l-.39-1.78c.24-1.67-.74-4.12-.94-5.87-.4-3.63-1.07-8.25-.34-11.83.52-2.61,3.33-4.43,4.77-6.75a21.35,21.35,0,0,0,2.81-8.93h-10a127,127,0,0,1,1,14.45c0,2.26,0,4.51-.12,6.77-.06,1.29-.14,2.57-.24,3.86q-1.2,3.25,1.94,1.38l3,2.3c-1.22-1.64.57-9.54.75-11.56L150,50.89l2.2-25.33c.2-2.24-1.7-4.18-3.67-4.82C139,17.63,131,30.24,125.42,36.08c-4.17,4.38,1.06,10,6.06,7.86a21.56,21.56,0,0,0,10.39-9.32A22.69,22.69,0,0,0,143,32.11c1-2.36,1.49-2.33-1.39-3s-2.28-.24-3.61,1.75c-.66,1-1.46,1.91-2.17,2.87a19.14,19.14,0,0,0-3,5.33,13.17,13.17,0,0,0-.61,3.29c-.06,1.08.58,2.93.24,3.93-1.16,3.49-10.07,8.31-13.31,5.65-4.38-3.58-10.42.79-7.86,6.06,5.8,11.92,21.87-6.64,25.89-11.09,4.31-4.77-2.74-11.86-7.07-7.07Z" transform="translate(-9.55 -2.58)"/><path class="cls-1" d="M126.9,38.75a61.84,61.84,0,0,1-19.27,5.33l4.82,3.67a6.86,6.86,0,0,1,1.54-6h-7.07l3.69,4.46c4.1,5,11.14-2.15,7.07-7.07L114,34.63c-1.63-2-5.43-1.91-7.07,0a17.56,17.56,0,0,0-4.11,15.78,5,5,0,0,0,4.82,3.67A76.48,76.48,0,0,0,132,47.38c5.84-2.69.76-11.32-5-8.63Z" transform="translate(-9.55 -2.58)"/><path class="cls-1" d="M113.78,35.18l-15.26-14c-4.74-4.34-11.83,2.72-7.08,7.07l15.27,14c4.74,4.34,11.83-2.72,7.07-7.07Z" transform="translate(-9.55 -2.58)"/><path class="cls-1" d="M92.37,18.9a14.45,14.45,0,0,0-2.09,23.55c8.32,7.4,20.73,7.28,30.35,2.9,5.84-2.67.77-11.29-5-8.63a19.09,19.09,0,0,1-15.44.26c-3.83-1.71-7.7-6.43-2.72-9.44,5.5-3.32.48-12-5-8.64Z" transform="translate(-9.55 -2.58)"/><path class="cls-1" d="M99.07,37.85l.22,0L98,38h.67l-1.33-.17a4.19,4.19,0,0,1,1.09.29l-1.2-.51a5.17,5.17,0,0,0,.6.33c-.16,0-1-.9-.4-.28.46.46-.12.27-.29-.4a4.25,4.25,0,0,0,.31.6l-.51-1.19a2.13,2.13,0,0,1,.13.43,5,5,0,0,0,9.65-2.66,8.88,8.88,0,0,0-3.84-5.14,8.36,8.36,0,0,0-2.44-1,9.8,9.8,0,0,0-4-.05,5,5,0,0,0-3,2.3,5.12,5.12,0,0,0-.5,3.85,5,5,0,0,0,2.3,3,5.87,5.87,0,0,0,3.85.5Z" transform="translate(-9.55 -2.58)"/><path class="cls-1" d="M90.86,30.38c6.44,0,6.45-10,0-10s-6.44,10,0,10Z" transform="translate(-9.55 -2.58)"/><path class="cls-1" d="M91.41,47.82c-.56,12.74-2.36,26.08-.48,38.76.86,5.85,9.48,4,9.82-1.33.47-7.35-7.34-11.32-13.46-8.26l7.52,4.32q-.91-22.35-1-44.72c0-6.44-10-6.45-10,0q.06,22.36,1,44.72a5.07,5.07,0,0,0,7.52,4.32l-1.58-.38,9.82-1.33c-1.72-11.63.32-24.41.84-36.1.29-6.44-9.71-6.42-10,0Z" transform="translate(-9.55 -2.58)"/><path class="cls-1" d="M171.81,42.93c4.22.47,9.27,1.13,13.45,0,4.7-1.22,6-5.61,6.44-9.93.35-3.8-1-7.75-4.54-9.58s-8.37-.87-10.26,2.85C174,32,182.61,37.1,185.53,31.36c-.65,1.28-2.41,1-3.41.61s0-.79-.36.4a5.2,5.2,0,0,0-.24,1.48c-.22.6-.05.58.52-.07.94-.54.79-.68-.48-.42-3.15-.45-6.54-.07-9.75-.43-2.68-.3-5,2.52-5,5,0,3,2.31,4.7,5,5Z" transform="translate(-9.55 -2.58)"/><path class="cls-1" d="M184,30.47l12.93.38c3.67.11,9-.55,12.29,1.51,4.88,3,6.36,9.24,11.82,12,5.74,2.88,10.81-5.74,5-8.63C220,32.65,218.5,25,211.62,22.46c-3.71-1.4-7.76-1.39-11.67-1.52L184,20.47c-6.44-.2-6.43,9.8,0,10Z" transform="translate(-9.55 -2.58)"/><path class="cls-1" d="M230,38.52A46.66,46.66,0,0,1,216.38,24.8c-3.48-5.38-12.14-.38-8.63,5.05A58.4,58.4,0,0,0,225,47.15c5.4,3.54,10.41-5.12,5-8.63Z" transform="translate(-9.55 -2.58)"/><path class="cls-1" d="M208.9,28.89,220,42.75c1.69,2.1,5.3,1.76,7.07,0,2.08-2.09,1.7-5,0-7.07L216,21.82c-1.7-2.1-5.31-1.76-7.08,0-2.08,2.08-1.69,5,0,7.07Z" transform="translate(-9.55 -2.58)"/><path class="cls-1" d="M226.21,43.31c6.43,0,6.44-10,0-10s-6.45,10,0,10Z" transform="translate(-9.55 -2.58)"/><path class="cls-1" d="M189.08,37.76a34,34,0,0,1,25.33,8.92c4.73,4.35,11.82-2.71,7.08-7.07a44.11,44.11,0,0,0-32.41-11.85c-6.41.3-6.45,10.3,0,10Z" transform="translate(-9.55 -2.58)"/><path class="cls-1" d="M216.21,43a58.11,58.11,0,0,0,2,28.58c1.83,5.5,9.33,4.27,9.82-1.33l1.59-18.23c.56-6.41-9.44-6.37-10,0L218,70.28,227.85,69a47.5,47.5,0,0,1-2-23.26c1.07-6.3-8.56-9-9.64-2.66Z" transform="translate(-9.55 -2.58)"/><path class="cls-1" d="M216.56,62.06a16.34,16.34,0,0,1-6.1,9.35l6.84,1.79q-1.34-3.17-5.05.63l.89,1.25c.65,2.13,1.27,1.4-.34,2.87a9.52,9.52,0,0,1-3.29,1.48,6.17,6.17,0,0,1-1.8.39c-1.25-.44-2,.34-2.27,2.32,6.3-.78,6.38-10.79,0-10-7.22.89-11.06,9.41-5.25,14.81,5.66,5.25,15.41,2.34,20.5-2.4,5.85-5.45,3.06-15.63-3.4-19.54a7.07,7.07,0,0,0-9.59,2.46c-2.28,3.56-1.14,7.44,1,10.78,1.33,2.11,4.59,3.43,6.84,1.79A27,27,0,0,0,226.2,64.72c1.63-6.23-8-8.89-9.64-2.66Z" transform="translate(-9.55 -2.58)"/><path class="cls-1" d="M201.58,76.46c-2,.31-8.06.38-9-1.74l.68,2.52,0-.64-.68,2.53.28-.6L191,80.32c-.55.05-.5.07.15.05h10c6.43,0,6.44-10,0-10-3.75,0-7.62-.29-11.36,0-4.51.38-7.77,4.25-6.17,8.77,2.63,7.44,14.19,7.94,20.56,6.93,2.67-.42,4.15-3.75,3.49-6.15-.78-2.84-3.47-3.92-6.15-3.49Z" transform="translate(-9.55 -2.58)"/><path class="cls-1" d="M179.66,82.21a8.86,8.86,0,0,0,7.75,4.19A5.31,5.31,0,0,0,191,84.93a5,5,0,0,0,1.46-3.53c-.11-2.58-2.2-5.17-5-5a5.35,5.35,0,0,1-.8,0l1.33.17a4.11,4.11,0,0,1-1-.27l1.19.5a4.19,4.19,0,0,1-.86-.52l1,.79a5.11,5.11,0,0,1-.57-.57l.79,1a3.43,3.43,0,0,1-.24-.33,5.3,5.3,0,0,0-3-2.3,5.08,5.08,0,0,0-3.85.51c-2.17,1.39-3.34,4.51-1.79,6.84Z" transform="translate(-9.55 -2.58)"/><path class="cls-1" d="M188.72,76.55c-2.14-1.74-2.7-3.65-2-6l-6.15,3.5c1.11.17.23.1-.14-.47,3.51,5.36,12.17.35,8.63-5a8.74,8.74,0,0,0-5.83-4.13c-2.75-.42-5.27.67-6.15,3.5a14.91,14.91,0,0,0,4.54,15.7c2.1,1.7,5,2,7.08,0,1.76-1.76,2.1-5.36,0-7.08Z" transform="translate(-9.55 -2.58)"/><path class="cls-1" d="M180.51,67.56,182.23,71a5.06,5.06,0,0,0,3,2.29A5,5,0,0,0,190.87,66l-1.73-3.45a5,5,0,0,0-6.84-1.79,5.13,5.13,0,0,0-1.79,6.84Z" transform="translate(-9.55 -2.58)"/><path class="cls-1" d="M174.83,43.54A51.34,51.34,0,0,1,171,67.66c-2.52,5.85,6.09,10.94,8.63,5a61.92,61.92,0,0,0,5.23-29.16c-.44-6.38-10.44-6.43-10,0Z" transform="translate(-9.55 -2.58)"/><path class="cls-1" d="M178.87,69.75A201.87,201.87,0,0,0,181,42.62c.05-6.43-9.95-6.44-10,0a182.11,182.11,0,0,1-1.76,24.47c-.9,6.29,8.74,9,9.65,2.66Z" transform="translate(-9.55 -2.58)"/><path class="cls-1" d="M251.25,22.84l-2.75,2.6L252,24l-.77,0,3.53,1.46-.73,5.06,2.76-.14,3.68-.18,8.27-.43c5.45-.27,11.65-1.32,17,.3,2.22.68,4.56,1.94,5.61,4.16,1.17,2.48-.12,4.28-1.49,6.39-2.67,4.14-4.5,8.34-2.9,13.27,1.71,5.25,9.8,4.47,9.82-1.33l0-10.51-6.33,4.82a1.52,1.52,0,0,1,1,2c-1.21,5.47,6.09,8.79,9.13,3.85,2.85-4.61-.22-10.31-5.4-11.43-1.4-.3-3.14.37-4.4,0l-1,.29a6.3,6.3,0,0,1-.27-2.36,57.1,57.1,0,0,1,1-8.54L282,34.19a16.58,16.58,0,0,1,5.54,10.16c.81,6.3,10.82,6.38,10,0A27.39,27.39,0,0,0,289,27.11c-3.43-3.22-8-.64-8.53,3.54-.64,5-2,10.48.35,15.22a9.37,9.37,0,0,0,4.47,4.55,10.4,10.4,0,0,0,4,.93l1.51-.09c2.24.25,2.63-1,1.17-3.65l9.14,3.86c1.44-6.52-1.74-12-8-14.3C290.05,36,286.84,39,286.83,42l0,10.51,9.82-1.33c-1.16-3.58,4.22-8.53,5-12.28a14.43,14.43,0,0,0-2.76-11.46c-5.78-7.89-15.59-8.42-24.56-8-5.21.25-10.42.53-15.63.8-3.75.19-8.67-.26-11.43,2.86a6.73,6.73,0,0,0,.49,9.38c3.91,3.45,7.6.27,10.59-2.55,4.7-4.43-2.38-11.49-7.07-7.08Z" transform="translate(-9.55 -2.58)"/><path class="cls-1" d="M294.75,49.29A15.64,15.64,0,0,0,279.8,44c-3.41.67-5.22,2.4-7.92,4.27s-6.2,1.14-8.92,3.24a6.87,6.87,0,0,0,2.66,12.4c3.08.72,6.79.09,9.88-.35,2.93-.42,9.48-3.19,11.06.14l1.79-6.84a29.11,29.11,0,0,1-8.63,3c-2.7.53-4.1,3.69-3.49,6.15,1.5,6.07,5.45,12.68,12.74,11.44,6.37-1.08,8-7.75,7.6-13.28-.48-6.38-10.48-6.43-10,0,.05.67.41,2.86,0,3.49.77-1.17-.41-3.14-.7-4.31l-3.49,6.15a37.86,37.86,0,0,0,11-4c2.51-1.37,2.93-4.46,1.79-6.84-2.05-4.32-6.54-6.45-11.19-6.48-2.95,0-5.82.84-8.7,1.35-1.66.29-6.53,1.14-7.53.58l2.29,3c.74,1.94-3.24,2.23.2,2.54a9.51,9.51,0,0,0,2.9-.42,14.82,14.82,0,0,0,5.24-3.35c3.15-2.68,6.49-2.89,9.28.51,4.09,5,11.12-2.14,7.07-7.07Z" transform="translate(-9.55 -2.58)"/><path class="cls-1" d="M287.55,69.86a21.88,21.88,0,0,1-1.26,11.54l9.82,1.33a10.63,10.63,0,0,1,4.5-9.46l-7.34-3a53.59,53.59,0,0,1,2.2,12c.41,6.39,10.41,6.44,10,0a64.93,64.93,0,0,0-2.56-14.64c-.87-2.91-4.59-4.86-7.35-3a20.85,20.85,0,0,0-9.45,18.09c.22,5.81,7.9,6.57,9.82,1.33a31.92,31.92,0,0,0,1.26-16.86c-.47-2.66-3.72-4.16-6.15-3.49-2.81.77-4,3.48-3.49,6.15Z" transform="translate(-9.55 -2.58)"/><path class="cls-1" d="M281.81,44.85c-6-.91-11.85.23-17.84-.29-2.45-.21-4.15-1.1-6.32-2.07a4,4,0,0,1-1.34-1.35l-3.89,1.1c-.15.4,2.08,2.36,2.3,2.56a5,5,0,0,0,8.36-4.86l-.76-3-.51,3.85c3.22-4.26,10.19-3.06,14.68-2.38,6.3.94,9-8.7,2.66-9.65s-12.87-1.81-18.88,1A15.81,15.81,0,0,0,254,34.61c-2,2.77-1.38,4.77-.58,8l8.36-4.87c-3.4-3.12-6.68-7.63-11.94-4.55-4.28,2.51-4.59,8.44-2.47,12.43,6.52,12.25,21,7.26,31.77,8.88,6.3.94,9-8.69,2.66-9.64Z" transform="translate(-9.55 -2.58)"/><path class="cls-1" d="M262.11,39.65l1.73-7.76c.57-2.54-.77-5.53-3.49-6.15-2.53-.57-5.54.76-6.15,3.49L252.47,37c-.56,2.55.77,5.53,3.49,6.15,2.54.58,5.55-.76,6.15-3.49Z" transform="translate(-9.55 -2.58)"/><path class="cls-1" d="M253.06,54.69q.12,6.42.08,12.84,0,3-.08,5.93c0,.77.39,5.57.31,5.66l3.53-1.46c-1.19.15-2.56-.8-3.84-.8a5.76,5.76,0,0,0-4.34,1.94c-4.49,4.62,2.58,11.7,7.07,7.07l.46-.48-3.54,1.47c2.31,0,3.57,1.53,6.12.37,2.83-1.29,3.8-4,4.05-6.85.74-8.46.33-17.21.18-25.69-.11-6.43-10.11-6.45-10,0Z" transform="translate(-9.55 -2.58)"/><path class="cls-1" d="M256,83.14l-1-35.34c-.18-6.42-10.18-6.45-10,0l1,35.34c.18,6.42,10.18,6.45,10,0Z" transform="translate(-9.55 -2.58)"/><path class="cls-1" d="M318.74,26.72A378.41,378.41,0,0,0,339.9,84.84c2.68,5.84,11.3.77,8.64-5a363.68,363.68,0,0,1-20.16-55.72c-1.69-6.2-11.34-3.57-9.64,2.65Z" transform="translate(-9.55 -2.58)"/><path class="cls-1" d="M370,83.14v-6a5,5,0,0,0-10,0v6a5,5,0,0,0,10,0Z" transform="translate(-9.55 -2.58)"/><path class="cls-1" d="M368.45,70.38H346c-6.43,0-6.44,10,0,10h22.42c6.43,0,6.44-10,0-10Z" transform="translate(-9.55 -2.58)"/><path class="cls-1" d="M345.52,82.89A31.48,31.48,0,0,0,362,84.41c2.67-.41,4.15-3.77,3.49-6.15-.78-2.86-3.47-3.91-6.15-3.5a21.54,21.54,0,0,1-11.16-1.51c-2.52-1-5.49,1.08-6.15,3.49-.78,2.83,1,5.17,3.49,6.15Z" transform="translate(-9.55 -2.58)"/><path class="cls-1" d="M357.77,77.36A26,26,0,0,1,341,74.17c-5.62-3.14-10.67,5.49-5.05,8.64A37.19,37.19,0,0,0,360.43,87c6.34-1,3.65-10.63-2.66-9.64Z" transform="translate(-9.55 -2.58)"/><path class="cls-1" d="M336.71,75.34c-7.61,2.29-4.14-18-3.89-21.28L323,55.39l6,23.07c1.62,6.23,11.27,3.59,9.64-2.65l-6-23.08c-1.49-5.7-9.39-4.1-9.82,1.33-.58,7.48-2.65,16.84,1.06,23.84,3,5.64,9.22,9,15.49,7.08s3.53-11.5-2.66-9.64Z" transform="translate(-9.55 -2.58)"/><path class="cls-1" d="M343.51,67.65a122.69,122.69,0,0,0,.57-18.78c-.29-6.4-9.94-6.47-10,0-.06,6.27,2.77,14,10.45,13.23a8,8,0,0,0,6.8-5.45c.84-2.54,0-5.13.6-7.63l-8.36,2.21A11.2,11.2,0,0,1,347,58.58c.34,4.71,6.74,7.1,9.32,2.52a19.25,19.25,0,0,0,2.18-12.9c-.4-2.69-3.78-4.12-6.15-3.49-2.88.76-3.89,3.49-3.5,6.15a7.89,7.89,0,0,1-1.17,5.19L357,58.58a22.09,22.09,0,0,0-6.39-14.43c-2.58-2.61-7.48-1.47-8.36,2.21a13.81,13.81,0,0,0-.44,5.75c0,.33,0,.66,0,1q-.24,2,2.43-.8c.28-.59-.21-2.74-.21-3.43h-10a122.69,122.69,0,0,1-.57,18.78c-.68,6.39,9.33,6.34,10,0Z" transform="translate(-9.55 -2.58)"/><path class="cls-1" d="M367.93,28a63.23,63.23,0,0,0-17.43-.42c-2.1.27-14.65,4-15,.25-.6-6.35-10.61-6.41-10,0,.66,7,6.21,11.52,13.17,11.64,3.87.07,7.6-1.18,11.38-1.79a49.48,49.48,0,0,1,15.22,0c6.3.94,9-8.7,2.66-9.64Z" transform="translate(-9.55 -2.58)"/><path class="cls-1" d="M327.49,30.88a180.37,180.37,0,0,0,37.5,2c6.41-.34,6.45-10.34,0-10a167.84,167.84,0,0,1-34.84-1.63c-6.29-1-9,8.65-2.66,9.64Z" transform="translate(-9.55 -2.58)"/><path class="cls-1" d="M365.37,22.14a74.83,74.83,0,0,1-22,.27c-6.37-.82-6.31,9.19,0,10A83.3,83.3,0,0,0,368,31.78c6.33-1.06,3.64-10.7-2.66-9.64Z" transform="translate(-9.55 -2.58)"/><path class="cls-1" d="M339.48,28.78A132.93,132.93,0,0,0,365,30.35c6.41-.25,6.44-10.25,0-10a119.74,119.74,0,0,1-22.86-1.21c-6.29-1-9,8.66-2.66,9.64Z" transform="translate(-9.55 -2.58)"/><path class="cls-1" d="M368.45,29.52c6.43,0,6.44-10,0-10s-6.45,10,0,10Z" transform="translate(-9.55 -2.58)"/><path class="cls-1" d="M315.75,33.77c2.72,8.66,2,17.54,1.86,26.48a82.1,82.1,0,0,0,.63,12.24c.23,1.69,3.2,9.81,2,11.08-4.32,4.75,2.73,11.85,7.07,7.07,3-3.26,3.43-6.92,2.62-11.15-1-5.34-2.29-10.21-2.37-15.71-.16-11,1.15-22-2.21-32.67-1.92-6.12-11.58-3.5-9.64,2.66Z" transform="translate(-9.55 -2.58)"/><path class="cls-1" d="M319.08,81.38a10.82,10.82,0,0,0,17.77,7.25c2.09-1.71,1.78-5.29,0-7.07-2.07-2.07-5-1.71-7.07,0,.43-.31.49-.38.19-.2s-.23.13.29-.12c-.59,0-.21,0,.16,0-.35,0-1.34-.21-.26.07-.13,0-1.22-.35-.56-.11s-.45-.27-.49-.29c.55.29.34.25-.08-.11s.59.61,0-.08l.18.48c-.15-.56-.17-.51-.08.15-.32-2.68-2.06-5-5-5-2.45,0-5.32,2.3-5,5Z" transform="translate(-9.55 -2.58)"/><path class="cls-1" d="M335.68,90.41a34.5,34.5,0,0,0,13.87-3.57c2.42-1.18,3.08-4.63,1.79-6.84a5.11,5.11,0,0,0-6.84-1.79,22.29,22.29,0,0,1-8.82,2.2c-6.41.27-6.44,10.27,0,10Z" transform="translate(-9.55 -2.58)"/><path class="cls-1" d="M421.74,30.66c-.59,9.57,10,11.43,16.88,8.37,1.82-.8,3.82-2.36,5.84-2.56,2.4-.24,5.08,1.5,7.12,2.58a76,76,0,0,1,12.79,8.5l1-7.85,2.7.5-5.65,7.34,5.24,1.89c2.5.9,5.53-1,6.15-3.49,2.83-11.34-5.56-19-14.15-24.67-5.39-3.56-10.4,5.1-5.05,8.63,4.44,2.94,11.12,7.09,9.55,13.38l6.15-3.49-5.23-1.89c-4.23-1.53-7.71,3.78-5.64,7.34,2.42,4.19,6.78,5.07,11,3.1,2.75-1.29,3.37-5.91,1-7.86a80.67,80.67,0,0,0-19.37-12.27c-3.29-1.4-6.69-2.24-10.27-1.39-1.19.29-10.05,3.73-10.06,3.84.4-6.43-9.6-6.4-10,0Z" transform="translate(-9.55 -2.58)"/><path class="cls-1" d="M454.66,20.5l-21.54,1c-6.41.3-6.45,10.3,0,10l21.54-1c6.41-.3,6.45-10.3,0-10Z" transform="translate(-9.55 -2.58)"/><path class="cls-1" d="M431.38,31.24c6.43,0,6.44-10,0-10s-6.45,10,0,10Z" transform="translate(-9.55 -2.58)"/><path class="cls-1" d="M433.1,29.52c6.44,0,6.45-10,0-10s-6.44,10,0,10Z" transform="translate(-9.55 -2.58)"/><path class="cls-1" d="M415.13,37.47l2.22,20.39c.62,5.69,7.7,6.68,9.82,1.33a44.82,44.82,0,0,0,3.11-18.29c-.24-6.41-10.24-6.45-10,0a37.51,37.51,0,0,1-2.75,15.63l9.82,1.33-2.22-20.39c-.69-6.33-10.7-6.4-10,0Z" transform="translate(-9.55 -2.58)"/><path class="cls-1" d="M419.35,40.9a72.39,72.39,0,0,1-1.75,15.17c-1.42,6.27,8.22,8.94,9.64,2.66a84.26,84.26,0,0,0,2.11-17.83c.07-6.44-9.93-6.45-10,0Z" transform="translate(-9.55 -2.58)"/><path class="cls-1" d="M413.47,51.24l-.05,12.95c0,3.39-.55,7.34,1.09,10.49,1.31,2.49,3.83,3.94,6.11,5.42,3.45,2.24,6.93,4.45,10.39,6.67s7.11-.81,7.53-4.31c1.13-9.56.55-19.38-8.23-25.1-2.82-1.84-6.4.06-7.34,3a18.21,18.21,0,0,0,.14,12.06c2.14,6,11.8,3.43,9.64-2.66a9.38,9.38,0,0,1-.14-6.74l-7.35,3c5.29,3.45,3.91,11.18,3.28,16.47l7.52-4.32-6.68-4.29c-1.89-1.21-5.14-2.51-6-4.69-.75-2,0-5.82,0-8l0-10c0-6.43-10-6.44-10,0Z" transform="translate(-9.55 -2.58)"/><path class="cls-1" d="M439.14,83.05c4.5.32,8,2.77,12.49.42a7.85,7.85,0,0,0,3.86-9.75A8.94,8.94,0,0,0,445,68.33c-4.26,1-7,4.88-8.19,8.88S435,86.47,438.91,89c3.26,2.09,8.76.83,12.28.23,8.92-1.52,17.57-8.23,16.75-18.09-.53-6.37-10.54-6.43-10,0,.32,3.85-2.22,6.34-5.68,7.57-2.43.87-7.12,2.07-9.49,1.16l3,2.29c.49.94.45-1.27.51-1.52.49-2.1,1.7-4.78-.46-6.22-1.67-1.12-4.74-1.22-6.66-1.36-6.42-.45-6.39,9.56,0,10Z" transform="translate(-9.55 -2.58)"/><path class="cls-1" d="M449.71,70.66c2.37,7.44,13.86,8.59,19.16,3.67a10.2,10.2,0,0,0,3-9.72,7.64,7.64,0,0,0-3.08-4.53c-1.75-1-4.39-.79-6.37-.91a5,5,0,0,0,0,10l3.84.23-4.32-2.48c.7.94,0,.16.19,0,.34-.31.11.09-.46.26a4.24,4.24,0,0,1-1.59,0c-1.78-.22-1.29-1-.72.76-2-6.11-11.61-3.5-9.64,2.66Z" transform="translate(-9.55 -2.58)"/><path class="cls-1" d="M464.67,63.71c.18.55.33,1.08.47,1.64.35,1.37.05-.52.16.9a16,16,0,0,1,0,1.7c0,.14-.16,1.58,0,.92-.41,2.57.66,5.5,3.49,6.15,2.4.54,5.71-.73,6.15-3.5a21.81,21.81,0,0,0-.62-10.46c-.81-2.48-3.49-4.36-6.15-3.5-2.48.81-4.36,3.49-3.49,6.15Z" transform="translate(-9.55 -2.58)"/><path class="cls-1" d="M496.33,77.57c5.51,1.17,7.91,5.27,12.66,7.53s10.87,1.4,15.84,1.52c4.72.12,10.25,1.07,14.53-1.43a27.5,27.5,0,0,0,9.24-9c2.34-3.92,2.34-8.38,2.51-12.81.21-5.72.75-11.54.57-17.27-.35-11.13-8-16.94-15.53-24.1-4.65-4.45-11.74,2.61-7.08,7.07,2.81,2.69,5.67,5.32,8.41,8.06,3.31,3.31,4.23,6,4.19,10.72,0,4.26-.3,8.52-.46,12.77-.12,3.31.45,7.55-1.24,10.51-1.32,2.3-4.21,5-6.84,5.66-3.83.89-9.29-.21-13.26-.31-1.79,0-4.3.33-6-.23-1.94-.63-3.53-2.88-5.15-4.07A24.63,24.63,0,0,0,499,67.93c-6.27-1.34-9,8.3-2.66,9.64Z" transform="translate(-9.55 -2.58)"/><path class="cls-1" d="M540,37.39l2.59,3.44a5.41,5.41,0,0,0,3,2.3,5.12,5.12,0,0,0,3.85-.5,5.06,5.06,0,0,0,2.3-3,4.84,4.84,0,0,0-.51-3.85l-2.58-3.45a5.45,5.45,0,0,0-3-2.3,5.12,5.12,0,0,0-3.85.5,5.06,5.06,0,0,0-2.3,3,4.87,4.87,0,0,0,.5,3.86Z" transform="translate(-9.55 -2.58)"/><path class="cls-1" d="M536.32,44.73c1.59,8.08,3.78,19.61-5,24.41l6.84,1.79v-.71c.76-6.37-9.25-6.32-10,0A8.73,8.73,0,0,0,529.52,76a5.1,5.1,0,0,0,6.84,1.79c13.25-7.22,12.1-23,9.6-35.7-1.24-6.31-10.88-3.64-9.64,2.66Z" transform="translate(-9.55 -2.58)"/><path class="cls-1" d="M526.22,71a13.61,13.61,0,0,1-18.33-5.6l-4.32,7.53h.07c5,4,12.08-3,7.07-7.07a12,12,0,0,0-7.14-2.93c-4-.38-6,4.47-4.32,7.52,6.17,11.33,20.81,15.33,32,9.18,5.64-3.09.6-11.73-5-8.63Z" transform="translate(-9.55 -2.58)"/><path class="cls-1" d="M505.43,85l1.72,1.72a5.17,5.17,0,0,0,3.54,1.47,3.88,3.88,0,0,0,1.93-.43,3.77,3.77,0,0,0,1.61-1,5,5,0,0,0,1.46-3.53,5.25,5.25,0,0,0-1.46-3.54l-1.73-1.72A5.15,5.15,0,0,0,509,76.41a3.85,3.85,0,0,0-1.93.43,3.8,3.8,0,0,0-1.61,1A5,5,0,0,0,504,81.41,5.16,5.16,0,0,0,505.43,85Z" transform="translate(-9.55 -2.58)"/><path class="cls-1" d="M511.38,66.76V37.45c0-6.44-10-6.45-10,0V66.76c0,6.43,10,6.44,10,0Z" transform="translate(-9.55 -2.58)"/><path class="cls-1" d="M496.9,32.56a73.06,73.06,0,0,0-3.09,29c.6,6.35,10.61,6.41,10,0a65.72,65.72,0,0,1,2.73-26.36c1.94-6.15-7.71-8.78-9.64-2.65Z" transform="translate(-9.55 -2.58)"/><path class="cls-1" d="M501,69.34V39.17c0-6.43-10-6.44-10,0V69.34c0,6.44,10,6.45,10,0Z" transform="translate(-9.55 -2.58)"/><path class="cls-1" d="M498.14,42c6.5-2.41,13.15-5,19.93-6.5,5.61-1.26,12.22-1.27,15,4.61l1.79-6.84,1.63-.12c-5.1-3.91-10.08,4.77-5,8.64a7.22,7.22,0,0,0,8.47.11A5.16,5.16,0,0,0,541.73,35c-8.59-18-32.86-7.67-46.25-2.7-6,2.22-3.39,11.88,2.66,9.64Z" transform="translate(-9.55 -2.58)"/><path class="cls-1" d="M509,30.38h19.82c6.44,0,6.45-10,0-10H509c-6.44,0-6.45,10,0,10Z" transform="translate(-9.55 -2.58)"/><path class="cls-1" d="M545.78,68.12l2.65-6.87c.94-2.44-1-5.59-3.5-6.15a5.14,5.14,0,0,0-6.15,3.49l-2.65,6.88c-.94,2.44,1,5.59,3.5,6.15a5.15,5.15,0,0,0,6.15-3.5Z" transform="translate(-9.55 -2.58)"/><path class="cls-1" d="M570.64,30.22c9.34,7.3,3.69,21.28,3.81,31.12.13,11,5.74,18.92,17,19.88a37.71,37.71,0,0,0,15.25-2.17,58,58,0,0,0,7.89-3.62c1.3-.68,3-.68,2.31-2.29s-1.43.32-2.69,1.13c-4.5,2.87-10.94,2.26-16,2.24l-10.9,0c-3,0-6.93.66-9.6-1-5.5-3.37-10.53,5.28-5.05,8.63,6.15,3.76,14.69,2.34,21.58,2.37s14.47.6,21.12-1.82c5.27-1.91,11.06-6.15,11.14-12.34.08-6-5.67-9.38-11.11-8.07-3.19.77-5.79,2.71-8.72,4.08a32.44,32.44,0,0,1-10.08,2.82c-2.9.32-6.61.45-9.14-1.24-3.23-2.14-3.11-7-3-10.42.44-12.39,4.79-27.32-6.77-36.36-5-3.91-12.14,3.12-7.07,7.07Z" transform="translate(-9.55 -2.58)"/><path class="cls-1" d="M624.9,77.47c10.84-4,8.14-19.17,8.24-28.27.05-5-.25-10.11-4-13.8-3.52-3.44-9.73-3.81-11.64-8.77-2.29-5.94-12-3.36-9.65,2.66a18.65,18.65,0,0,0,6.1,8.62c2.44,1.85,6.86,2.65,8.51,5.22,2,3,.65,9.39.61,12.83,0,1.34.85,11.26-.8,11.87-6,2.19-3.41,11.85,2.65,9.64Z" transform="translate(-9.55 -2.58)"/><path class="cls-1" d="M607.62,25.84a34,34,0,0,0,7.29,11.7c4.46,4.66,11.52-2.42,7.07-7.07a22.4,22.4,0,0,1-4.72-7.29c-1-2.53-3.37-4.26-6.15-3.49-2.41.66-4.45,3.61-3.49,6.15Z" transform="translate(-9.55 -2.58)"/><path class="cls-1" d="M616.81,33.91l-3.45-3.45a5,5,0,0,0-7.07,7.08L609.74,41a5,5,0,0,0,7.07-7.07Z" transform="translate(-9.55 -2.58)"/><path class="cls-1" d="M610.08,45.27c5.7,2.3,6.12,8.62,2.91,13.12l8.64,5a20.83,20.83,0,0,0,1.85-15.8c-1.58-5.85-9.16-3.94-9.82,1.33a22.85,22.85,0,0,0,7.69,20c4.81,4.24,11.91-2.81,7.07-7.07A13.77,13.77,0,0,1,623.66,49l-9.82,1.33a10.33,10.33,0,0,1-.85,8.09c-3.06,5.77,5,10.24,8.64,5C629,53.09,624,40.17,612.74,35.63c-6-2.42-8.56,7.25-2.66,9.64Z" transform="translate(-9.55 -2.58)"/><path class="cls-1" d="M567.19,31.88c3.07,15.39,6.06,31.22,1.85,46.69-1.69,6.22,8,8.87,9.65,2.66,4.69-17.25,1.57-34.84-1.86-52-1.25-6.31-10.89-3.64-9.64,2.66Z" transform="translate(-9.55 -2.58)"/><path class="cls-1" d="M578.37,85.72l1.2-47.41c.16-6.43-9.84-6.43-10,0l-1.2,47.41c-.17,6.44,9.83,6.43,10,0Z" transform="translate(-9.55 -2.58)"/><path class="cls-1" d="M568.42,24.75c1.27,6.69,9.28,6.3,14.5,6.67l25.15,1.76c6.42.45,6.39-9.56,0-10L591.63,22l-7.74-.54L580,21.22c-.6,0-1.2-.09-1.81-.12-1.14-.3-1.19,0-.15,1-1.2-6.32-10.84-3.65-9.64,2.65Z" transform="translate(-9.55 -2.58)"/><path class="cls-1" d="M578.75,37.55A79.31,79.31,0,0,0,606,36.33c6.28-1.35,3.62-11-2.66-9.64a71.6,71.6,0,0,1-24.6.86c-6.36-.84-6.3,9.17,0,10Z" transform="translate(-9.55 -2.58)"/><path class="cls-1" d="M610.72,19.94A63.5,63.5,0,0,0,593,21.33c-6.29,1.36-3.63,11,2.66,9.64a53.93,53.93,0,0,1,15.1-1c6.43.43,6.4-9.58,0-10Z" transform="translate(-9.55 -2.58)"/><path class="cls-1" d="M648.63,30.41l29-.06h7.74c1.66,0,6.34.81,7.73,0q3.49.69-1.72-4.65a15.24,15.24,0,0,1-2.91.55,51,51,0,0,1-6.65.31c-9.46,0-19.6-1.27-29-.18-6.28.73-10.23,6.92-6.83,12.77,1.2,2.06,3.9,4.2,6.45,4,1.9.28,1.8-.25-.32-1.6a12,12,0,0,0,.22,2.53,11.74,11.74,0,0,0,1.8,4.5c4.33,6.48,12.3,6.43,19.2,6,1.81-.12,3.68.08,5.46-.07,1,.84,1.74.72,2.15-.35a9.36,9.36,0,0,1-2.74.28c-4.32.1-5.76-3.64-9.67-4.77-6.11-1.77-11.78,1.85-14,7.46l8.36-2.21A15.94,15.94,0,0,1,657.47,41c.51-6.42-9.49-6.39-10,0a25.35,25.35,0,0,0,8.36,20.95c3,2.71,7,1.32,8.35-2.2.74-1.86,5.83,3.17,7.06,3.65a20.77,20.77,0,0,0,11,.65c7.62-1.59,11.28-10.25,5.25-16.12-2.81-2.73-6.85-3.49-10.62-3.57-4-.08-9.42,1.88-13.08-.28-2.84-1.67-1.42-5.75-3.5-8.33a6.69,6.69,0,0,0-4-2.47,8.06,8.06,0,0,0-2.59-.15,2.16,2.16,0,0,1,.67,3.22c1.08.84,6.44.06,7.88.07l7.87.07c5.11,0,10.25.28,15.35,0,5.83-.29,19.41-2.11,16-11.27-2.82-7.56-15.87-4.87-21.92-4.86l-30.93.06c-6.44,0-6.45,10,0,10Z" transform="translate(-9.55 -2.58)"/><path class="cls-1" d="M646.55,40.08a78.62,78.62,0,0,0,2.57,32.1,5.06,5.06,0,0,0,8.36,2.2,46.51,46.51,0,0,0,9.81-13c2.92-5.72-5.7-10.79-8.63-5a38.55,38.55,0,0,1-8.25,11l8.36,2.21a71.43,71.43,0,0,1-2.22-29.44c.82-6.36-9.19-6.3-10,0Z" transform="translate(-9.55 -2.58)"/><path class="cls-1" d="M647.39,70.65l2.15,11.4,1.28-4.87.2.08,4.32,2.47c.9,2.07.15,2.11,2.72,2l4.76-.11,8.58-.21c5.75-.14,12.45.64,18.09-.43.49-.09,4.29-.77,3.35-2.15a30.69,30.69,0,0,1-3.3.24c-2.89,0-5.79,0-8.68,0l-19.31-.11c-6.43,0-6.44,10,0,10l17.38.1c5.16,0,10.9.81,16-.41,8.83-2.14,9.89-13.5,1.15-16.79-4.83-1.82-11-.72-16.07-.6l-17.15.41c-4.44.1-9.9-.53-13.7,2.26s-4.13,6.9-2.41,10.87A4.81,4.81,0,0,0,651,87.26c3.24-.35,7.17-1.62,8.16-5.21,1.08-3.92-1.41-10.13-2.15-14.06-1.19-6.32-10.83-3.64-9.64,2.66Z" transform="translate(-9.55 -2.58)"/><path class="cls-1" d="M771.08,87.42c-1.14.65-1.67.37-2.53-.55-3.25-3.52-10.15.13-8.35,4.86A14,14,0,0,0,765.8,99c2.93,2.06,6.22-.27,7.34-3a125,125,0,0,1,9.41-18.12l-4.32,2.48.73,0-3.54-1.46c-1.46-1.62-1-3.05-1.39-.36a7.67,7.67,0,0,0,.15,3.09,8.53,8.53,0,0,0,3.64,4.7c3.84,2.41,8.58,1.41,11.87-1.43,2.94-2.54,6-6.6,5.91-10.67A7.25,7.25,0,0,0,793,68.77a8.39,8.39,0,0,0-2.8-1.52c-1.79-.56-2.73-1.12-2.1,1.11l-4.82,6.33a63.49,63.49,0,0,1,10.13-.3c6.43.34,6.42-9.66,0-10a63.49,63.49,0,0,0-10.13.3c-3.15.35-5.78,2.92-4.82,6.33A7.17,7.17,0,0,0,782.67,76c.29.13,3.22,1.27,3.54.85-.18-2.31-.58-2.85-1.22-1.6a9.28,9.28,0,0,1-1.34,1.66c-.61,2.27,1,3.06,1-.07a7.41,7.41,0,0,0-.85-3.36,6.3,6.3,0,0,0-5.6-3.11,5,5,0,0,0-4.32,2.47A140.56,140.56,0,0,0,763.5,93.31l7.34-3-1-1.25-8.36,4.87a11.67,11.67,0,0,0,14.65,2.11c5.59-3.17.56-11.81-5-8.63Z" transform="translate(-9.55 -2.58)"/><path class="cls-1" d="M772.91,82.21q2.4-18.25,5.63-36.37H768.9l2.61,15.39c.79,4.71,9,4.84,9.64,0q.84-6,1.69-12.07c.88-6.29-8.76-9-9.65-2.66l-1.68,12.07h9.64l-2.61-15.39c-.81-4.79-8.8-4.76-9.64,0q-3.45,19.44-6,39c-.83,6.36,9.18,6.3,10,0Z" transform="translate(-9.55 -2.58)"/><path class="cls-1" d="M797.35,34.23a39.27,39.27,0,0,0-10.6-14.11c-4.23-3.51-10.27-5.73-12.62-11-2.64-5.86-11.26-.78-8.64,5,2.33,5.17,7,8.07,11.52,11.09a32.07,32.07,0,0,1,11.7,14c2.65,5.85,11.27.78,8.64-5.05Z" transform="translate(-9.55 -2.58)"/><path class="cls-1" d="M763,10.34C761,17,761.32,25.51,766.23,31a18.33,18.33,0,0,0,7.18,4.61c2.58,1,6.1,1.42,7.4,4.12,2.43,5,11.32,1.4,9.14-3.86-3.17-7.63-7.14-15.37-15.73-17.68-6.22-1.67-8.87,8-2.66,9.64,4.78,1.29,7,6.5,8.75,10.7l9.14-3.85c-2.21-4.56-6.61-6.24-11.09-7.87-6.32-2.31-7.59-7.41-5.77-13.77,1.78-6.19-7.86-8.84-9.64-2.66Z" transform="translate(-9.55 -2.58)"/><path class="cls-1" d="M753.79,24.89c.22-1,3.06,1.44,3.17.31l-5,5c4.12.08,5.69,3,6.68,6.48.72,2.53,2.09,4.73,4.71,5.61a6.3,6.3,0,0,0,6.93-1.72c1.67-2.12,2.06-5,0-7.07-1.74-1.74-5.39-2.14-7.07,0l-.35.44,2.2-1.29H766l2.21,1.29c.22.72.21.63,0-.28-.09-.53-.2-1-.34-1.56a16.89,16.89,0,0,0-1.09-2.73,15.92,15.92,0,0,0-3.45-4.61A17.09,17.09,0,0,0,752,20.2c-2.89-.07-4.75,2.35-5,5a8.33,8.33,0,0,0,16.48,2.35c1.34-6.28-8.3-9-9.65-2.66Z" transform="translate(-9.55 -2.58)"/><path class="cls-1" d="M765.86,21.24c-.23,0-.47,0-.7,0-.56-.05-.46,0,.29.05-.06.08-.94-.25-1-.26-1-.27.81.51-.09,0-.4-.25-.8-.48-1.17-.76L765,27.06c.1-.19.63-.83.1-.29s.15-.13.22-.21c.47-.51-.07.18-.29.19a5.55,5.55,0,0,0,.82-.45c2.37-1.14,3.18-4.7,1.8-6.84a5.15,5.15,0,0,0-6.85-1.8A10.22,10.22,0,0,0,756.33,22a5.17,5.17,0,0,0-.5,3.85,5.87,5.87,0,0,0,2.3,3,13,13,0,0,0,7.73,2.38,5,5,0,0,0,0-10Z" transform="translate(-9.55 -2.58)"/><path class="cls-1" d="M775.34,19.17c6.44,0,6.45-10,0-10s-6.44,10,0,10Z" transform="translate(-9.55 -2.58)"/><path class="cls-1" d="M749,26.43l-4.3.9a5,5,0,0,0-3.49,6.15A5.11,5.11,0,0,0,747.34,37l4.3-.9a5,5,0,0,0,3.49-6.15A5.11,5.11,0,0,0,749,26.43Z" transform="translate(-9.55 -2.58)"/><path class="cls-1" d="M741.38,32.57c.61,7.54,2.57,16,11,18.22,8,2.07,13.52-4.73,13.34-12.23-.08-3.5-.93-7.24-4.06-9.24a7.08,7.08,0,0,0-9.33,1.35c-2.31,2.89-2.13,7.92-2,11.41a43.89,43.89,0,0,0,2.76,14c2.21,6,11.88,3.4,9.64-2.65a37,37,0,0,1-2.27-9.08,35.14,35.14,0,0,1-.13-4.59c0-1.08.12-2.16.25-3.24q-5.34-1.59-4.86,1.43c-.64,1.48.9,4.43-1.88,2.59-2.19-1.45-2.22-5.73-2.41-8-.51-6.37-10.51-6.43-10,0Z" transform="translate(-9.55 -2.58)"/><path class="cls-1" d="M759.1,51.11A53,53,0,0,1,763,64.4l8.36-4.87-2.66-2.44c-4.74-4.35-11.83,2.71-7.08,7.07l2.67,2.44c3.89,3.58,9.14,0,8.35-4.86a62.39,62.39,0,0,0-4.85-15.68c-1.11-2.46-4.69-3.05-6.84-1.79-2.54,1.48-2.91,4.37-1.8,6.84Z" transform="translate(-9.55 -2.58)"/><path class="cls-1" d="M748.62,51.07c6.44,0,6.45-10,0-10s-6.44,10,0,10Z" transform="translate(-9.55 -2.58)"/><path class="cls-1" d="M750.09,49.53c-.14,7.31-.42,14.63-.42,21.94,0,5,1.21,9.07,6.76,9.69,6.39.71,6.34-9.29,0-10l-.79-.09,3.53,1.47c.6,1.55.77,1.2.5-1.07l0-2,.13-7,.25-13c.12-6.43-9.88-6.43-10,0Z" transform="translate(-9.55 -2.58)"/><path class="cls-1" d="M755.62,69a103.44,103.44,0,0,1,.91,13.63l6.33-4.83-7.56-2.55c-6.12-2.06-8.74,7.59-2.66,9.64l7.56,2.56c3.1,1,6.35-1.72,6.33-4.82a123.31,123.31,0,0,0-1.27-16.29c-.37-2.68-3.79-4.14-6.15-3.49-2.88.79-3.87,3.46-3.49,6.15Z" transform="translate(-9.55 -2.58)"/><path class="cls-1" d="M753.85,75.33a10.58,10.58,0,0,1-2.93-11.53c2-6.12-7.63-8.75-9.64-2.66a20.48,20.48,0,0,0,5.5,21.26c4.71,4.38,11.79-2.68,7.07-7.07Z" transform="translate(-9.55 -2.58)"/><path class="cls-1" d="M748.79,78c.57,4.39,2.7,8.31,6.73,10.46,2.31,1.23,5.55.66,6.84-1.79a5.07,5.07,0,0,0-1.79-6.84l-.62-.35c-.92-.51.42.46,0,0-.16-.17-.35-.32-.51-.49a2.84,2.84,0,0,1-.24-.26c-.24-.28-.16-.18.24.31,0,0-.65-1.2-.7-1.23.29.15.33.93.08,0-.08-.3-.22-1.18-.06.12-.33-2.59-2.06-5.14-5-5-2.42.1-5.36,2.22-5,5Z" transform="translate(-9.55 -2.58)"/><path class="cls-1" d="M773.62,100.21c6.44,0,6.45-10,0-10s-6.44,10,0,10Z" transform="translate(-9.55 -2.58)"/><path class="cls-1" d="M781.38,62.28c6.43,0,6.44-10,0-10s-6.45,10,0,10Z" transform="translate(-9.55 -2.58)"/><path class="cls-1" d="M793.45,36.41c6.43,0,6.44-10,0-10s-6.45,10,0,10Z" transform="translate(-9.55 -2.58)"/><path class="cls-1" d="M886.18,46.68c2.27-.34,4,.5,5.83,1.76,2.91,2,6.25-.25,7.34-3,3.77-9.46-5-16.89-12-21.75a21.6,21.6,0,0,0-12-4.29c-5.84-.11-10.94,1.91-16.86.51-6.26-1.49-8.93,8.15-2.66,9.64A34.39,34.39,0,0,0,866,30.61c3.46-.21,7.1-1.69,10.55-1.15,4.57.72,15.27,8.14,13.2,13.33l7.34-3c-4.15-2.91-8.61-3.52-13.53-2.77-6.34,1-3.65,10.61,2.66,9.64Z" transform="translate(-9.55 -2.58)"/><path class="cls-1" d="M849.82,31.53c3.08,4.55,7.55,6.32,12.94,6.55,3.79.15,12.38-2.61,14.73,1.47,3.21,5.58,11.85.55,8.63-5-2.71-4.7-7.42-6.6-12.68-6.93-3.6-.23-12.54,2.53-15-1.09-3.59-5.3-12.26-.3-8.64,5.05Z" transform="translate(-9.55 -2.58)"/><path class="cls-1" d="M890,40.72c6.43,0,6.45-10,0-10s-6.45,10,0,10Z" transform="translate(-9.55 -2.58)"/><path class="cls-1" d="M849.23,25.29a23.49,23.49,0,0,1-9.82,8.43c-4.14,2-2.56,7.88,1.19,9.14a30.21,30.21,0,0,0,14.5,1c2.67-.42,4.15-3.75,3.49-6.15-.78-2.84-3.47-3.91-6.15-3.49a19.24,19.24,0,0,1-9.18-1l1.2,9.14a32.93,32.93,0,0,0,13.4-12c3.5-5.42-5.15-10.44-8.63-5Z" transform="translate(-9.55 -2.58)"/><path class="cls-1" d="M847.27,38a28.13,28.13,0,0,0-2.85,26.34c2.4,5.88,12.08,3.31,9.64-2.65a18.92,18.92,0,0,1,1.84-18.64c3.63-5.34-5-10.35-8.63-5Z" transform="translate(-9.55 -2.58)"/><path class="cls-1" d="M838.9,47.33a98.89,98.89,0,0,1,2.82,19.44c.28,6.4,10.29,6.44,10,0a112.83,112.83,0,0,0-3.18-22.1c-1.54-6.24-11.19-3.6-9.64,2.66Z" transform="translate(-9.55 -2.58)"/><path class="cls-1" d="M858.1,39c6.44,0,6.45-10,0-10s-6.44,10,0,10Z" transform="translate(-9.55 -2.58)"/><path class="cls-1" d="M852.29,34.48l1.06,7.74c.35,2.6,3.82,4.24,6.15,3.49,2.86-.93,3.87-3.36,3.49-6.15l-1.06-7.73c-.35-2.61-3.81-4.25-6.15-3.5-2.85.93-3.87,3.37-3.49,6.15Z" transform="translate(-9.55 -2.58)"/><path class="cls-1" d="M892.49,59.67a8.41,8.41,0,0,1-1.43.9c.78-.37,0,0-.41,0-1.17.32.84.05-.36,0q-.88-.06.06.06a5.9,5.9,0,0,1-.83-.2,5,5,0,0,0-2.66,9.65,12.48,12.48,0,0,0,10.68-1.84c2.07-1.58,3.38-4.38,1.8-6.84-1.32-2.05-4.62-3.49-6.85-1.79Z" transform="translate(-9.55 -2.58)"/><path class="cls-1" d="M884.94,59.36c-2.89,5.77-1.19,12.71,4.62,15.89V66.61a44.18,44.18,0,0,0-12.76,9.82c-3.38,4-1.92,10.48,3.9,10.83,4.57.29,7.82-3.72,8.91-7.75,1.33-4.92-.18-9.73-3.36-13.55-4.13-4.95-11.17,2.16-7.07,7.07a4.21,4.21,0,0,1,.91,2.59,3.26,3.26,0,0,1-.12,1.24c-.93,1.85.45,2.53,4.16,2l.5,3.86c-.57.46-.56.41,0-.15s.92-.93,1.4-1.37c.79-.75,1.62-1.46,2.48-2.13a42.51,42.51,0,0,1,6.06-3.85,5,5,0,0,0,0-8.64c-.83-.45-1.52-1.24-1-2.2,2.88-5.74-5.75-10.81-8.63-5Z" transform="translate(-9.55 -2.58)"/><path class="cls-1" d="M875.58,77c1.26-.17-.26,0-.53,0s-1.49,0-.76,0c.39.06.35,0-.13-.06.53.28.58.3.15.07l.48.37c-.36-.4-.31-.32.17.22.23.66.29.81.19.45s-.08-.21.07.55a2.93,2.93,0,0,1-1.33,2.52c-.71.26-.79.32-.26.17l-.65.09c.06-.13,1.25,0,1.4,0a5,5,0,0,0,5-5,5.11,5.11,0,0,0-5-5,9.32,9.32,0,0,0-6.83,2.07,7.26,7.26,0,0,0-2,7.42,8.52,8.52,0,0,0,5.57,5.6c2.36.78,4.72.44,7.12.11,2.6-.36,4.24-3.81,3.49-6.15-.93-2.85-3.36-3.88-6.15-3.49Z" transform="translate(-9.55 -2.58)"/><path class="cls-1" d="M867.5,78l-8.77-4.91a5,5,0,1,0-5,8.63l8.76,4.91a5,5,0,1,0,5-8.63Z" transform="translate(-9.55 -2.58)"/><path class="cls-1" d="M840.62,60.6C838,64.12,839,69,841.56,72.21a17.32,17.32,0,0,0,5.05,3.94A17.61,17.61,0,0,1,849,77.52c1.19,1,.48,1.16,1.42.08-4.2,4.84,2.85,11.94,7.07,7.07a9.55,9.55,0,0,0,.39-12.31,16,16,0,0,0-5.23-4.3c-.92-.54-3.8-1.87-3.39-2.41,1.63-2.18.33-5.57-1.8-6.85-2.54-1.52-5.22-.35-6.84,1.8Z" transform="translate(-9.55 -2.58)"/><path class="cls-1" d="M850.34,83c6.44,0,6.45-10,0-10s-6.44,10,0,10Z" transform="translate(-9.55 -2.58)"/><path class="cls-1" d="M859.83,88.14c6.43,0,6.44-10,0-10s-6.45,10,0,10Z" transform="translate(-9.55 -2.58)"/><path class="cls-1" d="M853,74.49a37.3,37.3,0,0,0,17.19,6.37c2.69.33,5-2.54,5-5,0-3-2.3-4.67-5-5a27,27,0,0,1-12.14-5c-2.21-1.56-5.56-.4-6.85,1.79-1.46,2.5-.42,5.28,1.8,6.84Z" transform="translate(-9.55 -2.58)"/><path class="cls-1" d="M886.5,78.6c.16-1,.26-.22-.27,0,.15-.07.44-.3.61-.31.86,0,1.8-.25,2.7-.32,2.83-.19,5.7-.57,8-2.35,2.13-1.65,3.28-4.3,1.79-6.84-1.22-2.1-4.69-3.45-6.84-1.79s-5.88.89-8.6,1.77c-3.33,1.08-6.45,3.52-7,7.16-.43,2.66.7,5.38,3.5,6.15,2.38.66,5.71-.81,6.15-3.49Z" transform="translate(-9.55 -2.58)"/><path class="cls-1" d="M889.81,68.29a24,24,0,0,0-5.42,8.37c-1,2.43,1.07,5.6,3.49,6.15,2.9.67,5.1-.88,6.15-3.49-.45,1.12.26-.49.37-.69a15.77,15.77,0,0,1,.86-1.42c.15-.23.31-.46.48-.68-.36.46-.36.47,0,0s.74-.82,1.14-1.21a5,5,0,1,0-7.07-7.07Z" transform="translate(-9.55 -2.58)"/><path class="cls-1" d="M921.46,74.77a10.23,10.23,0,0,1,7.72,5l7.85-6a10.59,10.59,0,0,0-11.47-2.85l5.64,7.35,4.71-7c1.51-2.25.44-5.54-1.79-6.84a5.09,5.09,0,0,0-6.84,1.79l-4.71,7c-2.29,3.42,1.58,9,5.64,7.35a6,6,0,0,1,1.06-.36c-.22,0-.71-.13-.15,0s.4.1.84.6c3.81,4.29,10.69-1.23,7.85-6.06a19.66,19.66,0,0,0-13.69-9.57c-2.66-.41-5.37.68-6.15,3.49-.65,2.37.81,5.74,3.49,6.15Z" transform="translate(-9.55 -2.58)"/><path class="cls-1" d="M932.23,81.45l4,5.11,2.21-8.36c1.38-.23.31-.06,0-.06l-.5,0c-.39,0-.23,0,.49.07a6.78,6.78,0,0,1-1-.27l.56.25a5.71,5.71,0,0,1-.6-.31,5,5,0,1,0-5,8.64,13,13,0,0,0,8.75,1.34,4.92,4.92,0,0,0,3.49-3.49,5.26,5.26,0,0,0-1.29-4.87l-4-5.11a5,5,0,0,0-8.54,3.54,5.84,5.84,0,0,0,1.47,3.54Z" transform="translate(-9.55 -2.58)"/><path class="cls-1" d="M934.83,87.19a162.33,162.33,0,0,0,21.83-.42c4.74-.43,10.88-1,12-6.77,1-4.81-2.65-9.25-7.25-10.23-5.94-1.25-13.37,1.28-19.23,2.24-6.33,1-3.65,10.67,2.66,9.64l9.58-1.57c.79-.13,3.64,0,4.21-.58,4.28-4.12-2-2.73-3-2.65a159.9,159.9,0,0,1-20.88.34c-6.43-.29-6.42,9.71,0,10Z" transform="translate(-9.55 -2.58)"/><path class="cls-1" d="M968.45,79.52c6.43,0,6.44-10,0-10s-6.45,10,0,10Z" transform="translate(-9.55 -2.58)"/><path class="cls-1" d="M936.55,79.52c6.44,0,6.45-10,0-10s-6.44,10,0,10Z" transform="translate(-9.55 -2.58)"/><path class="cls-1" d="M958.09,73a70.92,70.92,0,0,1,12.57,1.63c6.27,1.4,9-8.24,2.66-9.64a85.85,85.85,0,0,0-15.23-2c-6.43-.26-6.42,9.74,0,10Z" transform="translate(-9.55 -2.58)"/><path class="cls-1" d="M977.2,71c1.07-9.22,4.15-20.3.92-29.33-2.85-8-9.33-13.58-15.8-18.65-5-3.93-12.14,3.1-7.07,7.07,5.26,4.12,11.81,8.88,13.69,15.65,1.06,3.81.28,7.92-.17,11.77Q968,64.25,967.2,71c-.75,6.38,9.26,6.33,10,0Z" transform="translate(-9.55 -2.58)"/><path class="cls-1" d="M961.52,36.9a69.9,69.9,0,0,0-.13,26.81c1.19,6.31,10.83,3.64,9.65-2.66a56.49,56.49,0,0,1,.12-21.49c1.24-6.29-8.39-9-9.64-2.66Z" transform="translate(-9.55 -2.58)"/><path class="cls-1" d="M967,37.1l-12-10.47a5.12,5.12,0,0,0-7.07,0c-1.81,1.81-2,5.28,0,7.07l12,10.47a5.12,5.12,0,0,0,7.07,0c1.81-1.81,2-5.28,0-7.07Z" transform="translate(-9.55 -2.58)"/><path class="cls-1" d="M952.07,31.24h1.72a5.19,5.19,0,0,0,3.54-1.46,3.75,3.75,0,0,0,1-1.61,3.68,3.68,0,0,0,.43-1.93,5,5,0,0,0-1.46-3.53,5.2,5.2,0,0,0-3.54-1.47h-1.72a5.17,5.17,0,0,0-3.54,1.47,3.81,3.81,0,0,0-1,1.6,3.77,3.77,0,0,0-.43,1.93,5.08,5.08,0,0,0,1.46,3.54,5.23,5.23,0,0,0,3.54,1.46Z" transform="translate(-9.55 -2.58)"/><path class="cls-1" d="M956.37,21.46A203.59,203.59,0,0,0,931,23.57c-6.35.91-3.65,10.55,2.65,9.65a184.14,184.14,0,0,1,22.74-1.76c6.43-.12,6.45-10.12,0-10Z" transform="translate(-9.55 -2.58)"/><path class="cls-1" d="M931.37,32a8.15,8.15,0,0,1,6.8,2.86c1.62,2.15,4.31,3.28,6.84,1.8,2.11-1.24,3.43-4.68,1.79-6.84-3.73-4.94-9.12-8-15.43-7.82s-6.44,10.17,0,10Z" transform="translate(-9.55 -2.58)"/><path class="cls-1" d="M936.57,31.08l9.48.81c2.7.23,5-2.46,5-5,0-2.9-2.3-4.77-5-5l-9.48-.81c-2.7-.23-5,2.46-5,5,0,2.9,2.29,4.77,5,5Z" transform="translate(-9.55 -2.58)"/><path class="cls-1" d="M931.29,34.09c-.12.83.39-.08.59-.47s.47,0-.14,0c.16,0,.79.06.85.05-.38.1-1.26-1.41-1.49-2-1-2.51-3.35-4.26-6.15-3.49-2.4.66-4.48,3.62-3.49,6.15,1.69,4.32,4.56,8.44,9.51,9.09,4.24.55,9.32-2.1,10-6.67.38-2.67-.65-5.37-3.49-6.15-2.34-.65-5.77.8-6.15,3.49Z" transform="translate(-9.55 -2.58)"/><path class="cls-1" d="M921.32,30.07,918,47.34c-1.2,6.29,8.43,9,9.64,2.66L931,32.73c1.2-6.29-8.44-9-9.65-2.66Z" transform="translate(-9.55 -2.58)"/><path class="cls-1" d="M916,38.31V67.62c0,6.44,10,6.45,10,0V38.31c0-6.43-10-6.44-10,0Z" transform="translate(-9.55 -2.58)"/><path class="cls-1" d="M929.77,70.84a55.06,55.06,0,0,0,3-19.59c-.16-6.43-10.17-6.45-10,0a46.72,46.72,0,0,1-2.68,16.93c-2.12,6.09,7.54,8.71,9.65,2.66Z" transform="translate(-9.55 -2.58)"/><path class="cls-1" d="M923.75,45.21a65.78,65.78,0,0,1-1.44,18.51c-1.41,6.27,8.23,8.94,9.64,2.66a75.71,75.71,0,0,0,1.8-21.17c-.37-6.4-10.37-6.44-10,0Z" transform="translate(-9.55 -2.58)"/><path class="cls-1" d="M1077.76,83.14v-6a5,5,0,1,0-10,0v6a5,5,0,1,0,10,0Z" transform="translate(-9.55 -2.58)"/><path class="cls-1" d="M1075.08,82.49l0-.68-1.46,3.54c1.23-1.19,3.5-1.4,4.71-3.3,1.11-1.72,1.25-3.86,1.34-5.84.17-3.89-.13-7.87-.2-11.77,0-1.54-.11-3.09-.06-4.63.07-2.2.21-2.6,2.51-2.8,5.88-.5,12.24,2.61,18,.8,5-1.56,6.68-6.5,4.56-11-2.73-5.83-11.35-.75-8.63,5q2.63-3.78.05-3.6c-.83,0-1.66-.12-2.48-.21l-3.59-.32a82,82,0,0,0-9.5-.75c-5.1.15-9.14,3-10.46,8-1.41,5.38-.4,11.83-.31,17.32,0-.2,0,4.62.48,3.85-.31.49-2,.88-2.52,1.26a5.73,5.73,0,0,0-2.46,5.09c.17,6.43,10.17,6.45,10,0Z" transform="translate(-9.55 -2.58)"/><path class="cls-1" d="M1094.47,49.52l0,4.6v2c-.06,1.42,0,1.75.06,1l3-2.3c-2,.82-5.17,0-7.3-.21-2.66-.21-5.32-.47-8-.76s-5,2.51-5,5c0,3,2.33,4.71,5,5q4.65.51,9.32.86c2.78.21,6,.81,8.62-.25,5.81-2.29,4.29-9.92,4.27-14.88,0-6.44-10-6.45-10,0Z" transform="translate(-9.55 -2.58)"/><path class="cls-1" d="M1074.15,79.67a395.21,395.21,0,0,1,2-50c.67-6.39-9.34-6.35-10,0a395.21,395.21,0,0,0-2,50c.15,6.43,10.15,6.45,10,0Z" transform="translate(-9.55 -2.58)"/><path class="cls-1" d="M1068.44,29.72q22,1.3,44,.55c6.42-.22,6.45-10.22,0-10q-22,.77-44-.55c-6.43-.39-6.41,9.62,0,10Z" transform="translate(-9.55 -2.58)"/><path class="cls-1" d="M1110.35,30.16c-1.58-1.05-1.48-1.33-3.28-1.65a30.37,30.37,0,0,0-3.44-.18l-8.5-.51c-4.79-.29-9.84-1.08-14.64-.74-10.86.79-9.29,11.75-9.29,19.86,0,6.44,10,6.45,10,0V41c0-.79-.43-3.33,0-4-.7.05-.71.06,0,0a10.47,10.47,0,0,1,1.68,0c1.57,0,3.15.19,4.72.29,6.46.39,13,1.16,19.49,1.15,4.52,0,9.28-1.24,11.45-5.6a8.61,8.61,0,0,0-3.12-11.39c-5.38-3.57-10.39,5.09-5.05,8.64Z" transform="translate(-9.55 -2.58)"/><path class="cls-1" d="M1136.35,27.27c4.63,5.19,13.23,4.55,19.57,4.82a195.84,195.84,0,0,0,26.42-.74c6.35-.59,6.42-10.59,0-10a199.66,199.66,0,0,1-20.75.89q-4.72,0-9.44-.35c-2.52-.15-6.92.34-8.73-1.69-4.29-4.82-11.34,2.27-7.07,7.07Z" transform="translate(-9.55 -2.58)"/><path class="cls-1" d="M1183,19.9c-9.32-.81-19.21-1.46-28.15,1.89-3.14,1.17-7.19,5-10.24,4.81-1.88-.13-2.84-1-4.84-.26a5.26,5.26,0,0,0-3.62,4.22c-1,6.3,8.59,9,9.65,2.66l.12-.72-3.5,3.49c-1.91-.22-2-.06-.32.48a6.82,6.82,0,0,0,2.52.58,10.3,10.3,0,0,0,5-1.11c3.26-1.5,5.89-3.86,9.36-5,7.66-2.57,16.15-1.69,24-1,6.41.55,6.38-9.45,0-10Z" transform="translate(-9.55 -2.58)"/><path class="cls-1" d="M1140.86,36.41h42.24c6.44,0,6.45-10,0-10h-42.24c-6.43,0-6.44,10,0,10Z" transform="translate(-9.55 -2.58)"/><path class="cls-1" d="M1141.74,33.46A80.73,80.73,0,0,0,1140.35,59c.69,6.33,10.7,6.4,10,0a71.91,71.91,0,0,1,1-22.86c1.32-6.28-8.32-9-9.65-2.66Z" transform="translate(-9.55 -2.58)"/><path class="cls-1" d="M1142.61,31.73a69.69,69.69,0,0,0-1.43,22.94c.67,6.34,10.68,6.41,10,0a61.42,61.42,0,0,1,1.07-20.28c1.42-6.27-8.22-8.94-9.64-2.66Z" transform="translate(-9.55 -2.58)"/><path class="cls-1" d="M1136,37.45a234.8,234.8,0,0,0,1.2,37.12c.71,6.32,10.72,6.39,10,0a234.8,234.8,0,0,1-1.2-37.12c.3-6.43-9.7-6.41-10,0Z" transform="translate(-9.55 -2.58)"/><path class="cls-1" d="M1145.47,53.6a16.91,16.91,0,0,1,1.93,6.12c.38,3.73,3.95,6.28,7.52,4.32a16.45,16.45,0,0,0,8.47-14.3c0-3.08-1-5.88-3.91-7.34-4.06-2.07-7.61.68-8.15,4.78-.35,2.69,2.55,5,5,5,3,0,4.64-2.31,5-5l0-.35-2.47,4.32.23-.15-2.53.69.35,0-2.52-.69c.51.21.54.23.1.07l-1.28-2.21c1,2.52-1.32,5.38-3.38,6.51l7.53,4.32a30,30,0,0,0-3.3-11.17c-3-5.7-11.62-.65-8.63,5.05Z" transform="translate(-9.55 -2.58)"/><path class="cls-1" d="M1155.15,52.69c2,4.46,4.06,11.33,10.44,9.09,4.94-1.74,7.7-7,7.87-12l-9.82,1.32a18.43,18.43,0,0,0,6.63,8.72c2.16,1.62,5.58.36,6.84-1.79,1.49-2.55.38-5.22-1.8-6.84a6.49,6.49,0,0,1-2-2.74c-2-5.13-9.63-4.59-9.82,1.33a6.64,6.64,0,0,1-.44,1.63c-.17.68-1.13.71,0,.77l3.53,1.46a10.77,10.77,0,0,1-1.16-2.55l-1.56-3.45c-1.11-2.46-4.69-3.06-6.84-1.79-2.53,1.48-2.91,4.37-1.8,6.84Z" transform="translate(-9.55 -2.58)"/><path class="cls-1" d="M1177.53,56a8.9,8.9,0,0,0-2.07-8.32,5,5,0,0,0-3.53-1.47,5.11,5.11,0,0,0-3.54,1.47,5,5,0,0,0-1.46,3.53,5.59,5.59,0,0,0,1.46,3.54l.14.16-.79-1a4.45,4.45,0,0,1,.53.89l-.51-1.2a4.33,4.33,0,0,1,.26,1l-.18-1.33a5.61,5.61,0,0,1,0,.82l.18-1.33a4.42,4.42,0,0,1-.13.61,5,5,0,1,0,9.64,2.65Z" transform="translate(-9.55 -2.58)"/><path class="cls-1" d="M1176,49.52V46.07a5,5,0,1,0-10,0v3.45a5,5,0,0,0,10,0Z" transform="translate(-9.55 -2.58)"/><path class="cls-1" d="M1163.28,60.72l6,6.08a5,5,0,0,0,7.07-7.08l-6-6.07a5,5,0,0,0-7.07,7.07Z" transform="translate(-9.55 -2.58)"/><path class="cls-1" d="M1146.31,62.83a39.72,39.72,0,0,1-7.18,15.11c-1.68,2.14-2.05,5,0,7.07,1.72,1.76,5.41,2.12,7.07,0A51.49,51.49,0,0,0,1156,65.48c1.55-6.24-8.09-8.91-9.65-2.65Z" transform="translate(-9.55 -2.58)"/><path class="cls-1" d="M1145.73,80.07a4.86,4.86,0,0,1-.11-.55l.18,1.33a6.65,6.65,0,0,1,0-1.41l-.18,1.33a5.29,5.29,0,0,0,.26-1.1c-.34.75-.4.89-.17.42a4.94,4.94,0,0,1,.3-.49,5,5,0,0,0-1.8-6.84,5.12,5.12,0,0,0-6.84,1.8,10.69,10.69,0,0,0-1.29,8.17,5,5,0,0,0,6.16,3.49,5.12,5.12,0,0,0,3.49-6.15Z" transform="translate(-9.55 -2.58)"/><path class="cls-1" d="M1142.25,90.75a92.42,92.42,0,0,1,29.63-2.67c6.53.48,14.58.88,17.28-6.67,2.61-7.28-3-11.69-9.65-12-10-.43-20,.08-30,.12-6.43,0-6.44,10,0,10l18.77-.08c3,0,6.42.45,9.38,0,0,0,3.55-.56,2-1.27-.63-.29-3,.3-3.76.25-12.42-.7-24.16-.39-36.3,2.68-6.23,1.58-3.59,11.23,2.66,9.65Z" transform="translate(-9.55 -2.58)"/><path class="cls-1" d="M1209.77,86.92c13.69.86,27.73.88,41.35-1,4.78-.68,9.81-2.79,10.89-8a8.34,8.34,0,0,0-6-10,5,5,0,0,0-6.32,4.82l-.1,9.57c-.06,6.43,9.94,6.44,10,0l.1-9.57-6.33,4.82c-.73-1.53-1.71-2.07-3-1.62a17.61,17.61,0,0,1-2.72.36c-1.88.21-3.78.36-5.68.5q-5.21.41-10.44.55c-7.28.22-14.57.05-21.84-.4-6.43-.4-6.41,9.6,0,10Z" transform="translate(-9.55 -2.58)"/><path class="cls-1" d="M1252.94,70.73l-20.8-.93c-6.18-.27-13.49.47-19.35-1.69-6-2.23-8.65,7.43-2.66,9.64,6.22,2.3,13.6,1.68,20.12,2l22.69,1c6.43.28,6.42-9.72,0-10Z" transform="translate(-9.55 -2.58)"/><path class="cls-1" d="M1214.6,75.12c2.22-7.23,10.53-10.52,16.87-13.25,5.9-2.54.81-11.15-5-8.64-9.16,3.94-18.37,9.1-21.47,19.24-1.9,6.16,7.75,8.8,9.64,2.65Z" transform="translate(-9.55 -2.58)"/><path class="cls-1" d="M1225.79,68c2.54-6.28,7.23-13.79,5.15-20.76l-8.36,4.87a75,75,0,0,1,8,11.34,5.11,5.11,0,0,0,5.64,2.3c4.49-1.16,6.69-5.44,6.44-9.88A12.42,12.42,0,0,0,1242,52l-.16-1.22c-3.72-2.33-5.34-2.07-4.89.78-.92,2.65-.23,7.24-.32,10-.21,6.43,9.79,6.42,10,0,.19-5.89,3-19.44-6.54-19.4a8.38,8.38,0,0,0-7.41,4.82,10.25,10.25,0,0,0-.75,5,13,13,0,0,0,.58,3.25c.63,1.62-.51,1.24,1.13.82l5.64,2.3a89.5,89.5,0,0,0-9.6-13.36c-3.31-3.85-9.73.25-8.35,4.86.7,2.36-1,5.09-1.83,7.24l-3.32,8.2c-2.42,6,7.25,8.56,9.64,2.66Z" transform="translate(-9.55 -2.58)"/><path class="cls-1" d="M1257.23,28.21l-23,0c-5.58,0-12.5.72-16.68-3.71-4.42-4.69-11.48,2.39-7.07,7.07,4.91,5.2,11.7,6.43,18.58,6.61,9.37.24,18.77,0,28.14.05,6.43,0,6.44-10,0-10Z" transform="translate(-9.55 -2.58)"/><path class="cls-1" d="M1210.66,29.05a313.54,313.54,0,0,1,44,.51c6.42.53,6.38-9.48,0-10a313.54,313.54,0,0,0-44-.51c-6.4.37-6.44,10.37,0,10Z" transform="translate(-9.55 -2.58)"/><path class="cls-1" d="M1207.43,31.06a182.26,182.26,0,0,1,4.08,41.73c-.1,6.44,9.9,6.44,10,0a193.67,193.67,0,0,0-4.44-44.39c-1.36-6.29-11-3.63-9.64,2.66Z" transform="translate(-9.55 -2.58)"/><path class="cls-1" d="M1210.82,32.46c4,9.74,4.09,20.3-.52,29.86-2.77,5.77,5.85,10.85,8.64,5.05a45.88,45.88,0,0,0,1.52-37.56c-2.4-5.88-12.08-3.31-9.64,2.65Z" transform="translate(-9.55 -2.58)"/><path class="cls-1" d="M1219.28,41.79a34.22,34.22,0,0,1,6.79,10.3c1.09,2.48,4.71,3,6.85,1.8,2.55-1.5,2.87-4.36,1.79-6.84a41.94,41.94,0,0,0-8.36-12.33c-4.47-4.64-11.54,2.43-7.07,7.07Z" transform="translate(-9.55 -2.58)"/><path class="cls-1" d="M1204.57,35.73l1.08,30.17c.23,6.41,10.24,6.44,10,0l-1.08-30.17c-.23-6.41-10.23-6.44-10,0Z" transform="translate(-9.55 -2.58)"/><path class="cls-1" d="M1000.35,29.52A267.77,267.77,0,0,1,1042,31.79l-3.53-1.46c.23-1.68-.27-2.41-1.51-2.19a11,11,0,0,1-2-.19c-1.65-.18-3.28-.46-4.92-.7l-9.48-1.36-19-2.73c-6.29-.9-9,8.73-2.66,9.65l30.34,4.36c6.76,1,17.05,2.43,18.52-6.83,1.57-9.9-10.59-9.24-17.14-9.84a263.19,263.19,0,0,0-30.37-1c-6.43.15-6.45,10.15,0,10Z" transform="translate(-9.55 -2.58)"/><path class="cls-1" d="M994.1,29.25l1.57,11.23c.37,2.68,3.79,4.14,6.15,3.49,2.88-.79,3.87-3.46,3.49-6.15l-1.57-11.23c-.37-2.67-3.79-4.14-6.15-3.49-2.88.79-3.87,3.47-3.49,6.15Z" transform="translate(-9.55 -2.58)"/><path class="cls-1" d="M999.48,29.52c6.44,0,6.45-10,0-10s-6.44,10,0,10Z" transform="translate(-9.55 -2.58)"/><path class="cls-1" d="M998.75,35.23l2.44,14.39c.66,3.87.87,8.34,3.34,11.58s6,4,9.93,3.52c4.67-.52,9.88-1,14.38-2.41,6.73-2.08,12.79-9.85,7.67-16.59s-17.86-3.31-25-2.79c-6.38.48-6.43,10.48,0,10l8-.59c2.19-.16,5.12-.91,7.27-.51,3,.56-1.69,1.13-2.93,1.39-2.32.49-4.72.75-7.06,1.11-1.29.21-2.59.41-3.89.59-.73.44-1,0-.88-1.21-1-1.55-.87-5-1.18-6.75l-2.44-14.39c-1.07-6.33-10.71-3.64-9.64,2.66Z" transform="translate(-9.55 -2.58)"/><path class="cls-1" d="M1019.23,45.23a9.22,9.22,0,0,1-7.28,4.68c-2.68.38-4.14,3.79-3.49,6.15.79,2.88,3.46,3.87,6.15,3.49a18.62,18.62,0,0,0,13.26-9.27c3.18-5.61-5.46-10.65-8.64-5.05Z" transform="translate(-9.55 -2.58)"/><path class="cls-1" d="M999.58,37.74a72.7,72.7,0,0,0-2,44.05c1.64,6.21,11.29,3.58,9.64-2.66a63.41,63.41,0,0,1,2-38.73c2.24-6-7.42-8.65-9.64-2.66Z" transform="translate(-9.55 -2.58)"/><path class="cls-1" d="M1004.77,84.87a433.15,433.15,0,0,1,1.6-46.55c.56-6.4-9.44-6.37-10,0a433.15,433.15,0,0,0-1.6,46.55c.13,6.43,10.13,6.45,10,0Z" transform="translate(-9.55 -2.58)"/><path class="cls-1" d="M994,37.41a56.48,56.48,0,0,0,1.89,19.36c1.7,6.2,11.35,3.57,9.65-2.66a48,48,0,0,1-1.54-16.7c.5-6.42-9.5-6.39-10,0Z" transform="translate(-9.55 -2.58)"/><path class="cls-1" d="M1001.21,62.47a49.52,49.52,0,0,1-1.56,20.15c-1.79,6.19,7.86,8.83,9.65,2.65a56.85,56.85,0,0,0,1.91-22.8c-.76-6.31-10.77-6.38-10,0Z" transform="translate(-9.55 -2.58)"/><path class="cls-1" d="M1028.79,57.1c6.44,0,6.45-10,0-10s-6.44,10,0,10Z" transform="translate(-9.55 -2.58)"/><path class="cls-1" d="M1070.07,84.1a13.26,13.26,0,0,0,6.54,3.83c2.54.61,5.54-.8,6.15-3.49a5.08,5.08,0,0,0-3.49-6.15c-.11,0-1-.21-1-.31s1.12.56.45.19c-.2-.1-.4-.2-.59-.31s-.3-.21-.46-.29c-.5-.27.79.69.37.3s-.59-.54-.87-.84a5,5,0,0,0-7.07,0,5.11,5.11,0,0,0,0,7.07Z" transform="translate(-9.55 -2.58)"/><path class="cls-1" d="M1084.47,38.74a41.91,41.91,0,0,0-1.21,11.64,5,5,0,1,0,10,0,32.26,32.26,0,0,1,.85-9c1.52-6.25-8.12-8.92-9.64-2.66Z" transform="translate(-9.55 -2.58)"/><path class="cls-1" d="M1084.2,32.64a24.15,24.15,0,0,0,4.94,21.2c1.7,2.13,5.3,1.74,7.07,0,2.11-2.06,1.68-5,0-7.07a13.51,13.51,0,0,1-2.37-11.47c1.48-6.26-8.16-8.93-9.64-2.66Z" transform="translate(-9.55 -2.58)"/><path class="cls-1" d="M1148.55,28.44c-9,7.54-18.43,19.18-10.81,31.13,3.45,5.41,12.11.4,8.64-5-4.84-7.59,4-14.66,9.24-19,5-4.13-2.16-11.17-7.07-7.07Z" transform="translate(-9.55 -2.58)"/><g id="Baltimore-Code-and-Coffee-Logo-horiz"><rect class="cls-2" x="420.73" y="73.07" width="507.29" height="285.35"/><path class="cls-3" d="M628.44,107.39v7.92h7.93v23.78h-7.93V147h-7.92v7.92h7.92V147s8.07,0,7.93,0,0-7.93,0-7.93h7.93V115.31h-7.93v-7.92Z" transform="translate(-9.55 -2.58)"/><path class="cls-3" d="M668.08,107.39h-7.93v7.92h-7.93v15.85h7.93v7.93h-7.93V147H644.3v7.92h7.92V147h7.93v-7.93h7.93v-7.93h-7.93V115.31h7.93Z" transform="translate(-9.55 -2.58)"/><path class="cls-3" d="M604.66,107.39v15.85h7.93v7.92h-7.93V147h-7.92v7.92h7.92V147h7.93V131.16h7.93v-7.92h-7.93V107.39Z" transform="translate(-9.55 -2.58)"/><path class="cls-4" d="M612.59,186.65v7.93H596.74v15.85h7.92v7.93h47.56v-7.93h7.93V202.5h7.93v-7.92H652.22v-7.93Z" transform="translate(-9.55 -2.58)"/><path class="cls-5" d="M604.66,178.72v7.93h-7.92v7.93h-7.93v7.92h7.93v-7.92h15.85v-7.93h39.63v7.93h7.93v-7.93h-7.93v-7.93Z" transform="translate(-9.55 -2.58)"/><path class="cls-6" d="M652.22,218.36v-7.93h7.93V202.5h7.93v-7.92h-7.93v-7.93h-7.93v-7.93H604.66v7.93h-7.92v7.93h-7.93v7.92h7.93v7.93h7.92v7.93h47.56v7.92H644.3v7.93h-7.93v7.92h7.93v7.93h7.92v55.49H644.3v7.92H604.66v-7.92H588.81v-7.93h-7.93v-111h7.93v-7.93h7.93V170.8h63.41v7.92h7.93v7.93H676V202.5h-7.92v7.93h-7.93v7.93Z" transform="translate(-9.55 -2.58)"/><path class="cls-7" d="M660.15,162.87v7.93h7.93v7.92H676v7.93h7.93v7.93h7.92v15.85h7.93v7.93h7.93v7.92h7.92v47.56h-7.92v7.93h-7.93v7.92h-7.93v7.93h-7.92v7.93H676v7.92h-7.92v7.93H652.22v7.92H604.66V321.4H588.81v-7.93h-7.93v-7.92H573V186.65h7.92v-7.93h7.93V170.8h7.93v7.92h-7.93v7.93h-7.93v118.9h7.93v7.92h15.85v7.93h47.56v-7.93h15.86v-7.92H676v-7.93h7.93V281.77h15.85v-7.93h7.93V226.28h-7.93v-7.92H683.93V194.58H676v-7.93h-7.92v-7.93h-7.93V170.8H596.74v-7.93" transform="translate(-9.55 -2.58)"/><path class="cls-6" d="M683.93,218.36v7.92h7.92v7.93h7.93V258h7.93V226.28h-7.93v-7.92Z" transform="translate(-9.55 -2.58)"/><path class="cls-8" d="M683.93,226.28v47.56h7.92v-7.93h7.93v-31.7h-7.93v-7.93Z" transform="translate(-9.55 -2.58)"/><path class="cls-9" d="M676,194.58v7.92h-7.92v7.93h-7.93v7.93h-7.93v7.92H644.3v7.93h-7.93v7.92h7.93v7.93h7.92v55.49H644.3v7.92H604.66v-7.92H588.81v-7.93h-7.93v7.93h7.93v7.92h15.85v7.93h47.56v-7.93h15.86v-7.92H676v-7.93h7.93V281.77h15.85v-7.93h7.93V258h-7.93v7.92h-7.93v7.93h-7.92V194.58Z" transform="translate(-9.55 -2.58)"/><path class="cls-7" d="M731.49,313.47V297.62h7.92V281.77h7.93V265.91h7.93V250.06h7.92V234.21h7.93V218.36H779V202.5H787V186.65h7.93V202.5H787v15.86H779v15.85h-7.92v15.85h-7.93v15.85h-7.92v15.86h-7.93v15.85h-7.93v15.85Z" transform="translate(-9.55 -2.58)"/><path class="cls-10" d="M787,178.72v15.86H779v15.85h-7.92v15.85h-7.93v15.85h-7.92V258h-7.93v15.85h-7.93v15.85h-7.92v7.93h7.92V281.77h7.93V265.91h7.93V250.06h7.92V234.21h7.93V218.36H779V202.5H787V186.65h7.93v-7.93Z" transform="translate(-9.55 -2.58)"/><path class="cls-7" d="M818.68,202.5v7.93h15.85v7.93h15.85v7.92h15.86v7.93h15.85v7.92h15.85v7.93H882.09V258H866.24v7.92H850.38v7.93H834.53v7.93H818.68v7.92h15.85v-7.92h15.85v-7.93h15.86v-7.93h15.85V258h15.85v-7.93h7.93v-7.93h-7.93v-7.92H882.09v-7.93H866.24v-7.92H850.38v-7.93H834.53V202.5Z" transform="translate(-9.55 -2.58)"/><path class="cls-10" d="M826.6,210.43v7.93h15.86v7.92h15.85v7.93h15.85v7.92H890v7.93h7.93v-7.93H882.09v-7.92H866.24v-7.93H850.38v-7.92H834.53v-7.93Z" transform="translate(-9.55 -2.58)"/><path class="cls-10" d="M826.6,273.84v7.93h7.93v-7.93h15.85v-7.93h15.86V258h15.85v-7.93h-7.93V258H858.31v7.92H842.46v7.93Z" transform="translate(-9.55 -2.58)"/><path class="cls-7" d="M549.18,289.69v-7.92H533.33v-7.93H517.47v-7.93H501.62V258H485.77v-7.93H469.92v-7.93h15.85v-7.92h15.85v-7.93h15.85v-7.92h15.86v-7.93h15.85V202.5H533.33v7.93H517.47v7.93H501.62v7.92H485.77v7.93H469.92v7.92H462v7.93h7.93V258h15.85v7.92h15.85v7.93h15.85v7.93h15.86v7.92Z" transform="translate(-9.55 -2.58)"/><path class="cls-10" d="M541.25,281.77v-7.93H525.4v-7.93H509.55V258H493.69v-7.93H477.84v-7.93h-7.92v7.93h15.85V258h15.85v7.92h15.85v7.93h15.86v7.93Z" transform="translate(-9.55 -2.58)"/><path class="cls-10" d="M541.25,218.36v-7.93h-7.92v7.93H517.47v7.92H501.62v7.93H485.77v7.92h7.92v-7.92h15.86v-7.93H525.4v-7.92Z" transform="translate(-9.55 -2.58)"/></g><text class="cls-11" transform="translate(0 82.87)">bmore Code &amp; Coffee</text></svg>