<svg xmlns="http://www.w3.org/2000/svg" viewBox="0 0 1091.77 561.61"><defs><style>.cls-1,.cls-7{fill:#fff;}.cls-2{fill:#231f20;}.cls-3{fill:none;}.cls-4{fill:#867c7e;}.cls-10,.cls-11,.cls-4,.cls-5,.cls-6,.cls-7,.cls-8,.cls-9{fill-rule:evenodd;}.cls-5{fill:#6a3213;}.cls-6{fill:#72685f;}.cls-12,.cls-8{fill:#2b296f;}.cls-9{fill:#636166;}.cls-10{fill:#b1aeb6;}.cls-11{fill:#554e85;}.cls-12{font-size:153.06px;font-family:Golden-Age, Golden Age;}</style></defs><g id="Layer_2" data-name="Layer 2"><path class="cls-1" d="M128.41,105a16.92,16.92,0,0,0-4.11,6.1,14.26,14.26,0,0,0-1.08,6.61c.29,2.77,2.07,5.5,5.21,5.08,2.63-.35,4.56-3,5.86-5.08,1.42-2.3,2-5.18.63-7.63a7.53,7.53,0,0,0-6.06-3.46c-2.6-.21-5.13,1-7.36,2.18a16.57,16.57,0,0,0-5.22,3.73c-1.82,2.22-2.46,5-1,7.63a5.22,5.22,0,0,0,7,2.35,2.52,2.52,0,0,0,.9-3.42,2.56,2.56,0,0,0-3.42-.9l.26-.09c-.23.06-.23.07,0,0l.16,0a2,2,0,0,1-.34,0s.65.09.16,0c.48.11.27.15.11,0-.49-.36.34.41-.08,0l-.27-.27c-.32-.31,0,0,0,0-.09-.17-.2-.34-.29-.51.26.49.07.06,0,0s-.08-.61,0,0c0-.13,0-.26,0-.39,0-.44,0,0,0,.09s.18-.64.07-.32.16-.32.16-.31l.24-.38c.27-.46-.19.14.16-.2s.54-.54.83-.79c0,0,.37-.28,0,0l.39-.28c.65-.44,1.33-.83,2-1.21s1.47-.78,2.21-1.14-.17,0,.31-.14c.21-.09.43-.17.65-.24a8.92,8.92,0,0,1,1.35-.35c-.33.06.17,0,.27,0h.54c.11,0,.49.06,0,0l.42.09.52.14c.14,0,.53.27.1,0l.37.2c.17.1.46.44.17.1a3.15,3.15,0,0,0,.36.37c.31.26-.47-.32,0,.08.1.08.15.45,0,0a3.94,3.94,0,0,1,.14.49c-.08-.41,0,.1,0,.21,0,.42.16-.51,0,.21a4.21,4.21,0,0,1-.28.87q-.31.6-.69,1.17l-.31.45c-.29.41-.17.24-.1.15-.26.34-.54.68-.83,1l-.35.37s-.57.53-.25.24l-.21.13.17-.06c-.09.23-.33,0,.11.06.12,0,.58.24.16,0l.22.15-.13-.14.16.19c-.1-.21-.12-.23,0,0s-.07-.26-.08-.29,0-.27-.09-.41c.14.54,0,0,0-.17a9.89,9.89,0,0,1,0-1.22c0,.06.09-.77,0-.43q0,.24,0-.18c0-.16.06-.33.1-.5a12.2,12.2,0,0,1,.75-2.43c-.16.35.07-.14.11-.22.11-.23.23-.46.35-.68.23-.41.47-.81.74-1.2a11.71,11.71,0,0,1,1.62-1.8,2.5,2.5,0,1,0-3.54-3.53Z" transform="translate(-77.43 -44.76)"/><path class="cls-1" d="M86.43,74.3a147.12,147.12,0,0,0,.23,50.58,2.52,2.52,0,0,0,3.07,1.75,2.56,2.56,0,0,0,1.75-3.08,140,140,0,0,1-.23-47.92,2.58,2.58,0,0,0-1.75-3.08,2.51,2.51,0,0,0-3.07,1.75Z" transform="translate(-77.43 -44.76)"/><path class="cls-1" d="M141.08,105.27c-16.34-2.71-26.54,13.76-25.93,28.63.77,18.86,28.56,3.85,35.58-1.69,5.56-4.39,10.75-10.17,10.36-17.74a18.35,18.35,0,0,0-10-15.1c-13.31-6.72-27.84,7.76-23.25,21.28,1.44,4.23,5,5.81,9.23,5.24,9.65-1.3,22.21-6.27,26-16.07,2-5,.68-9.69-1.17-14.54l-3.39-8.83c-.79-2-2.36-4.68-2.2-6.75l-1,3.78-1.43,1.25-3.78,1,1.24.08-3.78-1c2.38,1.61,4.19,7.19,5.06,9.83A25.64,25.64,0,0,1,154,106.31c-1.24,8.17-8.25,14.26-11,21.92-2.55,7-2.55,19.31,6.53,21.67a10.81,10.81,0,0,0,11.35-4.65c2.46-3.67,2-8.1.87-12.13l-5.24,9.22.39.08-3.79-1c-.34-1.07-.52-1.16-.55-.27a18.16,18.16,0,0,1-.45,2.07,17.68,17.68,0,0,1-1.29,3.88c-1.29,2.49-3.6,3.67-5.74,5.36-4.82,3.82-8,9.92-5.77,16.07,1,2.89,3.82,5.83,7.23,5.51,8.31-.77,15.61-5.48,18.53-13.56,2.66-7.36.5-16.57-8.08-18.39A57.6,57.6,0,0,0,144,141.3c-4.39.14-8.91,1.32-12.26,4.29-6.4,5.66-6.64,16.26,1.17,20.95s17-1.75,17.55-10.35c.53-8.18-6.07-15.35-14-16.45-8.22-1.14-15.7,4.69-17.86,12.5-1.06,3.82-1,8.58,1.09,12.08a9.77,9.77,0,0,0,5.2,4.31,6.63,6.63,0,0,0,3,.68q3.9.54-2.32-2.82v-4c3.35-1,3.79-1.61,1.35-1.93-1-.35-2-.73-2.93-1.13-1.64-.69-3.26-1.46-4.86-2.24a122.25,122.25,0,0,1-10.89-6.11V164a30.55,30.55,0,0,1,9.34-4.36c9.3-2.55,5.36-17-4-14.46a43.08,43.08,0,0,0-12.93,5.87c-4.69,3.17-5,9.84,0,12.95a119.28,119.28,0,0,0,14.12,7.63c4.54,2,9.4,4.54,14.52,4.22,9.88-.62,15.78-14.94,5.89-20.26-1.37-.73-4.59-1.87-6.13-1.26q4.17,5.65,3.85,2.78a1.15,1.15,0,0,1,0-.61c.24-.23.25-.94.52-1.24,1.11-1.25.5-.37,1.79-.31-.49,0,1.38.57.35.17q0-2.08,2.84.74,1.74,2.15,3.17,1c1.79,0,3.66-.56,5.63-.45,1.38.08,2.75.22,4.13.27,1.71.06,2.79.75,1-1.21-1.95-2.13-1.09-.07-2.39,1.54a5.47,5.47,0,0,1-3.55,2l7.23,5.51c0,.07-.49.37,0,.15a18.64,18.64,0,0,0,2.26-1.74,28.75,28.75,0,0,0,5.58-5,29.19,29.19,0,0,0,5.35-12.2c.94-4.46,1.19-9.18-1.45-13.15a11.56,11.56,0,0,0-12.94-4.68,7.61,7.61,0,0,0-5.24,9.22c.29,2.13.78,1.82,1.48-.95l3.78-1-1,0,3.79,1c1.89.91.93.55,1.38-1.58a15.39,15.39,0,0,1,1.4-3.65c1.37-2.71,3.22-5.16,4.84-7.71a37.09,37.09,0,0,0,5.9-15.43c1.42-11.31-2.52-23.3-9.5-32.23-3.68-4.72-10.6-6.93-15.31-2.1-4.53,4.66-2.21,10.91-.23,16.06q1.88,4.86,3.73,9.72c.63,1.64,2.11,4,1.41,5.62-.79,1.82-4.71,3.41-6.34,4.12a35,35,0,0,1-9.45,2.41l9.23,5.24c-.57-1.67.19-4.17,1.62-4,2.2.24,2.37,2.62,1.52,4.07-3.23,5.52-15.22,12-21.51,11.39l3.79,1-.82-.47,3.45,4.48c-1.13-2.78,2.22-14.15,6.71-13.41,9.44,1.57,13.5-12.88,4-14.46Z" transform="translate(-77.43 -44.76)"/><path class="cls-2" d="M114.79,130.93c-10.46,1.25-19.12,9.61-18.75,20.6a7.5,7.5,0,0,0,15,0s.07-2,0-1.18.28-1,.33-1.14c-.39,1.27,1.36-2,.59-1.11.32-.38.67-.71,1-1.06,1.41-1.43-.44.18.51-.38.37-.23,1.46-.76.49-.37.3-.12,2.3-.54.85-.36,4-.49,7.5-3.11,7.5-7.5,0-3.68-3.45-8-7.5-7.5Z" transform="translate(-77.43 -44.76)"/><path class="cls-1" d="M88.94,135.56a127.2,127.2,0,0,0,6.67,16c2.43,4.8,5.4,11.59,9.77,14.92,10.81,8.22,19.09-9.42,20.06-17.78,1.09-9.47-4.5-24.29-16.52-20.31C98.22,132,90.7,144.91,97.71,155.1c5.44,7.9,18.44.41,13-7.57-1.3-1.89.6-4.77,2.6-4.83l-3.78-1c1.67.87,1.23,5,1,6.43-.41,2.07-2.24,6-3.14,6.41l5.78-.76q2.72,1.61.56-.83c-.61-1-1.21-1.94-1.79-2.92-1.16-2-2.26-4-3.28-6a96.36,96.36,0,0,1-5.17-12.43c-3.1-9.08-17.6-5.18-14.46,4Z" transform="translate(-77.43 -44.76)"/><path class="cls-1" d="M87.34,121.5c1.08,3.92-.31,7.59-1.41,11.35a113.18,113.18,0,0,0-3.1,12.71c-1.13,6.5-2.23,13.47.31,19.78,6,14.81,27.59,10.74,27.94-5.15.22-9.66-14.78-9.66-15,0,0-1.12.5.57.65-.18a.27.27,0,0,1,.4.2,15.78,15.78,0,0,1-.49-1.79c-.5-4.13.51-8.57,1.37-12.58,2-9.48,6.5-18.49,3.79-28.32-2.55-9.3-17-5.35-14.46,4Z" transform="translate(-77.43 -44.76)"/><path class="cls-1" d="M107.73,116l3-12.94c2.2-9.44-11.38-13.11-14.46-4-2.57,7.58-8.41,22.5-.78,28.73s20.27.65,26-5.64l-10.61-10.6a30.42,30.42,0,0,0-6.69,11.6c-2.11,6.7,5.48,11.13,11,8.47a26.69,26.69,0,0,0,14.84-20.93c.48-4.4-.34-8.81-3.5-12.11s-7.16-4-11-6c-3.57-1.91-4.74-6.12-8.39-8-4.58-2.29-9.53-.54-12.33,3.58-5.38,7.9-5.07,18-.91,26.3,3.79,7.59,16.26,2.31,13.7-5.78-2.89-9.18-5.39-19.32-4.91-29l-1,3.79-1.31,1.25-3.78,1c7.26-.69,14.82-.22,22.09.14q5.75.28,11.47.81c2.25.2,8.21.24,9.25.9L136,83.11a38.21,38.21,0,0,1,.86,11.27l3.44-4.48-.64.44,3.79-1c-.36,0-4-1.92-5.14-2.4l-7.18-3.12c-3.81-1.65-7.79-4-12.08-3-6.76,1.55-14.17,10-14.08,17.09.06,4.59,3.13,7.32,7,9.14a46.18,46.18,0,0,0,7,2.66s4.4,1.69,3.27.17c.83,1.12-1.75,7-2.11,8.75-1,4.63-.61,8.92,1.79,13,4.85,8.34,17.82.8,12.95-7.57-1.23-2.12,1.19-6.24,1.69-8.59a19.27,19.27,0,0,0-.46-11.08,13.06,13.06,0,0,0-7.38-7.51c-2.92-1.23-9-1.31-10.92-3.82l2.2,5.3c.08,1.3.65-.87,1.11-1.43,1.86-2.22,1.54-.68.65-1,3.64,1.4,7.2,3.13,10.77,4.68,5.25,2.28,11.91,6.23,16.86,1,2.66-2.79,2.35-6.46,2.18-10s0-7.53-.71-11.09c-1.67-7.86-9.4-7.72-15.9-8.43Q124,71,113,70.65c-6-.17-15.17-1.73-20.58,1.33-6.45,3.64-4.71,12.23-4,18.34a122.09,122.09,0,0,0,4.78,22.37l13.71-5.78a10.86,10.86,0,0,1-1.12-6.22,11.09,11.09,0,0,1,.59-2.35c.72-1.92,2.39-2.48-.18-.79l-3.78,1h1l-3.78-1c-.74-.45,2,2.92,2.65,3.59a23.93,23.93,0,0,0,3.79,3.18c2.66,1.8,5.88,2.35,8.57,4,1.09.65,1.28-1,.61,1-.36,1.06-.48,2.17-.94,3.21-1.35,3-3.74,4.82-6.64,6.22l11,8.47a12.6,12.6,0,0,1,2.83-5c6.46-7.13-4.08-17.75-10.61-10.6a10.93,10.93,0,0,1-3.73,3,6.7,6.7,0,0,1-2,.65c-1.8,0-1.55.61.77,1.94l1,3.78c-.68-5.65,2-12.54,3.78-17.83l-14.46-4-3,12.93c-2.19,9.39,12.27,13.4,14.47,4Z" transform="translate(-77.43 -44.76)"/><path class="cls-1" d="M117.19,110.09a234.56,234.56,0,0,0,2-35.34c-.12-6-8.41-10.47-12.8-5.3-4.17,4.89-6.58,10.72-5.83,17.23.46,4,3.12,7.5,7.5,7.5,3.7,0,8-3.45,7.5-7.5-.28-2.44-.24-4.66,1.43-6.63l-12.8-5.3a234.56,234.56,0,0,1-2,35.34c-.53,4,3.83,7.5,7.5,7.5,4.49,0,7-3.46,7.5-7.5Z" transform="translate(-77.43 -44.76)"/><path class="cls-1" d="M93.39,144.94c-4.44,4.95-4.78,12.93.33,17.63,2.89,2.65,7.79,3.07,10.61,0,2.65-2.9,3.08-7.77,0-10.61-1.37-1.26.67,1.17.09.13.48,1.26.61,1.53.38.8s-.12-.46.11.93a5.67,5.67,0,0,1,0-.71c-.23,1.4-.26,1.71-.07.95-.57,1.23-.69,1.5-.34.82s.24-.41-.53.67c2.62-2.92,3.1-7.77,0-10.61-2.86-2.62-7.81-3.12-10.6,0Z" transform="translate(-77.43 -44.76)"/><path class="cls-1" d="M109,135.48q-3.19-17.65-7.39-35.08C99.3,91,84.83,95,87.1,104.39q4.2,17.43,7.4,35.07c1.71,9.49,16.17,5.47,14.46-4Z" transform="translate(-77.43 -44.76)"/><path class="cls-1" d="M87.28,95.28q-.39,8.41-.27,16.84c.1,8.11,13.38,10.63,14.73,2A89,89,0,0,0,99.8,76.25c-2.56-9.3-17-5.35-14.46,4a71,71,0,0,1,1.94,29.89l14.73,2q-.12-8.43.27-16.84c.44-9.65-14.56-9.63-15,0Z" transform="translate(-77.43 -44.76)"/><path class="cls-1" d="M209.82,165.63c-.1-1.5-.12-2.35.92-3.48l-12.53-3.31a47.53,47.53,0,0,1,1.25,9l7.5-7.5c-2.89-.1.25-11.24.68-12.94,1.34-5.28,2.92-10.31,7-14.15l-12.8-5.3.13,21.24c.06,9.65,15.06,9.67,15,0L216.79,128c0-6.6-8.12-9.76-12.81-5.3-11.87,11.29-23.42,51.76,3,52.69a7.57,7.57,0,0,0,7.5-7.5,69.75,69.75,0,0,0-1.79-13c-1.28-5.39-8.76-7.38-12.54-3.3a18.52,18.52,0,0,0-5.31,14.08c.63,9.58,15.63,9.65,15,0Z" transform="translate(-77.43 -44.76)"/><path class="cls-1" d="M198.75,107.45A54.29,54.29,0,0,1,192,127.26c-2.63,4.56.63,11.83,6.48,11.28,6.67-.63,12.46-3.57,16.17-9.33a19.23,19.23,0,0,0,3-8.83c.18-2.12-.69-5.64.53-7.35l-10.26,2.69a108.27,108.27,0,0,0,27.2,15.09c10.54,3.88,20.22.73,27.13-7.9,2.83-3.52,6.14-7.55,6.17-12.29,0-5.67-4.51-9.33-9.88-9.6-11.58-.59-23.92,1.61-35.26,3.74-6.65,1.25-6.89,10.54-1.79,13.71,9.28,5.75,33.38,14,39.26-.19a15.5,15.5,0,0,0,.46-9.5c-.8-3.53-1.83-5.14.88-8.12,2.08-2.29,4.95-3.78,7.45-5.54a89.55,89.55,0,0,0,8.37-6.94A16.43,16.43,0,0,1,283.4,85c1.08-.45-.56.12-.23-.57-.29.6-.39,1.65-.95,2.11-1.82,1.5-6.55.44-8.78.61a18.44,18.44,0,0,0-9.82,3.17c-5.47,4-7.86,12.27-3.35,17.89,4.22,5.25,15.76,5.28,21.65,3.47,7.27-2.24,13.35-8.75,13.25-16.62-.11-8.16-6.26-13.66-13.93-14.63-4-.51-7.5,3.81-7.5,7.5,0,4.48,3.47,7,7.5,7.5-1.64-.21-1.12.64-2.91,1.58-3,1.58-7.17.24-10.18-.58l4.49,3.45q-1.75,3.51.56,2.3l1-.09c1.49-.17,3.07,0,4.56,0a22.09,22.09,0,0,0,9.7-1.92,18.12,18.12,0,0,0,9.37-13.08c2.5-14-12.73-20.69-23.83-14.64-5.43,3-9.58,8-14.7,11.47-5.37,3.65-10.47,7.63-12.91,13.86a17.6,17.6,0,0,0-1,9.52c.15.91.39,4,1.19,4.65.09,1.27.52,1.19,1.3-.23,1.5-1.06,1.43-1.4-.22-1.05-2.91-.88-6.57-.27-9.67-1.13a33.87,33.87,0,0,1-8.91-4.07l-1.79,13.71c10.36-1.94,21.38-3.7,31.95-3.17l-3.78-1-1-1.19-1-3.79c0-.68-1.79,2.27-2.23,2.83a17,17,0,0,1-3.67,3.7c-3.17,2.09-6.73.49-9.94-.84a104.53,104.53,0,0,1-22.1-13c-3.45-2.57-8.13-.29-10.26,2.7-2.62,3.67-2.57,7.84-2.49,12.16.05,2.66-1.11,5.63-4.23,5.92L205,134.83a65.43,65.43,0,0,0,8.25-23.39c.58-4-1-8-5.24-9.23-3.52-1-8.65,1.23-9.23,5.24Z" transform="translate(-77.43 -44.76)"/><path class="cls-1" d="M273.77,92.19a424.89,424.89,0,0,0,2.07,49.94c.37,3.7,2.57,6.89,6.5,7.36,3.43.41,7.54-1.65,8.23-5.37a128.39,128.39,0,0,0,2.34-24.74c-.06-6.18.65-15-5.26-18.84s-13.51-.19-17.59,4.44c-4.8,5.44-6.11,12.77-5.65,19.83.52,8,1.78,16,2.71,24l1.35,11.54c.45,3.91.42,8.13,3.77,10.82,4.09,3.27,14,3.14,17.74-.6,2.47-2.44,2.65-5.78,2.69-9,.07-4.63,0-9.26,0-13.89,0-9.65-15-9.67-15,0,0,5.57.38,11.27,0,16.82l1-3.78,1.56-1.58,3.78-1a47.72,47.72,0,0,1-6.55,0l3.78,1-.63-.32,3.45,4.48c-1.5-4.38-1.36-9.87-1.9-14.47l-1.68-14.43c-.35-3-3.74-20.81,2.48-20.35l-3.78-1c-1.48-.73-.85-3.13-1.56-1.26-.33.86.19,2.86.23,3.81q.18,4.28.05,8.57a107.14,107.14,0,0,1-1.75,16l14.73,2a424.89,424.89,0,0,1-2.07-49.94c.17-9.66-14.83-9.66-15,0Z" transform="translate(-77.43 -44.76)"/><path class="cls-1" d="M212.45,101.15c2.36,9.92,16.13,11.58,21.17,2.9,6.32-10.88-4.81-18.5-12.14-24.4-7.18-5.79-18.73-15.93-26.52-4.81-2.59,3.71-2.94,8.28-2.64,12.67.39,5.7.88,11.39,1.31,17.08.59,7.61,9.62,10,14,3.79a43.92,43.92,0,0,0,7.17-16.72c1.54-7.74-10.08-14-13.71-5.78L198,93c-1.64,3.73-1.06,8,2.7,10.26,3.16,1.9,8.63,1,10.26-2.69l3.11-7.1-13.71-5.77a33.3,33.3,0,0,1-5.65,13.13l14,3.78-1-13.49c-.15-1.89-.4-3.8-.41-5.7a14.28,14.28,0,0,1,0-1.73c.09-.6,0-.51-.16.29l-3.79,1c2.65-.29,7.71,5.36,9.89,7.12,1.78,1.44,3.6,2.83,5.35,4.31a22,22,0,0,1,2.11,1.87q-1.73-3.93,6.29-1.12c-2.23-9.38-16.7-5.41-14.47,4Z" transform="translate(-77.43 -44.76)"/><path class="cls-1" d="M193.28,103.12v16.41c0,9.65,15,9.67,15,0V103.12c0-9.65-15-9.66-15,0Z" transform="translate(-77.43 -44.76)"/><path class="cls-1" d="M218.08,105.1l.85-4.67a8.12,8.12,0,0,0-.76-5.78A7.49,7.49,0,0,0,207.91,92a7.35,7.35,0,0,0-3.45,4.48l-.84,4.68a8,8,0,0,0,.75,5.77,7.66,7.66,0,0,0,4.48,3.45,7.57,7.57,0,0,0,5.78-.76,7.32,7.32,0,0,0,3.45-4.48Z" transform="translate(-77.43 -44.76)"/><path class="cls-1" d="M330.47,134.06c9.65,0,9.67-15,0-15s-9.67,15,0,15Z" transform="translate(-77.43 -44.76)"/><path class="cls-1" d="M340.24,112.83c3.17.49,1.1,3,1.62,0A36.82,36.82,0,0,0,342,108a44.71,44.71,0,0,0-.18-8.5c-1-6.06-5.57-11.36-12-11.55-6.83-.2-10.72,5.61-11.36,11.74-.76,7.3-.79,14.75-1.16,22.08-.36,7.12-1,14.3-1.08,21.43,0,6.43,3.22,13.26,10.4,13.77,13.41,1,17.64-17.88,15.45-27.81-.87-3.94-5.47-6.29-9.23-5.23-4.29,1.2-5.83,5.18-5.23,9.22a53.94,53.94,0,0,1-.36,17.43c-1,5.24,3.36,11.16,9.23,9.23s9.42-5.63,11.71-11.31H333.7c.92,3.65,0,7.52.17,11.26a19.86,19.86,0,0,0,4.56,11.92c3,3.92,9.56,2.21,11.78-1.52,3.42-5.78,4-12.11,3.07-18.66s-3.83-12.77-4-19.42c-.28-9.63-15.28-9.67-15,0,.17,5.76,1.66,11.13,3.13,16.66,1.23,4.59,2.43,9.52-.14,13.85L349,161c-1-1.27-.09-5.41,0-6.92a32.89,32.89,0,0,0-.85-9.64c-2-7.83-11.89-6.37-14.46,0-.17.42-.89.71-1.24.83l9.23,9.23a76.32,76.32,0,0,0,.35-25.41l-14.46,4a10.61,10.61,0,0,1-.22,5.67c-.27.83-.79,1.53-1.06,2.32-.71,2-1.93.59.29.83l3.79,1q1.26,2.25.84-.58l.1-2c.09-2,.2-3.93.3-5.89l.6-11.8.6-11.79.25-4.92.15-2.95q.81-3.29-.75-1.08l-3.78,1c-3.6.29-.43-3.25-1.53.27-.35,1.12-.07,2.71-.11,3.87a61.89,61.89,0,0,0-.05,8.17c.53,5.39,3.4,11.08,9.26,12,4,.63,8-1,9.22-5.23,1-3.55-1.24-8.61-5.24-9.23Z" transform="translate(-77.43 -44.76)"/><path class="cls-1" d="M349.62,109.36l4.54-7.29c1.12-1.8,2.39-5.16,4-6.48.53-1,.64-1.09.36-.24l1.8.22A27,27,0,0,0,364,96c1.66.22,3.06.29,4.42,1.24,3.06,2.13,4.67,5.74,8.08,7.64a13.6,13.6,0,0,0,13.26,0c8.43-4.78,9.49-15.61,5-23.42-2-3.54-5.79-8.23-9.95-9.35-5-1.37-9.33,2.13-14.41,1.46l7.5,7.5.29-2.94c.39-4.06-3.76-7.48-7.5-7.5-8.2,0-16.49-.47-24.68-.13-3.33.14-6.45.81-9,3.15a14.22,14.22,0,0,0-2.67,3.53c-.46,1-.9,2-1.31,3q-1.8,3.29,5.43,1c-6.59-7.08-17.18,3.54-10.61,10.61,5.78,6.2,16.6,2.38,18.75-5.48.22-.54.45-1.06.69-1.58q-2.85,1.23.61.76c2.27.51,5.26,0,7.59,0l15.19.08-7.5-7.5-.29,2.94c-.43,4.4,3.82,7,7.5,7.5a22.62,22.62,0,0,0,7.34-.21c1.38-.26,4.55-1.56,5.08-1.52l-3.79-1c1.74.94,2.54,3.34,3.56,5.27.22.42-.34.87-.38.84,1.86.29,2.42.24,1.69-.15a3,3,0,0,1-1-1,20.85,20.85,0,0,0-13.63-9.17c-6.55-1.12-15.16-3.31-20.55,1.78-5,4.71-8.34,12.54-11.94,18.32-5.12,8.22,7.85,15.76,12.95,7.57Z" transform="translate(-77.43 -44.76)"/><path class="cls-1" d="M339.14,82.11l-5.42,5.52c-2.75,2.8-3,7.85,0,10.61a7.64,7.64,0,0,0,10.61,0l5.42-5.52c2.75-2.8,3-7.85,0-10.61a7.65,7.65,0,0,0-10.61,0Z" transform="translate(-77.43 -44.76)"/><path class="cls-1" d="M381,100.36a23.71,23.71,0,0,0,12.47,6.94,12.62,12.62,0,0,0,3.5.43l1.52,0-3.41-4c-1.08.26-.08,7.35.06,8.2,1.3,8.4,15,6.34,14.73-2l-.33-11.37c-.28-9.7-14.44-9.61-15,0l-2,34.79c-.53,9.12.69,20.05-8.54,25.43l5.78-.76c1.82.42,1,.68,1.07-1,0-1.1-.25-2.41-.31-3.51-.16-3.12-.26-6.25-.39-9.37l-2.2,5.31,3.67-3.58L379,142.62a43.7,43.7,0,0,1,.52,4.55c.53,8.18,12.4,10.5,14.73,2a149.39,149.39,0,0,0,5.24-44.48c-.33-9.62-15.33-9.67-15,0a134.94,134.94,0,0,1-4.7,40.49l14.73,2a79.35,79.35,0,0,0-1.06-8.54c-1-5.76-8.8-6.94-12.53-3.31-1.86,1.81-4.2,3.56-5.23,6-1.09,2.6-.52,5.75-.41,8.51.22,5.05.2,10.26,2.28,15,1.81,4.08,5.31,8,10.13,8,5,0,9.48-5.37,12.4-8.93,7.08-8.62,6.68-18.9,7.3-29.5l2.09-35.76h-15l.33,11.37,14.73-2c-.37-2.38.72-4.76.07-7.28a10.77,10.77,0,0,0-4.78-6.52c-4.53-2.7-9.28-.32-13.28-4.43-6.75-6.91-17.36,3.7-10.61,10.61Z" transform="translate(-77.43 -44.76)"/><path class="cls-1" d="M381.28,145.27c-3.4,2.78-7.8,6.65-12.49,6.51-5-.15-9.61-3-14.74-3.19l3.78,14A25.05,25.05,0,0,1,372,160l-3.79-1,1.06.66-3.44-4.48c.81,2,.26,6.8.11,9.19l1-3.78c.8-1.85,3.62-1.13.51-1.24-1.31-.05-2.72.33-4.05.39a41.32,41.32,0,0,1-7.54-.24c-4-.56-8,1-9.22,5.24-1,3.49,1.23,8.67,5.24,9.22,7,1,14.39,1.41,21.27-.48,7.52-2.08,7.85-8.46,7.84-15.1,0-7.2-2.11-13-10.32-13.53-7.07-.43-14.1,1.69-20.39,4.74-7.07,3.43-3.14,13.7,3.79,14,3,.12,5.75,1.57,8.64,2.29a24.56,24.56,0,0,0,11.05.37c7-1.41,12.74-6,18.15-10.38,3.15-2.58,2.63-7.91,0-10.6-3.07-3.14-7.49-2.56-10.61,0Z" transform="translate(-77.43 -44.76)"/><path class="cls-1" d="M437.35,85.08a144.88,144.88,0,0,1,23,16.23c3.67,3.21,7.2,6.59,10.54,10.14,3.16,3.34,5.92,7.17,9.54,10,4,3.18,8,3.53,12.9,4s9.31,2.39,14.18-.15c9.56-5,9.58-15.81,7.81-25-.62-3.23-4.13-5.48-7.23-5.51a18.54,18.54,0,0,0-8.45,1.81,16.28,16.28,0,0,0-3.32,2.13l-1.07.85c-1.41,1.29-1.24,1.34.54.16l7.29,1.93c-1.24-1.23,1.09-5.73,2.91-6.44l-5.78-.75c1,0,1.41.26,1.09.74,5,8.24,18,.71,12.95-7.57-3.67-6.06-9.8-8.93-16.25-5.12a21,21,0,0,0-9.49,13.28c-1.23,5.39-.47,12.64,4,16.47a8.36,8.36,0,0,0,9.2,1.29c2.59-1.15,3.48-3.81,6.41-3.78l-7.23-5.51c.4,2.08,1.57,6.09-.28,7.83,1.45-.2,1.17-.43-.82-.7l-1.72-.44c-1.87-.35-3.76-.24-5.61-.5-3.12-.43-4.24-2.14-6.32-4.5-2.47-2.81-5-5.56-7.61-8.2a161.68,161.68,0,0,0-33.58-25.64c-8.38-4.83-15.95,8.13-7.58,13Z" transform="translate(-77.43 -44.76)"/><path class="cls-1" d="M511.72,78.44h-.78a5.61,5.61,0,0,0-2.89.64,6.71,6.71,0,0,0-4,4,5.61,5.61,0,0,0-.64,2.89l.27,2a7.39,7.39,0,0,0,1.92,3.31l1.52,1.17a7.51,7.51,0,0,0,3.79,1h.78a5.66,5.66,0,0,0,2.89-.65,6.75,6.75,0,0,0,4-4,5.66,5.66,0,0,0,.65-2.89l-.27-2A7.55,7.55,0,0,0,517,80.63l-1.52-1.17a7.4,7.4,0,0,0-3.78-1Z" transform="translate(-77.43 -44.76)"/><path class="cls-1" d="M490.06,82.08l.65.83-2.2-5.3c-.16-1.66,3.66-3.83,0-2-1.39.71-2.79,1.4-4.18,2.1l-8.36,4.18c-6.34,3.18-3.66,15,3.79,14l7.61-1-2-14.73c-5.69,1.45-13.37,4.29-18.27.09-5.34-4.57-9.91-9.21-17.49-8.92l3.78,14c3.72-2.74,10.38-1.34,14.75-1.31l18.6.09c9.66,0,9.67-15,0-15L464.2,69c-6.26,0-13.09-.54-18.41,3.38-5.49,4.06-4.34,14.28,3.79,14,3.08-.12,5.3,3.18,7.45,5a23.3,23.3,0,0,0,9.14,5.35c7.33,2,16-.27,23.15-2.1,7.95-2,6.57-15.85-2-14.73l-7.61,1,3.78,14c8.87-4.45,27.12-10.71,17.17-23.42-2.52-3.22-8-2.59-10.61,0-3.18,3.11-2.48,7.43,0,10.6Z" transform="translate(-77.43 -44.76)"/><path class="cls-1" d="M445.24,91.05a34.63,34.63,0,0,0-5.92,19.48,7.61,7.61,0,0,0,7.5,7.5c4.49,0,7-3.47,7.5-7.5a37.54,37.54,0,0,0-6.21-25.77,7.57,7.57,0,0,0-14,3.78c-.75,12.84-1.51,25.71-1.15,38.58.34,12.18,2.88,24.78.59,36.88-1.24,6.57,5,11.47,11,8.47.22-.11,3.65-.23,3.56-.22a12.86,12.86,0,0,0,4.36-1.55,12,12,0,0,0,5.09-7.14c1.74-6.46.84-14,1.48-20.68a148.72,148.72,0,0,1,3.33-20.77c.23-1,.58-1.91.85-2.87-1.34.56-1.45.78-.31.64.85,0,1.69,0,2.54,0,3.26,0,6.57,0,9.82.21l-3.78-1-1.36-1.42-.76-5.78c0-.18-2.78,1.85-3.62,2.41-1.82,1.2-3.68,2.3-5.57,3.37-8.4,4.75-.85,17.71,7.57,13,6.77-3.82,23.41-13.47,13.64-23-3.59-3.49-9.59-2.65-14.16-2.72-5-.08-10.33-.28-14.29,3.4-6.82,6.34-7,19.3-8.13,27.86-.74,5.72-1.25,11.46-1.49,17.22-.05,1.36-.46,3.54-.13,4.8l-.05,1.35,1.57-2c-.69-1.19-6.87,1.5-7.74,1.93L448,168c2.46-13,.5-25.81,0-38.89-.5-13.53.29-27.06,1.08-40.56l-14,3.79a25.07,25.07,0,0,1,4.16,18.2h15a20.41,20.41,0,0,1,3.87-11.91c5.45-8-7.55-15.52-12.95-7.57Z" transform="translate(-77.43 -44.76)"/><path class="cls-1" d="M463.29,133.43a175.73,175.73,0,0,1,17.78-.15q4.2.18,8.4.57c1.24.12,2.5.2,3.73.4a8.17,8.17,0,0,1,1.54.28c1.29.44.93-.12-1.06-1.67v-4c1.07-.67,1-.67-.11,0l-1.42.41c-1.52.29-3.19,0-4.73.07a11.67,11.67,0,0,0-8.74,4.42c-4.06,5.42-2.29,13.5,3.17,17.28,6,4.17,12.79,2.29,19-.24.62-.26,3.74-.91,4.06-1.43q-4.86-6.39-3.94-1.31l.06,1.9a120.93,120.93,0,0,1,0,12.34l1-3.79q3-1.82,1.32-1.59a2.38,2.38,0,0,1-1.15-.11c.13-.31.15.86,0,1.16,4.24-8.63-8.69-16.24-12.95-7.57-3.88,7.89-.74,17.14,7.68,20.37,7.28,2.8,18.24.66,19.08-8.47a107.42,107.42,0,0,0-.06-14.24c-.17-4-.44-8.13-3.63-11-3.6-3.23-8.54-3.08-12.91-1.75-2,.6-3.84,1.65-5.8,2.37a18.25,18.25,0,0,1-3,.93q-3.08-.42-.14,4.79l-3.79,1c6.5-.86,12.66-.1,17.89-5.07,4.75-4.53,5.08-11.9.05-16.33-4.88-4.3-12.79-4.08-18.89-4.52a177,177,0,0,0-22.45-.11c-9.6.54-9.66,15.55,0,15Z" transform="translate(-77.43 -44.76)"/><path class="cls-1" d="M614.06,81.56l-57.63,0c-3.67,0-8,3.46-7.5,7.5l2.32,18.13c.69,5.37,1.47,10.81,7.6,12.47,5.14,1.38,11.69.34,17,.33,6.1,0,12.4-.49,18.47,0l-3.79-1,.77.45L587.81,115c.77,3.48.22,8.76,0,12.33l1-3.79,1.33-1.23,3.78-1c-4.75.58-9.65.08-14.42,0-4.32,0-8.52.53-12.81.73a10,10,0,0,1-2.89,0q3.59,2.34-1.69,5.82c.55.61,5.13,0,5.85,0l15.62,0c9.66,0,9.67-15,0-15-7.55,0-15.33-.53-22.85.09-6.58.53-11.07,5.57-10.51,12.17,1.39,16.35,22.33,11.09,33.09,11.33,6.09.14,14.7,1.52,18.24-4.81,1.61-2.91,1.3-6.15,1.29-9.35,0-3.5.58-7.87-.58-11.23-2.68-7.78-12.21-6-18.67-6-7.53,0-15.25.52-22.75,0l3.78,1q2.22,4,1.62,1.24l-.37-2.86-.61-4.77-1.34-10.5-7.5,7.5,57.63,0c9.65,0,9.67-15,0-15Z" transform="translate(-77.43 -44.76)"/><path class="cls-1" d="M605.57,159.27c1.06,1,3.33,2.91,3.29,4.59l1-3.78c.92-1.64,2.6-.44.45-.93a24.71,24.71,0,0,1-2.75-.27l-.61-.36.55.73c-.83.7,1.88,1.12-1.13,1.75l-7.3-12.54A27.52,27.52,0,0,1,576,154.31l-2,14.73,19.7.18c9.65.09,9.66-14.91,0-15l-19.7-.18c-8.26-.08-10.45,13-2,14.73a43.63,43.63,0,0,0,37.66-9.7c6.14-5.2-.59-13.94-7.3-12.53-6.26,1.31-10.07,7.42-9.81,13.61.29,6.89,5.81,12.1,12.32,13.52,6.17,1.35,14.83.29,17.92-6,3.33-6.8-1.85-14.4-6.67-19-7-6.66-17.61,3.93-10.6,10.6Z" transform="translate(-77.43 -44.76)"/><path class="cls-1" d="M599.71,156.7c-1.9-6.1-6.56-10.8-13-11.81-3.26-.51-6.28.23-9.39,1.16a24.81,24.81,0,0,1-10.65,1l2,14.73a75,75,0,0,1,17.19-1.22c4.2.16,7.31-3.57,7.5-7.5.51-10.41-11.86-10.63-19.06-12.61-3.6-1-4.29-2.31-6.09-5.36s-4.85-5.67-8.62-5.74c-10.09-.21-10.9,11.61-9.78,18.9,1.3,8.5,5.72,16.12,10.19,23.33l2.69-10.26c-1.22.64-3.95-2.14-4.79-2.86-7.25-6.31-17.9,4.26-10.6,10.61,6.76,5.87,14.27,9.76,23,5.2a7.57,7.57,0,0,0,2.69-10.26,82.65,82.65,0,0,1-6.52-11.75,27.89,27.89,0,0,1-1.9-6.38,16.62,16.62,0,0,1-.2-2.91c.3-1.94.17-2.18-.37-.71l-5.3,2.19.93-.1-3.79-1c-.62-.85-.71-.89-.27-.14.27.5.52,1,.74,1.54a20.71,20.71,0,0,0,2,3,20,20,0,0,0,6.4,5.08,31.52,31.52,0,0,0,7.31,2.54c1.92.44,7.36.49,8.61,2l-2.2-5.3,0,1,7.5-7.5a92.86,92.86,0,0,0-21.17,1.76c-3.66.71-5.84,4.8-5.38,8.23.54,4,3.6,6.07,7.37,6.5a32.91,32.91,0,0,0,12.1-.82c1.53-.39,5.75-3,6.49-.59,2.86,9.18,17.35,5.26,14.46-4Z" transform="translate(-77.43 -44.76)"/><path class="cls-1" d="M544.74,156.65l-.52.29h7.57l1.72,1.76.76,5.78c.91-3.08,1.87-5.49,1.81-8.8s-.34-6.56-.47-9.83q-.45-11.31-.54-22.63c-.15-14.77,0-29.54.23-44.31.13-9.65-14.87-9.66-15,0-.23,18-.47,36.1-.08,54.15q.13,6.39.39,12.79c.15,3.73,1,8.25.26,11.81-.84,4-2.35,7.26,1.19,10.77a8.44,8.44,0,0,0,10.25,1.17c8.37-4.8.82-17.77-7.57-12.95Z" transform="translate(-77.43 -44.76)"/><path class="cls-1" d="M551.56,84.71l30.92-.61c5.07-.1,10.14-.25,15.21-.29,4.18,0,8.69-.19,12.6,1.55,3.73,1.65,8,1,10.26-2.69,1.9-3.18,1-8.63-2.69-10.27-10.09-4.48-20.73-3.58-31.52-3.37l-34.78.68c-9.64.19-9.67,15.19,0,15Z" transform="translate(-77.43 -44.76)"/><path class="cls-1" d="M697.78,90.32c1.72,3.52,1.26,6.93-.13,10.45-1.6,4,1.81,7.87,5.24,9.22a16.21,16.21,0,0,0,19.9-7.52c1-1.76.94-5.33,2.11-6.71,2.39-2.83,9.66,1.21,12.1,2.55,5.24,2.88,8.55,7,12.77,11,8.1,7.79,22.89,7.91,25.53-5.12,2.52-12.46-11.36-21.72-19.1-29.17-7-6.69-17.58,3.9-10.61,10.61,3.69,3.55,7.42,7.07,11.08,10.66,1,1,2.65,3.66,3.79,4.35a.73.73,0,0,1,.11.86c2-.85,2.33-1.46.89-1.85C761,98.39,757.94,96,756.94,95s-2.28-2.31-3.51-3.38a50.59,50.59,0,0,0-11-7.36c-7.51-3.63-16.79-6.34-24.56-1.87a16.08,16.08,0,0,0-7.42,9.47c-.79,2.62-.24,5-3.56,3.69l5.24,9.23c2.91-7.35,2-15-1.37-22-4.23-8.68-17.17-1.08-13,7.57Z" transform="translate(-77.43 -44.76)"/><path class="cls-1" d="M747.68,70.46c-6.07.21-11.57,2.83-17.53,3.3s-12-1.24-17.78-2.74c-9.35-2.43-13.34,12-4,14.46,6.5,1.69,13.2,3.36,20,3.33s12.78-3.12,19.34-3.35c9.62-.34,9.67-15.34,0-15Z" transform="translate(-77.43 -44.76)"/><path class="cls-1" d="M722.66,86.44c1.24-.15,2.43-.08,3.67-.11.57,0,.38,0-.59-.11l.84.15c.65.13,1.28.31,1.91.5a7.58,7.58,0,0,0,9.23-5.24,7.66,7.66,0,0,0-5.24-9.22,24,24,0,0,0-9.82-1,8.16,8.16,0,0,0-5.3,2.2,7.63,7.63,0,0,0-2.2,5.3c.16,3.66,3.33,8,7.5,7.5Z" transform="translate(-77.43 -44.76)"/><path class="cls-1" d="M694.78,86.35,688,97.52l13.71,1.79a13.31,13.31,0,0,0-6.35-8,7.58,7.58,0,0,0-11.29,6.48,101.45,101.45,0,0,0,.63,14.37c.56,4.8.74,10.38,5.07,13.38,3.79,2.61,8.58,1.89,12-1s3.41-6.65,4.92-10.54L692,112l1.64,20.47c.52,6.41.24,13.59,1.76,19.84A10.52,10.52,0,0,0,707.66,160c6.08-1.24,9.16-6.44,9.37-12.36.34-9.65-14.66-9.64-15,0l1.64-2.11h4q2.75,5.94,2.23,2.48l-.16-1.95-.39-4.87-.78-9.74L707,112c-.69-8.64-11.64-9.92-14.73-2a8.31,8.31,0,0,0-.8,2.71q-1.2,3.67,3-.59l3.78,1-.84-.58,3.45,4.48c-2.1-5.92-1.87-13.08-1.72-19.28l-11.29,6.48-.54-.93c2,6.09,10.28,7.46,13.71,1.79l6.75-11.17c5-8.28-8-15.83-13-7.57Z" transform="translate(-77.43 -44.76)"/><path class="cls-1" d="M705.8,139.28c-6.24,3.1-9.87,9.58-10.26,16.38-.22,3.72,3,6.9,6.5,7.37,3.31.44,7.69-1.68,8.23-5.37a18.72,18.72,0,0,0-.63-9.68c-1.41-3.65-5.11-6.57-9.23-5.24-3.56,1.15-6.74,5.31-5.24,9.23.09.23.7,2.43.53,1.48-.21-1.23-.22,2.44.11.22l14.73,2c.07-1.3,0,.3-.08.31s.33-1.24.36-1.37c.17-.91-.6,1-.11.22.25-.4.46-.83.71-1.23.48-.78.27-.16-.14.17.28-.23.54-.55.8-.81.93-.95-.68.29,0,0,.42-.19.83-.48,1.24-.69,3.52-1.74,4.78-7,2.69-10.26a7.69,7.69,0,0,0-10.26-2.69Z" transform="translate(-77.43 -44.76)"/><path class="cls-1" d="M700.47,143.47c-6.71-1.35-3.87-11.18-2.82-15.63,2.19-9.39-12.27-13.4-14.47-4-1.7,7.29-3.14,15-.22,22.17,2.39,5.89,7.17,10.64,13.53,11.91,9.42,1.89,13.46-12.57,4-14.46Z" transform="translate(-77.43 -44.76)"/><path class="cls-1" d="M708.86,162.29a8.82,8.82,0,0,1,.89.2c1.52.44,2.52-.71,3-3.43l3.78,1q-2.37,6.51.67,5.4a8.1,8.1,0,0,1,1.2-.3,52.55,52.55,0,0,0,5.29-.41c3.25-.18,6.5-.24,9.76-.39,6.81-.32,13.64-1,20.15-3.15,6.09-2,7.47-10.28,1.79-13.71l-2-1.19q-4.21,5-.73,3.76a11.65,11.65,0,0,0,3.4-.76c2.72-.84,7.56-3.32,8.34-6.37l.77-1.14a2.14,2.14,0,0,1-2.93-.33c0-.05.08,2.24.13,2.53q2.54-1.25.19-.47-1.11.25-2.19.6a14.88,14.88,0,0,0-3.59,1.79c-3.51,2.44-3.82,5.45-4.76,9.31-.5,2-1.22,2.53-3.49,3.46-7.28,3-15.9,3-23.56,2-4-.5-7.5,3.8-7.5,7.5,0,4.47,3.46,7,7.5,7.5,12,1.48,30.1.67,38.45-9.6,1.93-2.36,3.61-5.63,3.51-8.79-.12-3.76-1,1.22-1.5.95.4.2,2.89-.8,3.29-.95,7-2.59,9.25-9.68,8.55-16.62-.67-6.58-4.91-12.07-11.56-13.35a11.72,11.72,0,0,0-9.14,2c-1.64,1.17-4,5.08-4.5,5.44-1.89,1.27-5.17,1-7.32,2.1a11.66,11.66,0,0,0-5.77,6.44c-2.71,7.5,2.89,13.49,8.82,17.07l1.79-13.71c-9.3,3-18.94,2.44-28.57,3.18-8.56.66-18.61,3.7-18,14.27.55,10,13.2,12.89,19.18,5.66,7-8.42-.24-19.61-9.37-22.06-9.33-2.51-13.31,12-4,14.46Z" transform="translate(-77.43 -44.76)"/><path class="cls-1" d="M803.35,105.49c8.12,1.93,22.83,5.66,29.13-1.79,3-3.54,3-8.79.78-12.75a14,14,0,0,0-4.34-4.57c-1.06-.71-5.11-1.68-5.66-2.57l1,3.78,0-1.25-1,3.78c2.48-3.74,9.75-3.85,13.67-4,6.4-.3,12.86-.48,19.28-.5,2.05,0,4.46-.19,6.22,1,2.07,1.44,3.52,4.33,5.13,6.2a44.2,44.2,0,0,0,6,5.65c1.72,1.35,5.41,2.88,6.38,4.76l-1-3.79.09,1,1-3.78,2.29-1.63-.89.12a15.09,15.09,0,0,0-2.22-.29,19.88,19.88,0,0,1-5-2.24c-4-2.19-7.67-4.72-11.84-6.51A42.48,42.48,0,0,0,834,84.4c-9.29,2.57-5.34,17,4,14.46,8.36-2.31,15.86-.76,23.21,3.55,6.65,3.9,13.54,8.38,21.62,7.65,7.88-.7,14.19-7.61,9.52-15.4-2.22-3.7-6.28-5.25-9.5-7.82a50.45,50.45,0,0,1-7.49-8.1c-5.38-6.65-12.41-8.27-20.7-8.13-7.92.13-16,0-23.86,1-7.25.92-17,3.7-20.54,10.93A10.14,10.14,0,0,0,812.18,94a16.23,16.23,0,0,0,5.2,3.37c.92.36,1.82.75,2.71,1.18-.1-1.08-.07-.91.11.49v-4c.42-2.28,4.63-2.2-.17-2.32-1.45,0-2.91-.11-4.36-.25A60.7,60.7,0,0,1,807.33,91c-9.38-2.24-13.38,12.22-4,14.46Z" transform="translate(-77.43 -44.76)"/><path class="cls-1" d="M872.17,108.87a47.9,47.9,0,0,0,0,24.25l14.47-4a73.88,73.88,0,0,0-4.58-9c-.77-1.33-1.23-2.88-2-4.17-.87-1.51,1.23-1.62-1.42-1.63-2.27,0-.89,1.58-.74,3.5.12,1.57.14,3.15.2,4.72.16,3.85.37,7.7.48,11.55.06,2.26.44,4.09-1.24,5.67s-4.34,2.58-6.24,4A36.2,36.2,0,0,0,859.66,158c-2,4.57.22,11.94,6.48,11.28,7-.73,12.74-4.73,15-11.68a21.64,21.64,0,0,0,.6-10,33.25,33.25,0,0,0-1.14-4.93l-.66-2c-.26-1.92-.56-1.74-.88.54l-10.61-10.61A158.64,158.64,0,0,0,855,144.47c-4.08,4.79-9.38,10.08-10.56,16.47-1.06,5.71,1.81,12.12,7.66,13.88s11.61-1.57,13.53-7.33c3.05-9.18-11.43-13.12-14.47-4,.24-.73,7.38.11,8.73-1.22a25.67,25.67,0,0,0,1.81-2.44c1.81-2.3,3.7-4.55,5.63-6.75A156.55,156.55,0,0,1,879,141.16c7.19-6.61-3.32-16.74-10.61-10.61-4,3.38-4.32,8.61-3.14,13.41.26,1.07,3.61,10,.85,10.3l6.47,11.29a23.42,23.42,0,0,1,7.91-10.11c3.88-2.69,8.17-4.56,10.71-8.81,2.81-4.68,2.5-10.18,2.29-15.42-.25-5.94,0-12.14-1-18-1.82-10.55-13.92-18.16-22.78-9.58a16,16,0,0,0-4.39,14.73c1,5.61,4.81,9.64,6.89,14.76,3.55,8.69,17,5.62,14.47-4a31.64,31.64,0,0,1,0-16.28c2.39-9.35-12.07-13.34-14.47-4Z" transform="translate(-77.43 -44.76)"/><path class="cls-1" d="M862.47,150.55c-9.49-1.16-21.27-.2-29.55,5-9.15,5.8-7.88,20,4.06,20.81,7.32.47,21.55-4.79,19.42-14.19-2-9-14.76-13-22.68-13.43v15L856.3,162c9.56-.74,9.64-15.75,0-15l-22.58,1.76c-9.58.74-9.73,14.48,0,15a14.31,14.31,0,0,1,4.94,1.07c1.09.47,3.64,3.05,3.27,1.35l.76-5.78c2.16-1.77,2.23-2,.23-.75a11.38,11.38,0,0,1-2.07,1c-.71.27-1.43.51-2.16.71q-2.52.49,2.52,2.51v4c.14-.56,7.88-2.18,9.43-2.4a45.93,45.93,0,0,1,11.83.12c4,.49,7.5-3.8,7.5-7.5,0-4.46-3.46-7-7.5-7.5Z" transform="translate(-77.43 -44.76)"/><path class="cls-1" d="M807.64,153.78a95.44,95.44,0,0,1,15.29,13c3.9,4.07,11.1,2.07,12.53-3.31a32.26,32.26,0,0,0-4.77-27.27c-2.38-3.28-6.52-4.88-10.26-2.69-3.23,1.88-5.08,7-2.69,10.26,3.47,4.77,4.79,9.93,3.26,15.71l12.53-3.31a114.13,114.13,0,0,0-18.32-15.37c-8-5.45-15.52,7.55-7.57,12.95Z" transform="translate(-77.43 -44.76)"/><path class="cls-1" d="M832.39,159.05a237.18,237.18,0,0,1-19.06-18.46c-6.56-7.11-17.15,3.52-10.6,10.61a237.23,237.23,0,0,0,19.06,18.46c3.06,2.65,7.59,3,10.6,0,2.71-2.71,3.08-7.94,0-10.61Z" transform="translate(-77.43 -44.76)"/><path class="cls-1" d="M815.38,140.79c-.15-.4-2.06,1.21-2.12,1,.13.47,4.14-.06,4.68-.18a9.44,9.44,0,0,0,7.4-6.79c.84-3.15-.06-6.64,0-9.85A41.91,41.91,0,0,1,827,113.78c2.62-9.31-11.85-13.28-14.47-4a59.48,59.48,0,0,0-2.25,14.27c0,1.24-.57,6.23.33,7.12q7.33-4.68,2.61-4.4l-2.16.28c-7.79,1.49-13.12,10.12-10.18,17.72,1.45,3.76,5,6.41,9.22,5.24,3.61-1,6.71-5.41,5.24-9.23Z" transform="translate(-77.43 -44.76)"/><path class="cls-1" d="M801.53,106.21a94.82,94.82,0,0,0,.72,24.67c.6,4,5.66,6.22,9.23,5.24,4.29-1.18,5.84-5.2,5.24-9.23a80.42,80.42,0,0,1-.19-20.68c.44-4-3.76-7.5-7.5-7.5-4.42,0-7,3.45-7.5,7.5Z" transform="translate(-77.43 -44.76)"/><path class="cls-1" d="M915.49,83.37c10.46,8.26,22.59,13.31,36,14,11.65.63,25.65-4.52,36.27,1.84L985.05,89c-.12.23.18.27.41.48l1.92,7.3c.63-3.05,4.2,2.16,4.72,3.48,2.07,5.32,1.75,12.21,2,17.83.51,10.76.19,22-5.76,31.34-5.74,9.05-14.53,10.46-24.56,10.74a143.51,143.51,0,0,1-38.5-4.24c-9.37-2.31-13.37,12.15-4,14.47,16.36,4,33.74,6,50.57,4.31,14.53-1.45,26-9.37,32.15-22.75,6.64-14.46,5.79-31.11,4.18-46.57-.8-7.71-2.86-15.34-9.13-20.42-5.52-4.46-13.23-5.52-19.42-1.69C972,88,969.83,98.74,979.05,103a14.78,14.78,0,0,0,19-6.41,7.65,7.65,0,0,0-2.69-10.26c-11.12-6.66-23.44-4.79-35.72-4-12.05.77-23.86-1.92-33.49-9.52-3.2-2.53-7.47-3.07-10.61,0-2.63,2.58-3.17,8.1,0,10.61Z" transform="translate(-77.43 -44.76)"/><path class="cls-1" d="M926.72,169.34c8-5.81,18-4.75,27.42-5.06A109.86,109.86,0,0,0,987.43,158c9-3.21,5.14-17.71-4-14.46a105.17,105.17,0,0,1-34.13,5.83c-10.44.16-21.4.65-30.17,7-3.31,2.4-4.84,6.5-2.69,10.26,1.85,3.26,7,5.06,10.26,2.7Z" transform="translate(-77.43 -44.76)"/><path class="cls-1" d="M983.91,152.86a84.43,84.43,0,0,0,13-4.62c3.61-1.57,4.71-7.13,2.7-10.26-2.42-3.74-6.41-4.37-10.27-2.69.77-.33-1.16.48-1.34.55-.92.35-1.85.69-2.79,1-1.74.59-3.51,1.1-5.29,1.55-3.8,1-6.47,5.42-5.24,9.23a7.66,7.66,0,0,0,9.23,5.24Z" transform="translate(-77.43 -44.76)"/><path class="cls-1" d="M996.32,140.62l.76-33.59c.22-9.66-14.78-9.66-15,0l-.76,33.59c-.22,9.66,14.78,9.65,15,0Z" transform="translate(-77.43 -44.76)"/><path class="cls-1" d="M981.64,70.38a201.28,201.28,0,0,1-48.8,1.48c-9.61-.84-9.56,14.16,0,15a217,217,0,0,0,52.79-2c4-.63,6.24-5.64,5.24-9.23-1.19-4.26-5.19-5.87-9.23-5.24Z" transform="translate(-77.43 -44.76)"/><path class="cls-1" d="M924.53,78.91V150c0,9.65,15,9.67,15,0V78.91c0-9.66-15-9.67-15,0Z" transform="translate(-77.43 -44.76)"/><path class="cls-1" d="M914.66,87.15a275.19,275.19,0,0,1,4.23,66c-.53,9.65,14.47,9.62,15,0a292.46,292.46,0,0,0-4.76-70c-1.79-9.48-16.25-5.46-14.47,4Z" transform="translate(-77.43 -44.76)"/><path class="cls-1" d="M1038.46,86.51a115.37,115.37,0,0,0,42,8.34c11.88.1,27.57-.33,32.22-13.53L1099,83.11a5.62,5.62,0,0,1,.35,3.59l14.73,2c-.47-5.25-1.36-10.83-5.25-14.76-4.85-4.89-11.72-4.15-18-4l-43.17,1c-9.63.21-9.67,15.21,0,15l31.4-.71c5.23-.12,10.46-.26,15.69-.35,4.06-.08,4-.46,4.35,3.85.7,7.83,12.92,10.89,14.73,2A22.92,22.92,0,0,0,1112,75.54c-3-6.33-11.77-3.72-13.71,1.79-.58,1.66-7,2.07-8.83,2.21a107.75,107.75,0,0,1-16.07,0,103.77,103.77,0,0,1-30.91-7.51c-3.79-1.53-8.2,1.66-9.23,5.24-1.22,4.26,1.5,7.71,5.24,9.22Z" transform="translate(-77.43 -44.76)"/><path class="cls-1" d="M1044.12,93.27c-1.68,8.79-2.59,27.1,8.55,30.31,5.27,1.51,11.24-.8,16.39-1.94,1.09-.25,10.5-1.75,10.07,1.09l14.73,2,.71-11.28h-15c.37,3.59-.33,7.37.09,10.87l-.25,1.6c3.58-1.44,4.46-2.13,2.62-2.07-1.22-.46-3.09-.12-4.41-.33a13.91,13.91,0,0,1-3.31-.93c-.43-.19-1.47-1.79-1.24-.83-.23-1,1.22-3.5,1.41-4.51a11,11,0,0,0-.4-5.36l-14.46,4c2.88,8.22,9.11,12.88,17.7,13.78,7.91.82,9.48-10.29,3.79-14a65.9,65.9,0,0,1-16.88-15.49c-2.46-3.26-6.45-4.87-10.26-2.69-3.21,1.82-5.13,7-2.7,10.26a86.4,86.4,0,0,0,22.27,20.87l3.78-14a4.19,4.19,0,0,1-3.24-2.76c-3.16-9-17.17-5.41-14.46,4l.4,1.38v-4c-.57,3.18-2,5.89-1.85,9.22a15.64,15.64,0,0,0,2.68,7.58c3.72,5.66,10.15,7.76,16.56,8.46,5.67.61,11.91.55,15.12-5s2.66-13.92,2-20c-1-9.51-14.38-9.78-15,0l-.71,11.28c-.52,8.31,13.44,10.41,14.73,2,1.81-11.8-7-20.42-18.64-20.78-5.43-.17-10.64,1.58-15.88,2.66-.78.18-1.56.33-2.35.44l2.52,1.17c.07-.06-.85-3.52-.92-4a27.26,27.26,0,0,1,.26-8.92c1.79-9.44-12.66-13.48-14.46-4Z" transform="translate(-77.43 -44.76)"/><path class="cls-1" d="M1036.64,82.26a89.35,89.35,0,0,0,.61,36c2.26,9.8,7.69,25,20.84,20.25,5.41-2,8.11-7.94,6.69-13.4s-6-8.4-10.47-11.26c-4.71-3-9.78-5.12-15-1.89-6,3.75-6.2,10.67-5,16.91l13.71-5.78a15.54,15.54,0,0,1-2.13-7.44c-.32-9.63-15.33-9.68-15,0a32.15,32.15,0,0,0,4.18,15c4.36,7.74,15.26,2.28,13.71-5.78q.12-3.54-1.81,0h-4c1.62.24,3,1.39,4.42,2.3.85.53,1.68,1.06,2.51,1.61s.89.73.19.31l1-3.79q5.86,1.34,3.43-1.64l-.33-.86a42.93,42.93,0,0,1-1.63-5.12,69.56,69.56,0,0,1-2.11-10.29,71.35,71.35,0,0,1,.61-21.19c1.7-9.44-12.76-13.49-14.46-4Z" transform="translate(-77.43 -44.76)"/><path class="cls-1" d="M1030.91,120l3.26,11.48c2.33,8.21,14.48,6.45,14.73-2A320.54,320.54,0,0,0,1047,83.64c-.45-4-3.12-7.5-7.5-7.5-3.69,0-8,3.45-7.5,7.5a320.54,320.54,0,0,1,1.93,45.84l14.73-2L1045.37,116c-2.63-9.27-17.11-5.33-14.46,4Z" transform="translate(-77.43 -44.76)"/><path class="cls-1" d="M1032.05,89.08a733.55,733.55,0,0,0,9.7,75.46c1.73,9.48,16.19,5.46,14.47-4a692.59,692.59,0,0,1-9.17-71.47c-.72-9.56-15.73-9.64-15,0Z" transform="translate(-77.43 -44.76)"/><path class="cls-1" d="M1046.32,140.64c.07,5.08.34,10.14.89,15.19.44,4,.51,8.62,2.44,12.25,4.57,8.63,16,6.67,24.14,6.65,8.63,0,18.72,1.36,27.1-1.17s13.62-10.11,11.88-18.88l-14.47,4,2.07,8,14.47-4c-2.71-9.36-11.49-13.68-20.7-13.93-4.86-.14-9.77.58-14.63.76s-11.28,1-16.16,0l4.48,3.45-.35-.61v7.57c-2.84,1.5-3.35,2.06-1.55,1.66.6-.09,1.2-.16,1.81-.22,1.55-.18,3.12-.33,4.68-.44,3.13-.23,6.27-.33,9.41-.32a112.73,112.73,0,0,1,18.61,1.65c9.44,1.63,13.49-12.82,4-14.47a132.2,132.2,0,0,0-30.12-2c-7.06.4-22.14.44-20.67,11.34,1.38,10.19,16.76,7.65,23.95,7.46,5-.12,9.89-.72,14.84-.8,2.56-.05,7-.23,7.95,2.9,2.68,9.27,16.89,5.39,14.47-4l-2.07-8c-2.44-9.43-16.34-5.4-14.47,4-.17-.86.4-.63-.37-.06a5.74,5.74,0,0,1-2.28.82,30.15,30.15,0,0,1-6.16.26l-17.67,0c-2.61,0-5.23,0-7.85,0-.55,0-1.1,0-1.65,0-1.2-.17-1,.23.61,1.19a13.82,13.82,0,0,0-.5-3.21,147.81,147.81,0,0,1-1.11-17.08c-.14-9.65-15.14-9.68-15,0Z" transform="translate(-77.43 -44.76)"/><path class="cls-1" d="M1097.43,165.28l2.34,6.26a8.11,8.11,0,0,0,3.44,4.48,7.68,7.68,0,0,0,5.78.76c3.59-1.17,6.71-5.3,5.24-9.23l-2.33-6.25a8.1,8.1,0,0,0-3.45-4.49,7.63,7.63,0,0,0-5.78-.75c-3.59,1.16-6.71,5.29-5.24,9.22Z" transform="translate(-77.43 -44.76)"/><path class="cls-1" d="M1106.25,159.06c9.65,0,9.67-15,0-15s-9.67,15,0,15Z" transform="translate(-77.43 -44.76)"/><path class="cls-1" d="M1030.81,133.59q1.55,16,2,32c.26,9.64,15.26,9.68,15,0q-.43-16-2-32c-.39-4-3.17-7.5-7.5-7.5-3.76,0-7.9,3.45-7.5,7.5Z" transform="translate(-77.43 -44.76)"/><path class="cls-1" d="M261.33,470c1.64,1,2.21,3.33,2.84,5.08a50.89,50.89,0,0,0,3.27,8c4.64,8.14,14.37,6.36,17.41-2.05,4.84-13.44-7.84-33.72-23.29-28.72-9.17,3-5.45,16.67,4,14.46,2-.46,3.19.24,4.82,1.45,3.25,2.41,8.37.53,10.26-2.7,2.23-3.81.57-7.84-2.69-10.26-4.77-3.53-10.69-4.28-16.38-2.95l4,14.46c2-.64,3.08,1.57,3.86,3.17a15,15,0,0,1,1.16,3.18c.13.56.25,2.66.43,2.47l3.31-1.93-.85.22,5.78.76-.57-.33,2.69,2.69c-2.18-2.86-2.9-6.68-4.28-9.95a20.5,20.5,0,0,0-8.18-10c-8.23-5.11-15.77,7.86-7.57,13Z" transform="translate(-77.43 -44.76)"/><path class="cls-1" d="M279.69,467.66c9.65,0,9.67-15,0-15s-9.67,15,0,15Z" transform="translate(-77.43 -44.76)"/><path class="cls-1" d="M276.15,477.34c-.56,8.71-.42,18.25,9,21.45,2,.68,2.92,3.25,4.54,5.82,2.33,3.7,5.42,6.36,10.09,5.59,7.84-1.29,11.93-10.76,11.47-17.88a17.83,17.83,0,0,0-4.4-10.83c-2.71-3-6.83-4.14-9.45-7.08-6.43-7.23-17,3.41-10.6,10.6,1.54,1.73,14.25,8.06,8.2,11.35l3.78-1-.79.08,3.78,1c1.86,1.09.1-.76-.4-1.63s-1.06-1.86-1.66-2.75a19.63,19.63,0,0,0-5.54-5.76,10.22,10.22,0,0,0-3.38-1.54c-4.39-.85,1.51,1.47.59,2.23.38-.31-.31-8.7-.25-9.64.63-9.63-14.37-9.6-15,0Z" transform="translate(-77.43 -44.76)"/><path class="cls-1" d="M265.22,465.4c-18.16,6-8.7,39.4,9.93,32.19,6.29-2.44,7.15-9.75,1.79-13.71-11-8.15-25.2-14.25-37.91-6-5.24,3.38-10,7-10.24,13.66-.24,7.39,1.34,15.16,3.39,22.22,1.09,3.75,5.32,6.51,9.23,5.23,8.75-2.86,17.74-9.66,19.91-19.09,2.53-11-11.61-20.11-18.84-9.93a19.16,19.16,0,0,0-3.08,12c.44,5.73,4.2,8.86,9.14,11,2.33,1,2.81.81,3.27,3.17s.22,5,.77,7.49a29.43,29.43,0,0,0,7.11,13.06c2.56,2.87,8.07,2.94,10.61,0a19.93,19.93,0,0,0,5-11.92c.35-3.85-.44-7.85.23-11.66H261.07c2.17,7,3.57,19.7,13.4,19,9.08-.63,11.38-11.27,12.16-18.52l-14.73,2a54.42,54.42,0,0,1-.08,13.91c-.38,3.24,2.6,6.4,5.51,7.24,3.46,1,6.42-.8,8.47-3.45a42.77,42.77,0,0,0,7.13-14.34l-14.74-2-.54,15.81,7.5-7.5-7,.07c-9.65.1-9.68,15.1,0,15l7-.07a7.65,7.65,0,0,0,7.5-7.5l.54-15.81c.3-8.58-12.4-10-14.73-2a31.5,31.5,0,0,1-5.62,10.76l14,3.78a68.27,68.27,0,0,0-.46-17.89c-.52-3.68-4.95-5.82-8.23-5.38-3.93.54-6.1,3.6-6.5,7.37-.08.8-.2,4-.94,4.54l3.78-1-1.06.11,5.3,2.2c-1.46-1.19-2.61-8.51-3.18-10.32-2-6.54-13.09-7.71-14.46,0a50.07,50.07,0,0,0-.68,9.93c.05,1.86.68,5.43-.7,7H270.3c-5-5.64-2.08-13-5.78-19.14a18.22,18.22,0,0,0-7.46-6.62L254,499l.33,1.66c.5-3.76,1.22-1-1.39-.52h-4c-.93-3.79-1.73-4.84-2.38-3.16a9.23,9.23,0,0,1-1,1.66,14.71,14.71,0,0,1-2.11,2.35,16.35,16.35,0,0,1-6,3.49l9.22,5.24a69.15,69.15,0,0,1-2.58-12.64c-.11-1.24-.18-2.48-.23-3.73q.09-3.54-.27-.37a24.35,24.35,0,0,1,4.41-3c7-3.83,15.89,2.81,21.4,6.88l1.79-13.71c-.42.17-.13.88-.6-.93-.19-.7-.05-1.43-.22-2.12-.48-1.95,2-1.24-1.13-.2,9.13-3,5.22-17.5-4-14.47Z" transform="translate(-77.43 -44.76)"/><path class="cls-1" d="M242.25,517.18l-.72,51c-.05,3.62,2.43,6,5.51,7.23,8.21,3.36,17.72,2.44,26.41,2.48,9.47,0,17.55,0,25.35-6.09,6.21-4.81,13.07-11,11.89-19.67-1.21-8.92-9.68-12-17.63-11-4,.48-7.5,3.11-7.5,7.5,0,3.69,3.45,8,7.5,7.5,1.28-.15,5.39.51,3.53-1.16-1.7-1.53-.21-.59-1.52.17a13.51,13.51,0,0,0-1.88,1.83c-3.45,3.2-6.59,5.81-11.45,5.95-5.38.16-10.78,0-16.15,0-5,0-9.82,0-14.57-1.9l5.51,7.23.72-51c.13-9.65-14.87-9.66-15,0Z" transform="translate(-77.43 -44.76)"/><path class="cls-1" d="M284,546.13c-2.57,4.43-8.09,5.6-12.89,4.83-2.25-.37-4.34-.86-5.07-3.13-.91-2.81.94-7.16,1.75-9.73,2-6.33-5.51-11.67-11-8.47-9.68,5.64-11.46,17.35-10.12,27.64,1.6,12.28,16.59,12.53,25.91,9.93s5.34-17.07-4-14.46a18.12,18.12,0,0,1-6.46.82c-.18,0-2.57-.44-2.57-.44l1.89,2c-.05-.9-.08-1.79-.1-2.68-.08-3.42-.32-7.92,3-9.86l-11-8.47c-1.86,5.89-3.27,12.36-1.5,18.46,1.95,6.67,7.74,11,14.28,12.6,11.52,2.84,24.69-.84,30.85-11.48,4.84-8.37-8.12-15.93-13-7.57Z" transform="translate(-77.43 -44.76)"/><path class="cls-1" d="M306.25,554.38c9.65,0,9.67-15,0-15s-9.67,15,0,15Z" transform="translate(-77.43 -44.76)"/><path class="cls-1" d="M276.05,574.22l-3.83,2.28a18.17,18.17,0,0,0-1.91,1.14l-.88.5q6,2.34,4.05.46c-1.34-2.48-4.63-4.28-7.14-5.11-3.89-1.29-8.13,1.5-9.22,5.24l-1.07,3.65c-2.72,9.28,11.75,13.25,14.46,4l1.07-3.66L262.36,588c-2-.65-1.43-.87-.29.37a18.58,18.58,0,0,0,1.67,1.65,10.85,10.85,0,0,0,7.14,2.8c4.71,0,8.86-3.29,12.74-5.59,8.28-4.94.75-17.91-7.57-13Z" transform="translate(-77.43 -44.76)"/><path class="cls-1" d="M246.93,555.85a73.56,73.56,0,0,1-2-18.35c.15-9.66-14.85-9.66-15,0a89.87,89.87,0,0,0,2.5,22.34c2.23,9.39,16.7,5.41,14.46-4Z" transform="translate(-77.43 -44.76)"/><path class="cls-1" d="M383.79,494.35,393.93,507c3.1,3.85,9.53,2.27,11.77-1.52a19.17,19.17,0,0,0,1.54-16.79c-1.54-3.74-5-6.41-9.22-5.24-3.54,1-6.8,5.46-5.24,9.22a15.5,15.5,0,0,1,.73,2.18c-.29-1.17,0,.81,0,1.05,0-1.19-.15.71-.24,1-.37,1.36.26-.32-.52,1l11.78-1.52-10.14-12.6c-2.54-3.16-8-2.65-10.6,0-3.12,3.12-2.55,7.44,0,10.6Z" transform="translate(-77.43 -44.76)"/><path class="cls-1" d="M401.22,489.56c.46-.44,4,0,4.82,0H441.3c.19,0,3.31.06,3.32,0l-1.84-1.07a7,7,0,0,1,.84,1.74c1.51,5.83,4.62,11.68,6.84,17.29,1.48,3.75,5,6.41,9.22,5.24,3.58-1,6.74-5.43,5.24-9.23-2.9-7.33-5.13-15.84-9.19-22.61-4.39-7.34-12.75-6.39-20.15-6.39H410.8c-7.16,0-14.59-.9-20.18,4.42-7,6.67,3.61,17.27,10.6,10.61Z" transform="translate(-77.43 -44.76)"/><path class="cls-1" d="M466.7,507.5l1.43-4a7.55,7.55,0,0,0-.75-5.78,7.51,7.51,0,0,0-10.26-2.69,8.41,8.41,0,0,0-3.45,4.49l-1.43,3.95a7.54,7.54,0,0,0,.75,5.78,7.64,7.64,0,0,0,4.49,3.44,7.55,7.55,0,0,0,5.77-.75,8.43,8.43,0,0,0,3.45-4.48Z" transform="translate(-77.43 -44.76)"/><path class="cls-1" d="M453.91,503.34c1.34.12.74.59.76-.12,0-.45-1.17-1.76-1.44-2.16a45,45,0,0,0-3.74-5,34,34,0,0,0-10.8-7.74c-9-4.14-18.76-4.85-28.51-5.3s-9.63,14.56,0,15c8.78.41,18.76.6,26.08,6.19,2.95,2.26,4.54,5.48,6.82,8.33a14.69,14.69,0,0,0,10.83,5.76c9.61.89,9.55-14.12,0-15Z" transform="translate(-77.43 -44.76)"/><path class="cls-1" d="M443,497.34c9.65,0,9.67-15,0-15s-9.67,15,0,15Z" transform="translate(-77.43 -44.76)"/><path class="cls-1" d="M372.54,504.51a36.26,36.26,0,0,0,8.36,8c2.34,1.72,4.07,2.26,3,5.15-1.67,4.63-3.06,8.61-2.62,13.67.42,4.81,1.87,9.36,2.85,14.06.91,4.33-.38,9,1.16,13.12a11.12,11.12,0,0,0,10.16,7.27c10.93.38,14.78-10.23,14-19.43-.78-9.55-15.79-9.64-15,0,.07.92-.33,3.8.19,4.59a6.34,6.34,0,0,0,1.3-.11l3.55,2.41c1.06-.25-.47-9.52-.6-10.22-1.2-6.6-4.09-12.5-1.49-19.09,2.39-6.08,3-12-1.13-17.51-2.95-3.87-8.05-5.62-10.84-9.47-2.39-3.3-6.5-4.83-10.26-2.69-3.26,1.85-5.06,7-2.69,10.26Z" transform="translate(-77.43 -44.76)"/><path class="cls-1" d="M389.52,549.57c2.31-13.52,8.3-30.06-1.13-42-4.34-5.47-12.54-.55-12.81,5.3q-.46,10.33-.23,20.67c.21,9.64,15.21,9.67,15,0q-.23-10.33.23-20.67l-12.8,5.31c2.11,2.65.52,8.38,0,11.36q-1.37,8-2.74,16c-1.61,9.44,12.84,13.5,14.47,4Z" transform="translate(-77.43 -44.76)"/><path class="cls-1" d="M402.36,573.68c17,.75,38.11,2.19,53.33-7,7.55-4.58,10.41-12.47,9.8-21-.28-4-.46-8.57-3.56-11.46-3.54-3.3-9.2-2.68-13.67-2.9l3.78,14a2.45,2.45,0,0,1,2.15-.3c9.39,2.2,13.4-12.26,4-14.47a18.57,18.57,0,0,0-13.71,1.82c-6.84,3.7-3.31,13.63,3.79,14a35.66,35.66,0,0,1,6.37.43l-4.48-3.44c1.49,2.1.7,8.25-1.41,10.08-3.38,2.92-9.65,3.76-13.88,4.54-10.66,2-21.74,1.29-32.5.82-9.65-.43-9.63,14.57,0,15Z" transform="translate(-77.43 -44.76)"/><path class="cls-1" d="M440.75,542.32c-.65.74-1.32,1.65-2.38,1.76l7.5,7.5a7.07,7.07,0,0,1-.07-2.34c1.71-9.35-12.15-13.49-14.47-4-.51,2.11-6.26,1.76-7.94,1.9l-14.76,1.25c-9.55.8-9.64,15.81,0,15,7.77-.66,15.86-.75,23.54-2.21,6.43-1.23,12-5.39,13.63-12l-14.47-4a22.87,22.87,0,0,0-.46,6.33c.34,3.69,3.17,8,7.5,7.5,5.13-.56,9.49-2.23,13-6.15,6.41-7.18-4.16-17.82-10.61-10.61Z" transform="translate(-77.43 -44.76)"/><path class="cls-1" d="M496.88,509.1l19.83-.13c5.51,0,9.57-6.41,6.47-11.29a38.83,38.83,0,0,0-8.65-9.82c-3.18-2.5-7.51-3.09-10.61,0-2.6,2.61-3.19,8.09,0,10.61a26.94,26.94,0,0,1,6.31,6.78L516.71,494l-19.83.13c-9.65.07-9.67,15.07,0,15Z" transform="translate(-77.43 -44.76)"/><path class="cls-1" d="M509.78,498.06c3.31-.77,6.81-2,9.23-4.58,3-3.17,3.1-6.87,3.49-11l-1,3.78c-1.18.72-1.36,1-.53.93l3.46-.12c2.33-.07,4.65-.11,7-.07a47.74,47.74,0,0,1,12.48,1.66c4.17,1.22,8,3.63,12.47,2.69a10.37,10.37,0,0,0,8.27-8.07l-12.53,3.31,9.07,10,3.88,4.27c.75.83,4,3.63,4.25,4.16v-4l-.21.88,3.45-4.49c.79-.14.65-.16-.43-.07a5,5,0,0,1-2.35-.32,8.41,8.41,0,0,1-3.09-1.55c-3.06-2.49-4.17-5.84-8.32-7.1-7.67-2.32-15.41,5.52-12.48,13.2l13.71-5.78c-7.23-12.45-26.14-10.37-38.45-11.27-9.63-.71-9.58,14.29,0,15l16.26,1.2c2.74.2,7.68,0,9.24,2.65,4.12,7.11,16.81,2.37,13.7-5.78l0,0-1,3.79-.7.5-3.78,1c-1.74.1-3.45-2.34-.71,1a21.56,21.56,0,0,0,3.11,3.08,24.07,24.07,0,0,0,7.87,4.26c5,1.59,12.58,2,16.55-2.07,5.4-5.57.62-11.72-3.37-16.1L562.66,476c-3.6-4-11.53-2.2-12.53,3.31l3.55-2.91-1.79-.76a17.07,17.07,0,0,0-4-1.42,51.14,51.14,0,0,0-7.85-1.54,99,99,0,0,0-15.59-.59c-4.38.13-8.91.18-12.61,2.83a10.61,10.61,0,0,0-4,5.58c-.25.93-1.38,4.45.1,3.09s-1.63-.08-2.07,0c-9.4,2.2-5.42,16.66,4,14.46Z" transform="translate(-77.43 -44.76)"/><path class="cls-1" d="M560.12,511.78A343,343,0,0,0,557.21,553c0,4.29,3.48,7.18,7.5,7.5,9.8.77,13.25-13.3,15.28-20.62a65.78,65.78,0,0,0,1.58-28.15c-1.23-7.85-12.38-6.37-14.46,0-4.39,13.4-3.22,27.21,2.32,40,1.61,3.75,7.05,4.52,10.26,2.69,3.87-2.2,4.28-6.56,2.69-10.26-3.93-9.1-3.85-19.17-.81-28.48H567.11a45.3,45.3,0,0,1-.73,16.77,70.85,70.85,0,0,1-2.16,7.6c-.48,1.39-1,2.77-1.54,4.13-.34.8-2.65,4-.57,2.4l3.78-1-1.18-.09,7.5,7.5a343,343,0,0,1,2.91-41.26c.53-4-3.82-7.5-7.5-7.5-4.49,0-7,3.46-7.5,7.5Z" transform="translate(-77.43 -44.76)"/><path class="cls-1" d="M552.77,542.7c-3.19,3-4.44,6.94-4.7,11.19-.1,1.7.15,3.39.13,5.09l0,1.18c-.13.41-.06.39.21,0a.66.66,0,0,1,.31-.36q3-1.65,5.84,3.43c-.07,0,0,.33-.07.38A10.29,10.29,0,0,0,556,562a25.16,25.16,0,0,0,3.7-4.54,13.23,13.23,0,0,0,.29-13.23c-4.56-8.51-17.52-.94-13,7.58-1.51-2.81.6-2.22-.83-1.26a15.65,15.65,0,0,0-2.8,3,15.83,15.83,0,0,0-3.5,6.79c-1.27,6,1.93,12.32,8.13,13.72s12.23-2.79,14.22-8.49a21.27,21.27,0,0,0,.95-7.73c0-1.1-.52-3.81.22-4.5,7.09-6.58-3.53-17.16-10.61-10.6Z" transform="translate(-77.43 -44.76)"/><path class="cls-1" d="M560.16,566.09h6.25c3.92,0,7.68-3.45,7.5-7.5a7.64,7.64,0,0,0-7.5-7.5h-6.25c-3.93,0-7.69,3.45-7.5,7.5a7.62,7.62,0,0,0,7.5,7.5Z" transform="translate(-77.43 -44.76)"/><path class="cls-1" d="M547.32,558.88a60,60,0,0,1-11.59,1c-3.62,0-8.33.38-11.88-.51-3.05-.76-4.75-3.84-6.81-6.22l-8.51-9.82c-4.21-4.87-13.11-1-12.8,5.3.57,11.51,13.71,20.21,23.6,12.11,6.93-5.69,8.32-21.9-3.3-23.13-5.8-.61-10.17,4.72-10.17,10.23s3.66,10.56,7.95,13.7c10,7.31,24.55,5.12,35.87,2.83,9.45-1.91,5.45-16.37-4-14.46a63.91,63.91,0,0,1-16.14,1.46,15,15,0,0,1-5.9-1.28c-.7-.35-1.38-1.26-2-1.52a2,2,0,0,1-.47-.58c-.89-1.49-1.66-.34-2.32,3.47l-5.78.75q-3.15-.75-3.16-3.22a.6.6,0,0,1-.3.47c.91.58,1.16-.57,1.15-.83l-12.8,5.3,10.33,11.94c3.41,3.94,6.62,7.18,12,8.11a89,89,0,0,0,31.09-.58c9.47-1.82,5.46-16.28-4-14.47Z" transform="translate(-77.43 -44.76)"/><path class="cls-1" d="M504.11,547.59a113.55,113.55,0,0,0,5-16.81c.93-4.33,1.23-9.8,4.32-13.23l-12.53-7.3a73.24,73.24,0,0,0-.81,31.29c1.32,7.13,13.18,7.19,14.47,0,1.48-8.31-1.54-14.35-4.12-22-2.32-6.88-.18-13.59-7.16-18.26-5.24-3.52-10.64,1.33-11.28,6.47a197.44,197.44,0,0,0-1.49,21.18c-.17,9.66,14.83,9.66,15,0A197.44,197.44,0,0,1,507,507.73l-11.29,6.48c-3.67-2.46-1-2.73-1.45-1.13a10.72,10.72,0,0,0,.17,3.28,33.24,33.24,0,0,0,1.79,7.88c1.4,4,4.65,9,3.87,13.31h14.47a54.88,54.88,0,0,1,.8-23.31c1.71-6.93-7.32-13.1-12.53-7.3-4.33,4.82-6.25,10.39-7.53,16.65a125.39,125.39,0,0,1-5.69,20c-3.44,9,11.05,12.93,14.47,4Z" transform="translate(-77.43 -44.76)"/><path class="cls-1" d="M607.14,483.63c3.31,7.06,6.64,14.1,9.92,21.17s4.54,12.48,2.24,20c-2.1,6.92-4.62,13.49-5.68,20.69a79.74,79.74,0,0,0-.25,22.41c.53,4,3.07,7.5,7.5,7.5,3.64,0,8-3.46,7.5-7.5a68.24,68.24,0,0,1,.47-22.81c1.63-8,5.35-15.32,6.51-23.37s-1-15-4.27-22.21c-3.55-7.88-7.32-15.66-11-23.49-4.09-8.73-17-1.13-13,7.57Z" transform="translate(-77.43 -44.76)"/><path class="cls-1" d="M623.12,568V543.75c0-9.65-15-9.67-15,0V568c0,9.65,15,9.67,15,0Z" transform="translate(-77.43 -44.76)"/><path class="cls-1" d="M622.35,535.59c2.74-14.74,5.3-30.31-.4-44.7-1.48-3.75-5-6.41-9.22-5.24-3.58,1-6.74,5.43-5.24,9.23,4.73,11.95,2.68,24.46.4,36.73-1.75,9.43,12.7,13.48,14.46,4Z" transform="translate(-77.43 -44.76)"/><path class="cls-1" d="M606.9,486.7q-.72,17.58-.26,35.17c.25,9.64,15.25,9.68,15,0q-.46-17.58.26-35.17c.39-9.65-14.61-9.64-15,0Z" transform="translate(-77.43 -44.76)"/><path class="cls-1" d="M628.14,526.46a275.21,275.21,0,0,1,32.74-.87l-7.5-7.5a53,53,0,0,0,1.3,13.57l7.23-9.5-27.53,0c-9.66,0-9.67,15,0,15l27.53,0c5.07,0,8.28-4.77,7.24-9.49a36.65,36.65,0,0,1-.77-9.58c.16-4.15-3.57-7.37-7.5-7.5a275.21,275.21,0,0,0-32.74.87c-9.54.83-9.63,15.84,0,15Z" transform="translate(-77.43 -44.76)"/><path class="cls-1" d="M621.51,488.88c9.3,1.83,18.52,1.8,27.92,1.08,4.37-.33,8.73-.77,13.11-1,2.49-.16,5-.28,7.49-.3,1.24,0,2.49,0,3.73,0,2.79.51,2.59-.17-.58-2l-1-3.79c.16,2.86,0,5.77-.06,8.64l7.5-7.5a411.05,411.05,0,0,0-49.13,1.48c-9.54.85-9.63,15.86,0,15A411.05,411.05,0,0,1,679.6,499c4.1.12,7.43-3.54,7.5-7.5.09-5.67,1.31-12.91-4.5-16.26-4.91-2.82-12.78-1.71-18.19-1.42-12.91.67-26.06,3.14-38.91.61-9.43-1.86-13.46,12.6-4,14.46Z" transform="translate(-77.43 -44.76)"/><path class="cls-1" d="M684.38,487.19c9.65,0,9.66-15,0-15s-9.67,15,0,15Z" transform="translate(-77.43 -44.76)"/><path class="cls-1" d="M713.73,478.75c.09,6.86,3.5,12.54,5.47,18.95A87.06,87.06,0,0,1,722.67,517c1,13.62.49,27.41.33,41.05a12,12,0,0,0-.13,2.71c.65,1.81,4.76,2.77,5.33.49.7-2.8-.32-7-.44-9.95-.3-7.15-.51-14.31-.56-21.47a350.2,350.2,0,0,1,2.31-44.75c.49-4-3.79-7.5-7.5-7.5-4.46,0-7,3.46-7.5,7.5a374.46,374.46,0,0,0-2.15,54.51c.21,8.21-.58,17.84,1.37,25.85,1.89,7.73,9.84,12.29,17.17,8s7.08-12.59,7.14-20c.06-8.51.22-17,.08-25.54a149.71,149.71,0,0,0-2.31-25.53,77.57,77.57,0,0,0-3.29-12.17c-1.37-3.72-3.74-7.51-3.79-11.54-.14-9.65-15.14-9.68-15,0Z" transform="translate(-77.43 -44.76)"/><path class="cls-1" d="M725.78,489.67c17.81-.91,35.93-2.41,53.77-2a7.92,7.92,0,0,0,1.91-.2c2.71-2.78,3.18-4.09,1.39-3.92l-2.39.08-13.8.48-27.6,1c-9.63.34-9.67,15.34,0,15l38.45-1.35c5.29-.18,11.42.18,15.5-3.87,3.72-3.7,4.19-9.73,1.78-14.26-5.56-10.46-19.67-7.89-29.44-7.58q-19.79.61-39.57,1.63c-9.61.49-9.67,15.5,0,15Z" transform="translate(-77.43 -44.76)"/><path class="cls-1" d="M789.06,486.41c9.65,0,9.67-15,0-15s-9.67,15,0,15Z" transform="translate(-77.43 -44.76)"/><path class="cls-1" d="M739.06,527l17.7,0a60.78,60.78,0,0,0,7.87,0h2q-4.65-5.87-4.42-2.12c-.46,1-.36,2.53-.85,3.64l8.47-3.45c-11.38-2.59-22.76-4.68-34.31-1.87-9.38,2.28-5.41,16.74,4,14.46,8.83-2.15,17.67-.1,26.33,1.87,3,.67,7.11-.37,8.47-3.44,3.2-7.2,6-21.2-4.72-23.77-4.6-1.11-10.07-.31-14.76-.3l-15.74,0c-9.65,0-9.66,15,0,15Z" transform="translate(-77.43 -44.76)"/><path class="cls-1" d="M771.09,523.12c9.66,0,9.67-15,0-15s-9.66,15,0,15Z" transform="translate(-77.43 -44.76)"/><path class="cls-1" d="M821.28,488c14.87,5.17,11.54,26.07,8.71,37.5-2.08,8.4-5.43,17.27-3.91,26,1.45,8.41,7.76,15,16.4,15.76,4,.36,7.89-.61,11.76-1.38a106.08,106.08,0,0,1,14.66-1.76c4.35-.25,8.73-.39,13.09-.42,1.43,0,4.06.67,5.38.32-.68-1.15,0-2.3,1.87-3.45a11,11,0,0,1-2.29.07c-19.83.14-39.79-1.15-59.62-1.73-9.66-.27-9.65,14.73,0,15L882,575.57c7.4.22,16.6.49,19.56-8,2.55-7.36-2.3-15.06-9.32-17.53-7.33-2.57-16.64-1.23-24.25-.76q-6.13.38-12.21,1.27c-3.41.5-8.86,2.77-12.26,1.84-6-1.65-1.37-13.84-.4-17.58,2.11-8.17,4.26-16.49,4.47-25,.37-15.41-7.14-31-22.3-36.23-9.14-3.18-13.07,11.3-4,14.46Z" transform="translate(-77.43 -44.76)"/><path class="cls-1" d="M833.33,563.05c-1.58-11,1-22.25,2.76-33.08,1.84-11.39,2.93-22.55.61-34-1.92-9.45-16.38-5.45-14.46,4,2.22,10.93,0,22.07-1.77,32.89-1.92,11.46-3.26,22.58-1.61,34.15.57,4,5.68,6.23,9.23,5.23,4.31-1.2,5.81-5.18,5.24-9.22Z" transform="translate(-77.43 -44.76)"/><path class="cls-1" d="M818.28,487.5v47.66c0,9.65,15,9.66,15,0V487.5c0-9.65-15-9.67-15,0Z" transform="translate(-77.43 -44.76)"/><path class="cls-1" d="M838.66,522.94a6,6,0,0,1,3.51,1.86,4.16,4.16,0,0,1,.54,1.35,10.85,10.85,0,0,1,2.41-2.42h4l-1-.33,4.48,3.44-.71-.92,1,3.79c0,.17-.41-.31.24-.83,1-.8.87-1.08,1.82-1.41.7-.24-.51-.31-.46-.24.34.57.24,2.94.38,3.78.87,5.17,4.29,9.23,9.87,9,10.72-.42,13.28-17.81,13.75-25.84l-14.74,2,3.12,15.52c1.89,9.45,16.35,5.45,14.46-4l-3.11-15.51c-1.74-8.67-14.27-6.07-14.73,2a32.46,32.46,0,0,1-1.23,7.24,29.22,29.22,0,0,1-1.06,3.11c-.36.87-2,2.87-.25,1.51l3.79-1h-1.22l5.31,2.19c1,1,.54,2,.61.16a16.34,16.34,0,0,0-.68-4.39,14.21,14.21,0,0,0-3.21-6A14.62,14.62,0,0,0,854,512.5c-8.63.52-19.4,10.93-15.4,20.09,4.58,10.51,18.16,5,19-4.81.81-9.07-6.19-17.57-15-19.31-9.42-1.87-13.46,12.59-4,14.47Z" transform="translate(-77.43 -44.76)"/><path class="cls-1" d="M875.3,505a98.43,98.43,0,0,1-16.71,1.62c-9.64.14-9.67,15.14,0,15a122,122,0,0,0,20.7-2.16c4-.75,6.25-5.55,5.24-9.22-1.15-4.18-5.23-6-9.23-5.24Z" transform="translate(-77.43 -44.76)"/><path class="cls-1" d="M832.84,487.65l29.81-1.43,13.91-.67,8-.38,4-.2c-.79-1.94-1.2-2.46-1.24-1.58a32,32,0,0,1-.17,3.5c2.34-1,2.53-1.45.57-1.21l-3.85-.06-13.49-.21L841.4,485c-9.65-.15-9.66,14.85,0,15l40.46.63c5.49.09,11.54.81,15.91-3.26,3.85-3.6,4.75-9.32,4.42-14.35-.36-5.26-2.38-10.33-7.75-12.18-6-2.07-13.62-.46-19.87-.16l-41.73,2c-9.61.47-9.67,15.47,0,15Z" transform="translate(-77.43 -44.76)"/><path class="cls-1" d="M878.5,496.88a14.66,14.66,0,0,1,7.83,0c3.79,1,8.32-1.25,9.23-5.24a7.64,7.64,0,0,0-5.24-9.23,31.59,31.59,0,0,0-15.81,0,7.51,7.51,0,0,0,4,14.47Z" transform="translate(-77.43 -44.76)"/><path class="cls-1" d="M932.31,486.33c5.76,2,11.75,1.83,17.78,1.7q9.78-.22,19.57-.12,9.3.1,18.59.5c1.4.06,3.51.6,4.88.23q4.11.89-.08-2c-1.43-2.53-2.12-3-2.1-1.51-1.08,1.44-.08,6.16.27,7.5,2.47,9.32,16.94,5.37,14.47-4-.59-2.24.57-4.8,0-7.2a10,10,0,0,0-5.48-6.54c-2.75-1.33-6-1.2-9-1.34q-5.86-.27-11.74-.44-10.76-.3-21.53-.2c-7,.07-14.85,1.31-21.62-1-9.13-3.17-13.06,11.31-4,14.47Z" transform="translate(-77.43 -44.76)"/><path class="cls-1" d="M994.69,481.72c-.35-.81,0,0,0,.31.07-.78-.08-.37,0,.21a2.32,2.32,0,0,1-.21,1.46,11.24,11.24,0,0,0-.57,1.07c-.08.1-1,1.12-.61.66s-1.19.62,0,.13c-3.73,1.56-6.41,5-5.24,9.22,1,3.53,5.47,6.81,9.23,5.24,10.5-4.38,15-15.4,10.41-25.87-1.64-3.71-7-4.57-10.27-2.69-3.81,2.23-4.33,6.54-2.69,10.26Z" transform="translate(-77.43 -44.76)"/><path class="cls-1" d="M990.63,487.79l-27,.06c-5.27,0-14.23,1.77-18-2.83-6.15-7.45-16.71,3.22-10.61,10.61,5.61,6.78,14.71,7.24,22.85,7.23q16.41,0,32.83-.07c9.65,0,9.67-15,0-15Z" transform="translate(-77.43 -44.76)"/><path class="cls-1" d="M925.54,489.66c1.32,8.81,3,17.57,5,26.23,1.83,7.75,3.88,14.3,10.43,19.31,3.89,3,9.93-.24,11-4.48a71.77,71.77,0,0,0,.2-35c-2.26-9.38-16.73-5.4-14.46,4a55.08,55.08,0,0,1-.21,27l11-4.48c-1.5-1.15-2-4.26-2.45-5.93-.88-3.31-1.63-6.65-2.36-10-1.49-6.83-2.72-13.72-3.76-20.64-.6-4-5.66-6.24-9.22-5.24-4.29,1.2-5.85,5.19-5.24,9.22Z" transform="translate(-77.43 -44.76)"/><path class="cls-1" d="M938,496.89a303.51,303.51,0,0,0,1.21,45.92c.7,6.78,7.56,9.49,12.81,5.3,4.21-3.35,5.13-8.62,5.39-13.71.49-9.65-14.51-9.63-15,0-.07,1.44.06,2.26-1,3.11l12.8,5.3A303.51,303.51,0,0,1,953,496.89c.47-9.65-14.53-9.63-15,0Z" transform="translate(-77.43 -44.76)"/><path class="cls-1" d="M946,516.46a53.12,53.12,0,0,1,3.89,15.17c.75,8.2,12.11,10.44,14.73,2l6.26-20.19H956.4l7,24.2c2.15,7.39,12.08,6.84,14.46,0l6.94-19.91H970.38a79.05,79.05,0,0,1,3.77,15.91c.48,4,3.11,7.5,7.5,7.5,3.68,0,8-3.45,7.5-7.5a97.45,97.45,0,0,0-4.31-19.9,7.57,7.57,0,0,0-14.46,0l-6.94,19.91H977.9l-7-24.2c-2.1-7.21-12.28-7-14.46,0l-6.26,20.19,14.73,2a66.7,66.7,0,0,0-4.42-19.16c-1.52-3.74-5-6.42-9.23-5.24-3.55,1-6.77,5.44-5.24,9.23Z" transform="translate(-77.43 -44.76)"/><path class="cls-1" d="M994.94,563c-1.7-.56-1.1-.64-1.09,1.71a36.34,36.34,0,0,0,.22,4.67l5.51-7.23c-5.8,1.16-11.72.8-17.57.17-3.54-.38-9.17-.13-11.65-3.08v10.61c2.7-2.16,6.42-5.3,10.08-5.28,4,0,6.65,2.47,10.89,1a7.76,7.76,0,0,0,5.5-7.23c.14-10.23-10.94-11.7-18.8-12.43-9.15-.84-18.51-.09-27.61.92-8.46,1-16.09,6.52-13,16.1a14.4,14.4,0,0,0,7.44,8.22c3.77,1.92,8.13,1.31,11.86,3v-13l-3.53,1.83c-8.58,4.43-1,17.38,7.57,12.95l3.53-1.82c4.71-2.44,5.09-10.64,0-13a28.43,28.43,0,0,0-6.13-2.15c-1.48-.31-4.64-1.36-6.07-1.11-1.29-1-1.87-.34-1.77,1.83q-2.05,3,.1,2.06c1.11.68,6-.55,7.36-.67,4.29-.34,8.6-.6,12.91-.58,2.45,0,4.9.09,7.34.33a33.4,33.4,0,0,1,3.46.45q2.68,1.22,1.38-.37l-1-3.79,0,1.14,5.51-7.23c-.4.14-4.57-1.31-5.58-1.38a21,21,0,0,0-8.13,1.07c-5.26,1.79-9.59,5.07-13.88,8.49-3.35,2.68-2.37,7.8,0,10.61,4.66,5.53,11.82,6.18,18.52,7,8.54,1.07,16.81,1.43,25.3-.27,2.85-.56,5.91-4.18,5.5-7.23-.55-4.15.18-8.32-1.24-12.36a13.33,13.33,0,0,0-8.9-8.49c-9.2-3-13.14,11.48-4,14.47Z" transform="translate(-77.43 -44.76)"/><path class="cls-1" d="M923.31,515.4a331.87,331.87,0,0,1,5.09,49.42c.28,9.64,15.28,9.68,15,0a359.81,359.81,0,0,0-5.62-53.4c-1.71-9.49-16.17-5.47-14.47,4Z" transform="translate(-77.43 -44.76)"/><path class="cls-1" d="M930.05,571.1c2.1,2.8,4.58,5,8.07,5.86a14.66,14.66,0,0,0,10.08-1.18c3.57-1.66,4.74-7.08,2.69-10.27-2.37-3.67-6.44-4.46-10.26-2.69,1.16-.44,1.36-.55.61-.31s-.54.13.75-.09a5.89,5.89,0,0,1-.84,0q1.83.3,1,.09c-1.69-.64,1.31.76,0,0-.65-.42-.48-.28.51.43-.54-.56-.42-.37.35.57a8.21,8.21,0,0,0-4.49-3.44,7.6,7.6,0,0,0-5.77.75c-3.1,2-5.21,6.9-2.7,10.26Z" transform="translate(-77.43 -44.76)"/><path class="cls-1" d="M935.16,574.69c9.65,0,9.66-15,0-15s-9.67,15,0,15Z" transform="translate(-77.43 -44.76)"/></g><g id="Layer_1" data-name="Layer 1"><g id="Baltimore-Code-and-Coffee-Logo-horiz"><rect class="cls-3" x="289.02" y="145.56" width="474.77" height="267.06"/><path class="cls-4" d="M551.9,220v7.42h7.42V249.7H551.9v7.41h-7.42v7.42h7.42v-7.42h7.42c-.14,0,0-7.41,0-7.41h7.42V227.44h-7.42V220Z" transform="translate(-77.43 -44.76)"/><path class="cls-4" d="M589,220h-7.42v7.42h-7.41v14.84h7.41v7.42h-7.41v7.41h-7.42v7.42h7.42v-7.42h7.41V249.7H589v-7.42h-7.42V227.44H589Z" transform="translate(-77.43 -44.76)"/><path class="cls-4" d="M529.65,220v14.84h7.41v7.42h-7.41v14.83h-7.42v7.42h7.42v-7.42h7.41V242.28h7.42v-7.42h-7.42V220Z" transform="translate(-77.43 -44.76)"/><path class="cls-5" d="M537.06,294.21v7.41H522.23v14.84h7.42v7.42h44.51v-7.42h7.41V309H589v-7.42H574.16v-7.41Z" transform="translate(-77.43 -44.76)"/><path class="cls-6" d="M529.65,286.79v7.42h-7.42v7.41h-7.42V309h7.42v-7.42h14.83v-7.41h37.1v7.41h7.41v-7.41h-7.41v-7.42Z" transform="translate(-77.43 -44.76)"/><path class="cls-7" d="M574.16,323.88v-7.42h7.41V309H589v-7.42h-7.42v-7.41h-7.41v-7.42H529.65v7.42h-7.42v7.41h-7.42V309h7.42v7.42h7.42v7.42h44.51v7.42h-7.42v7.41h-7.42v7.42h7.42v7.42h7.42v51.93h-7.42v7.42H529.65v-7.42H514.81v-7.42h-7.42V294.21h7.42v-7.42h7.42v-7.42h59.34v7.42H589v7.42h7.42V309H589v7.42h-7.42v7.42Z" transform="translate(-77.43 -44.76)"/><path class="cls-8" d="M581.57,272v7.42H589v7.42h7.42v7.42h7.42v7.41h7.42v14.84h7.41v7.42h7.42v7.42h7.42v44.51h-7.42v7.41h-7.42v7.42h-7.41v7.42h-7.42v7.42h-7.42v7.42H589v7.41H574.16v7.42H529.65v-7.42H514.81V412.9h-7.42v-7.42H500V294.21h7.42v-7.42h7.42v-7.42h7.42v7.42h-7.42v7.42h-7.42V405.48h7.42v7.42h14.84v7.41h44.51V412.9H589v-7.42h7.42v-7.42h7.42V383.22h14.83v-7.41h7.42V331.3h-7.42v-7.42H603.83V301.62h-7.42v-7.41H589v-7.42h-7.42v-7.42H522.23V272" transform="translate(-77.43 -44.76)"/><path class="cls-7" d="M603.83,323.88v7.42h7.42v7.41h7.41V361h7.42V331.3h-7.42v-7.42Z" transform="translate(-77.43 -44.76)"/><path class="cls-9" d="M603.83,331.3v44.51h7.42v-7.42h7.41V338.71h-7.41V331.3Z" transform="translate(-77.43 -44.76)"/><path class="cls-10" d="M596.41,301.62V309H589v7.42h-7.42v7.42h-7.41v7.42h-7.42v7.41h-7.42v7.42h7.42v7.42h7.42v51.93h-7.42v7.42H529.65v-7.42H514.81v-7.42h-7.42v7.42h7.42v7.42h14.84v7.41h44.51V412.9H589v-7.42h7.42v-7.42h7.42V383.22h14.83v-7.41h7.42V361h-7.42v7.42h-7.41v7.42h-7.42V301.62Z" transform="translate(-77.43 -44.76)"/><path class="cls-8" d="M648.34,412.9V398.06h7.42V383.22h7.41V368.39h7.42V353.55H678V338.71h7.42V323.88h7.42V309h7.41V294.21h7.42V309h-7.42v14.84h-7.41v14.83h-7.42v14.84H678v14.84h-7.42v14.83h-7.42v14.84h-7.41V412.9Z" transform="translate(-77.43 -44.76)"/><path class="cls-11" d="M700.26,286.79v14.83h-7.41v14.84h-7.42V331.3H678v14.83h-7.42V361h-7.42v14.84h-7.41v14.83h-7.42v7.42h7.42V383.22h7.41V368.39h7.42V353.55H678V338.71h7.42V323.88h7.42V309h7.41V294.21h7.42v-7.42Z" transform="translate(-77.43 -44.76)"/><path class="cls-8" d="M729.94,309v7.42h14.83v7.42h14.84v7.42h14.84v7.41h14.83v7.42h14.84v7.42H789.28V361H774.45v7.42H759.61v7.42H744.77v7.41H729.94v7.42h14.83v-7.42h14.84v-7.41h14.84v-7.42h14.83V361h14.84v-7.42h7.42v-7.42h-7.42v-7.42H789.28V331.3H774.45v-7.42H759.61v-7.42H744.77V309Z" transform="translate(-77.43 -44.76)"/><path class="cls-11" d="M737.36,316.46v7.42h14.83v7.42H767v7.41h14.83v7.42H796.7v7.42h7.42v-7.42H789.28v-7.42H774.45V331.3H759.61v-7.42H744.77v-7.42Z" transform="translate(-77.43 -44.76)"/><path class="cls-11" d="M737.36,375.81v7.41h7.41v-7.41h14.84v-7.42h14.84V361h14.83v-7.42h-7.42V361H767v7.42H752.19v7.42Z" transform="translate(-77.43 -44.76)"/><path class="cls-8" d="M477.72,390.64v-7.42H462.88v-7.41H448.05v-7.42H433.21V361H418.37v-7.42H403.54v-7.42h14.83v-7.42h14.84V331.3h14.84v-7.42h14.83v-7.42h14.84V309H462.88v7.42H448.05v7.42H433.21v7.42H418.37v7.41H403.54v7.42h-7.42v7.42h7.42V361h14.83v7.42h14.84v7.42h14.84v7.41h14.83v7.42Z" transform="translate(-77.43 -44.76)"/><path class="cls-11" d="M470.3,383.22v-7.41H455.46v-7.42H440.63V361H425.79v-7.42H411v-7.42h-7.41v7.42h14.83V361h14.84v7.42h14.84v7.42h14.83v7.41Z" transform="translate(-77.43 -44.76)"/><path class="cls-11" d="M470.3,323.88v-7.42h-7.42v7.42H448.05v7.42H433.21v7.41H418.37v7.42h7.42v-7.42h14.84V331.3h14.83v-7.42Z" transform="translate(-77.43 -44.76)"/></g><text class="cls-12" transform="translate(0 124.36)">bmore Code <tspan x="144.69" y="401.67">&amp; Coffee</tspan></text></g></svg>